<?xml version="1.0" standalone="no"?>
<!DOCTYPE svg PUBLIC "-//W3C//DTD SVG 1.1//EN" "http://www.w3.org/Graphics/SVG/1.1/DTD/svg11.dtd" >
<svg xmlns="http://www.w3.org/2000/svg" xmlns:xlink="http://www.w3.org/1999/xlink" version="1.1">
<metadata>
Created by FontForge 20170731 at Thu Jun  7 10:22:58 2007
 By Aleksey,,,
Copyright (c) 2003 by Bitstream, Inc. All Rights Reserved.
DejaVu changes are in public domain
</metadata>
<defs>
<font id="DejaVuSans" horiz-adv-x="0" >
  <font-face 
    font-family="DejaVu Sans"
    font-weight="400"
    font-stretch="normal"
    units-per-em="1000"
    panose-1="2 11 6 3 3 8 4 2 2 4"
    ascent="760"
    descent="-240"
    x-height="547"
    cap-height="729"
    bbox="-500 -505 1352 1037"
    underline-thickness="70"
    underline-position="-279"
    unicode-range="U+0020-FFFD"
  />
<missing-glyph horiz-adv-x="600" 
d="M50 -177h500v882h-500v-882zM106 -121v770h388v-770h-388z" />
    <glyph glyph-name=".notdef" horiz-adv-x="600" 
d="M50 -177h500v882h-500v-882zM106 -121v770h388v-770h-388z" />
    <glyph glyph-name=".null" 
 />
    <glyph glyph-name="nonmarkingreturn" horiz-adv-x="333" 
 />
    <glyph glyph-name="space" unicode=" " horiz-adv-x="318" 
 />
    <glyph glyph-name="exclam" unicode="!" horiz-adv-x="401" 
d="M151 124v-124h99v124h-99zM161 729v-320v-174h89v174v320h-89z" />
    <glyph glyph-name="quotedbl" unicode="&#x22;" horiz-adv-x="460" 
d="M179 729h-83v-271h83v271zM364 729h-83v-271h83v271z" />
    <glyph glyph-name="numbersign" unicode="#" horiz-adv-x="838" 
d="M511 440l-40 -163h-143l41 163h142zM438 718h-79l-50 -203h-176v-75h157l-41 -163h-172v-75h154l-51 -202h79l50 202h143l-50 -202h78l51 202h174v75h-155l40 163h171v75h-152l50 203h-78l-51 -203h-143z" />
    <glyph glyph-name="dollar" unicode="$" horiz-adv-x="636" 
d="M338 -147v148q104 8 159.5 55.5t55.5 129.5q0 76 -52 120t-163 61v209q90 -4 171 -45v85q-81 27 -171 30v114h-49v-115q-100 -7 -153 -53t-53 -125q0 -74 49 -116t157 -59v-223q-108 1 -206 64v-88q104 -44 206 -45v-147h49zM289 376q-61 11 -88.5 34t-27.5 65
q0 43 29.5 69t86.5 32v-200zM338 282q64 -11 94.5 -36.5t30.5 -68.5q0 -89 -125 -106v211z" />
    <glyph glyph-name="percent" unicode="%" horiz-adv-x="950" 
d="M727 321q42 0 66 -36.5t24 -100.5q0 -63 -24.5 -99.5t-65.5 -36.5q-43 0 -67 36.5t-24 99.5q0 64 24 100.5t67 36.5zM727 383q-78 0 -123 -54q-46 -53 -46 -145t46 -145q44 -53 123 -53q78 0 122 53q46 53 46 145q0 91 -45 145q-46 54 -123 54zM223 680q42 0 66.5 -36.5
t24.5 -99.5q0 -64 -24 -100.5t-67 -36.5q-42 0 -66 36.5t-24 100.5q0 63 24 99.5t66 36.5zM664 742l-456 -756h78l456 756h-78zM223 742q-77 0 -122 -54q-46 -52 -46 -144t45 -146q45 -53 123 -53t123 53q46 53 46 146q0 92 -46 144q-46 54 -123 54z" />
    <glyph glyph-name="ampersand" unicode="&#x26;" horiz-adv-x="780" 
d="M243 392l259 -265q-69 -62 -163 -62q-77 0 -130 47q-52 48 -52 119q0 84 86 161zM312 447q-44 45 -59 71q-14 26 -14 50q0 43 32 70q31 27 83 27q67 0 153 -47v89q-84 35 -163 35q-90 0 -144 -48t-54 -127q0 -58 48 -121q-131 -97 -131 -221q0 -105 75 -172
q73 -67 192 -67q125 0 226 86l70 -72h123l-136 139q90 123 102 252h-91q-6 -112 -64 -198z" />
    <glyph glyph-name="quotesingle" unicode="'" horiz-adv-x="275" 
d="M179 729h-83v-271h83v271z" />
    <glyph glyph-name="parenleft" unicode="(" horiz-adv-x="390" 
d="M310 759h-78q-146 -229 -146 -445q0 -218 146 -446h78q-129 223 -129 446t129 445z" />
    <glyph glyph-name="parenright" unicode=")" horiz-adv-x="390" 
d="M80 759q129 -222 129 -445q0 -225 -129 -446h78q146 228 146 446q0 216 -146 445h-78z" />
    <glyph glyph-name="asterisk" unicode="*" horiz-adv-x="500" 
d="M470 609l-28 48l-164 -99v184h-56v-184l-164 99l-28 -48l175 -95l-175 -95l28 -48l164 99v-184h56v184l164 -99l28 48l-175 95z" />
    <glyph glyph-name="plus" unicode="+" horiz-adv-x="838" 
d="M460 627h-82v-272h-272v-83h272v-272h82v272h272v83h-272v272z" />
    <glyph glyph-name="comma" unicode="," horiz-adv-x="318" 
d="M117 124v-84l-40 -156h63l80 156v84h-103z" />
    <glyph glyph-name="hyphen" unicode="-" horiz-adv-x="361" 
d="M49 314v-80h263v80h-263z" />
    <glyph glyph-name="period" unicode="." horiz-adv-x="318" 
d="M107 124v-124h103v124h-103z" />
    <glyph glyph-name="slash" unicode="/" horiz-adv-x="337" 
d="M254 729l-254 -822h83l254 822h-83z" />
    <glyph glyph-name="zero" unicode="0" horiz-adv-x="636" 
d="M318 664q153 0 153 -300t-153 -300t-153 300t153 300zM318 742q-123 0 -187.5 -97t-64.5 -281t64.5 -281t187.5 -97q122 0 187 97t65 281t-65 281t-187 97z" />
    <glyph glyph-name="one" unicode="1" horiz-adv-x="636" 
d="M124 83v-83h420v83h-161v646h-99l-174 -35v-90l175 35v-556h-161z" />
    <glyph glyph-name="two" unicode="2" horiz-adv-x="636" 
d="M192 83q238 242 262 271q45 55 61 95q17 42 17 85q0 95 -67 152q-68 56 -181 56q-86 0 -206 -48v-100q115 65 208 65q65 0 106 -36q41 -38 41 -95q0 -36 -19 -73q-18 -36 -66 -90q-21 -25 -122 -126q-96 -97 -153 -156v-83h463v83h-344z" />
    <glyph glyph-name="three" unicode="3" horiz-adv-x="636" 
d="M406 393q64 16 98.5 58t34.5 102q0 87 -65 138q-66 51 -178 51q-87 0 -198 -31v-88q107 36 189 36q74 0 114 -30t40 -86q0 -55 -38.5 -84t-111.5 -29h-89v-81h85q81 0 126 -36t45 -101q0 -70 -48.5 -106.5t-141.5 -36.5q-110 0 -192 48v-95q104 -36 195 -36q139 0 211 59
q74 59 74 167q0 71 -40 118q-39 48 -110 63z" />
    <glyph glyph-name="four" unicode="4" horiz-adv-x="636" 
d="M378 643v-389h-249zM352 729l-303 -462v-95h329v-172h98v172h104v82h-104v475h-124z" />
    <glyph glyph-name="five" unicode="5" horiz-adv-x="636" 
d="M108 729v-366q79 36 159 36q85 0 134 -45q49 -43 49 -120q0 -76 -49 -121q-48 -44 -134 -44q-103 0 -190 47v-99q100 -31 192 -31q135 0 207 65q73 65 73 183q0 115 -71 181q-73 67 -194 67q-42 0 -86 -15v179h297v83h-387z" />
    <glyph glyph-name="six" unicode="6" horiz-adv-x="636" 
d="M330 404q66 0 105 -46q39 -45 39 -124q0 -78 -39 -125q-39 -45 -105 -45q-68 0 -105 45q-39 47 -39 125q0 79 39 124q37 46 105 46zM526 713q-84 29 -154 29q-138 0 -220 -103q-82 -101 -82 -275q0 -186 67 -281q66 -97 193 -97q110 0 177 68q66 68 66 180q0 116 -64 181
q-64 67 -173 67q-108 0 -168 -88q15 265 208 265q73 0 150 -36v90z" />
    <glyph glyph-name="seven" unicode="7" horiz-adv-x="636" 
d="M82 729v-83h350l-249 -646h103l265 687v42h-469z" />
    <glyph glyph-name="eight" unicode="8" horiz-adv-x="636" 
d="M318 346q69 0 111 -37q40 -37 40 -104q0 -66 -40 -103q-41 -38 -111 -38t-111 38q-40 36 -40 103t40 104q42 37 111 37zM219 388q-70 -16 -111 -65q-40 -47 -40 -118q0 -106 64.5 -162.5t185.5 -56.5t185.5 56.5t64.5 162.5q0 71 -40 118q-41 49 -111 65q63 16 98.5 59.5
t35.5 105.5q0 88 -62 138q-63 51 -171 51q-110 0 -171 -51q-62 -49 -62 -138q0 -62 35.5 -105.5t98.5 -59.5zM183 544q0 57 35.5 88.5t99.5 31.5q63 0 99 -31.5t36 -88.5t-36 -88.5t-99 -31.5q-64 0 -99.5 31.5t-35.5 88.5z" />
    <glyph glyph-name="nine" unicode="9" horiz-adv-x="636" 
d="M110 15q84 -29 154 -29q139 0 220 102q82 103 82 276q0 184 -66.5 281t-193.5 97q-110 0 -177 -68q-66 -68 -66 -180q0 -115 63 -181q64 -66 174 -66q109 0 168 87q-15 -265 -208 -265q-73 0 -150 36v-90zM306 324q-66 0 -105 46q-39 45 -39 124t39 124q39 46 105 46
t105 -46q39 -45 39 -124t-39 -124q-39 -46 -105 -46z" />
    <glyph glyph-name="colon" unicode=":" horiz-adv-x="337" 
d="M117 124v-124h103v124h-103zM117 517v-124h103v124h-103z" />
    <glyph glyph-name="semicolon" unicode=";" horiz-adv-x="337" 
d="M117 517v-124h103v124h-103zM117 124v-84l-40 -156h63l80 156v84h-103z" />
    <glyph glyph-name="less" unicode="&#x3c;" horiz-adv-x="838" 
d="M732 492v89l-626 -227v-81l626 -227v89l-504 178z" />
    <glyph glyph-name="equal" unicode="=" horiz-adv-x="838" 
d="M106 454v-82h626v82h-626zM106 255v-83h626v83h-626z" />
    <glyph glyph-name="greater" unicode="&#x3e;" horiz-adv-x="838" 
d="M106 492l503 -179l-503 -178v-89l626 227v81l-626 227v-89z" />
    <glyph glyph-name="question" unicode="?" horiz-adv-x="531" 
d="M191 124v-124h99v124h-99zM287 196v60q0 44 6 65q7 22 46 61l43 42q45 44 61 75q18 33 18 71q0 77 -55 125q-53 47 -144 47q-99 0 -190 -55v-92q96 67 173 67q53 0 85 -27t32 -70q0 -46 -53 -96l-44 -43q-43 -42 -57 -74q-14 -29 -14 -81l-3 -75h96z" />
    <glyph glyph-name="at" unicode="@" horiz-adv-x="1000" 
d="M372 262q0 68 35 109q34 40 94 40q58 0 95 -40q35 -41 35 -109t-35 -109q-34 -40 -94 -40t-95 39q-35 41 -35 110zM638 116v-75q136 3 215 77q77 74 77 203q0 122 -75 220q-59 77 -149 121q-88 42 -192 42q-190 0 -320 -128q-128 -126 -128 -311q0 -189 128 -314
t313 -125q153 0 279 98l-44 54q-105 -82 -235 -82q-159 0 -263 104q-109 106 -109 265q0 95 43 175q44 82 120 131q95 63 217 63q177 0 283 -132q62 -79 62 -183q0 -86 -41 -141t-111 -65v359h-70v-64q-56 74 -155 74q-83 0 -136 -61q-53 -62 -53 -159t52 -158t137 -61
q98 0 155 73z" />
    <glyph glyph-name="A" unicode="A" horiz-adv-x="684" 
d="M342 632l134 -363h-268zM286 729l-278 -729h104l66 187h329l66 -187h103l-278 729h-112z" />
    <glyph glyph-name="B" unicode="B" horiz-adv-x="686" 
d="M197 348h158q80 0 118 -32.5t38 -100.5q0 -134 -156 -134h-158v267zM197 648h146q143 0 143 -110t-143 -110h-146v220zM98 729v-729h262q121 0 189 53q66 54 66 151q0 74 -40 123.5t-113 65.5q123 20 123 156q0 86 -61 133t-174 47h-252z" />
    <glyph glyph-name="C" unicode="C" horiz-adv-x="698" 
d="M644 673q-102 69 -232 69q-165 0 -261 -101q-95 -103 -95 -277t95 -277q96 -101 261 -101q129 0 232 70v103q-98 -92 -226 -92q-125 0 -191.5 76.5t-66.5 220.5q0 145 66.5 221t191.5 76q128 0 226 -92v104z" />
    <glyph glyph-name="D" unicode="D" horiz-adv-x="770" 
d="M197 648h119q150 0 221 -68q70 -70 70 -215q0 -146 -70 -216q-71 -68 -221 -68h-119v567zM98 729v-729h203q212 0 310 88q100 88 100 277q0 187 -99 276q-98 88 -311 88h-203z" />
    <glyph glyph-name="E" unicode="E" horiz-adv-x="632" 
d="M98 729v-729h470v83h-371v264h347v83h-347v216h362v83h-461z" />
    <glyph glyph-name="F" unicode="F" horiz-adv-x="575" 
d="M98 729v-729h99v348h289v83h-289v215h320v83h-419z" />
    <glyph glyph-name="G" unicode="G" horiz-adv-x="775" 
d="M595 104q-64 -37 -167 -37q-268 0 -268 297t268 297q136 0 246 -93v105q-110 69 -254 69q-171 0 -268 -100q-96 -99 -96 -278q0 -178 96 -279q98 -99 268 -99q158 0 273 82v313h-259v-81h161v-196z" />
    <glyph glyph-name="H" unicode="H" horiz-adv-x="752" 
d="M98 729v-729h99v347h358v-347h99v729h-99v-299h-358v299h-99z" />
    <glyph glyph-name="I" unicode="I" horiz-adv-x="295" 
d="M98 729v-729h99v729h-99z" />
    <glyph glyph-name="J" unicode="J" horiz-adv-x="295" 
d="M98 729v-678q0 -95 -27 -132q-27 -36 -92 -36h-31v-83h38q110 0 160 59q51 60 51 192v678h-99z" />
    <glyph glyph-name="K" unicode="K" horiz-adv-x="656" 
d="M98 729v-729h99v351l350 -351h130l-388 389l362 340h-127l-327 -308v308h-99z" />
    <glyph glyph-name="L" unicode="L" horiz-adv-x="557" 
d="M98 729v-729h454v83h-355v646h-99z" />
    <glyph glyph-name="M" unicode="M" horiz-adv-x="863" 
d="M98 729v-729h96v640l188 -500h99l188 500v-640h96v729h-147l-187 -496l-186 496h-147z" />
    <glyph glyph-name="N" unicode="N" horiz-adv-x="748" 
d="M98 729v-729h96v610l323 -610h133v729h-96v-610l-323 610h-133z" />
    <glyph glyph-name="O" unicode="O" horiz-adv-x="787" 
d="M394 662q107 0 170 -80t63 -218t-63 -218t-170 -80q-106 0 -171 80q-63 80 -63 218t63 218q65 80 171 80zM394 742q-155 0 -246 -103q-92 -103 -92 -275t92 -276q92 -102 246 -102t245 102q92 104 92 276t-92 275q-91 103 -245 103z" />
    <glyph glyph-name="P" unicode="P" horiz-adv-x="603" 
d="M197 648h124q69 0 106.5 -35.5t37.5 -101.5t-37.5 -101.5t-106.5 -35.5h-124v274zM98 729v-729h99v293h124q248 0 248 218q0 107 -63 162.5t-185 55.5h-223z" />
    <glyph glyph-name="Q" unicode="Q" horiz-adv-x="787" 
d="M394 662q107 0 170 -80t63 -218t-63 -218t-170 -80q-106 0 -171 80q-63 80 -63 218t63 218q65 80 171 80zM532 13q97 43 148 133q51 91 51 218q0 172 -92 275q-91 103 -245 103q-155 0 -246 -103q-92 -103 -92 -275t92 -276q92 -102 246 -102q20 0 41 2l108 -117h119z
" />
    <glyph glyph-name="R" unicode="R" horiz-adv-x="695" 
d="M444 342q61 17 93 62.5t32 114.5q0 210 -248 210h-223v-729h99v308h107q59 0 92 -24q36 -25 71 -97l93 -187h106l-100 199q-61 123 -122 143zM197 648h124q144 0 144 -129q0 -130 -144 -130h-124v259z" />
    <glyph glyph-name="S" unicode="S" horiz-adv-x="635" 
d="M535 705q-110 37 -213 37q-121 0 -188 -55q-68 -56 -68 -153q0 -83 49 -130q50 -47 160 -69l60 -12q75 -15 108 -45t33 -84q0 -62 -45.5 -95t-130.5 -33q-110 0 -231 68v-102q123 -46 231 -46q137 0 208 54.5t71 160.5q0 89 -52.5 142t-162.5 74l-60 12q-80 15 -110 40
q-29 24 -29 73q0 58 44 89t124 31q92 0 202 -53v96z" />
    <glyph glyph-name="T" unicode="T" horiz-adv-x="611" 
d="M-3 729v-83h259v-646h99v646h259v83h-617z" />
    <glyph glyph-name="U" unicode="U" horiz-adv-x="732" 
d="M87 729v-455q0 -142 70.5 -215t208.5 -73t208.5 73t70.5 215v455h-99v-443q0 -117 -43 -169q-42 -51 -137 -51t-137 51q-43 52 -43 169v443h-99z" />
    <glyph glyph-name="V" unicode="V" horiz-adv-x="684" 
d="M286 0h112l278 729h-103l-231 -614l-231 614h-103z" />
    <glyph glyph-name="W" unicode="W" horiz-adv-x="989" 
d="M33 729l183 -729h124l155 633l154 -633h124l183 729h-100l-153 -616l-153 616h-111l-153 -616l-153 616h-100z" />
    <glyph glyph-name="X" unicode="X" horiz-adv-x="685" 
d="M63 729l227 -340l-260 -389h106l207 310l205 -310h106l-250 379l234 350h-106l-182 -271l-181 271h-106z" />
    <glyph glyph-name="Y" unicode="Y" horiz-adv-x="611" 
d="M-2 729l258 -382v-347h99v347l258 382h-106l-201 -300l-202 300h-106z" />
    <glyph glyph-name="Z" unicode="Z" horiz-adv-x="685" 
d="M56 729v-83h450l-461 -571v-75h595v83h-472l461 571v75h-573z" />
    <glyph glyph-name="bracketleft" unicode="[" horiz-adv-x="390" 
d="M86 760v-892h207v70h-117v752h117v70h-207z" />
    <glyph glyph-name="backslash" unicode="\" horiz-adv-x="337" 
d="M83 729h-83l254 -822h83z" />
    <glyph glyph-name="bracketright" unicode="]" horiz-adv-x="390" 
d="M304 760h-207v-70h117v-752h-117v-70h207v892z" />
    <glyph glyph-name="asciicircum" unicode="^" horiz-adv-x="838" 
d="M467 729h-96l-265 -272h98l215 193l215 -193h98z" />
    <glyph glyph-name="underscore" unicode="_" horiz-adv-x="500" 
d="M510 -166h-520v-70h520v70z" />
    <glyph glyph-name="grave" unicode="`" horiz-adv-x="500" 
d="M179 800h-96l159 -183h75z" />
    <glyph glyph-name="a" unicode="a" horiz-adv-x="613" 
d="M343 275h89v-20q0 -89 -45 -141q-45 -53 -120 -53q-54 0 -85.5 28t-31.5 76q0 59 42 85q41 25 151 25zM522 312q0 248 -236 248q-86 0 -186 -38v-83q82 45 177 45q74 0 114.5 -34t40.5 -96v-9h-126q-246 0 -246 -186q0 -79 49 -126q50 -47 134 -47q129 0 189 97v-83h90
v312z" />
    <glyph glyph-name="b" unicode="b" horiz-adv-x="635" 
d="M487 273q0 -98 -41 -156q-41 -56 -112 -56t-112 56q-41 58 -41 156q0 99 41 155q40 57 112 57t112 -57q41 -56 41 -155zM181 464v296h-90v-760h90v82q56 -96 175 -96q99 0 162 79q62 80 62 208t-62 208q-63 79 -162 79q-119 0 -175 -96z" />
    <glyph glyph-name="c" unicode="c" horiz-adv-x="550" 
d="M488 526q-74 34 -158 34q-128 0 -202 -77q-73 -78 -73 -210q0 -131 73 -210q72 -77 196 -77q86 0 164 35v83q-76 -42 -154 -42q-87 0 -136 55q-48 55 -48 156t48 155q48 56 136 56q78 0 154 -42v84z" />
    <glyph glyph-name="d" unicode="d" horiz-adv-x="635" 
d="M454 464q-55 96 -175 96q-99 0 -162 -79q-62 -80 -62 -208t62 -208q63 -79 162 -79q120 0 175 96v-82h90v760h-90v-296zM148 273q0 98 40 155q42 57 113 57t112 -57q41 -56 41 -155q0 -98 -41 -156q-41 -56 -112 -56t-113 56q-40 58 -40 156z" />
    <glyph glyph-name="e" unicode="e" horiz-adv-x="615" 
d="M562 296q0 122 -64 193q-65 71 -175 71q-123 0 -196 -79q-72 -78 -72 -213q0 -128 76 -206q77 -76 208 -76q106 0 202 42v85q-96 -51 -197 -51q-89 0 -139 48.5t-56 141.5h413v44zM472 322h-320q6 76 52 119q44 43 120 43q66 0 107 -44t41 -118z" />
    <glyph glyph-name="f" unicode="f" horiz-adv-x="352" 
d="M371 760h-85q-92 0 -134.5 -42t-42.5 -133v-38h-86v-70h86v-477h90v477h148v70h-148v48q0 49 19 71q18 19 67 19h86v75z" />
    <glyph glyph-name="g" unicode="g" horiz-adv-x="635" 
d="M454 280q0 -96 -40 -151q-40 -54 -113 -54q-72 0 -112.5 54t-40.5 151q0 99 40 151q40 54 113 54t113 -54t40 -151zM544 68v479h-90v-83q-56 96 -175 96q-101 0 -162 -77q-62 -77 -62 -203t62 -203q61 -77 162 -77q119 0 175 96v-44q0 -186 -176 -186q-80 0 -157 42v-87
q77 -29 171 -29q127 0 189.5 68t62.5 208z" />
    <glyph glyph-name="h" unicode="h" horiz-adv-x="634" 
d="M549 330q0 113 -48.5 171.5t-142.5 58.5q-113 0 -177 -98v298h-90v-760h90v309q0 81 42 127q43 46 115 46q121 0 121 -155v-327h90v330z" />
    <glyph glyph-name="i" unicode="i" horiz-adv-x="278" 
d="M94 547v-547h90v547h-90zM94 760v-114h90v114h-90z" />
    <glyph glyph-name="j" unicode="j" horiz-adv-x="278" 
d="M94 547v-557q0 -74 -18 -98q-19 -24 -70 -24h-24v-76h34q89 0 128 47q40 46 40 151v557h-90zM94 760v-114h90v114h-90z" />
    <glyph glyph-name="k" unicode="k" horiz-adv-x="579" 
d="M91 760v-760h90v267l278 -267h117l-302 291l290 256h-115l-268 -236v449h-90z" />
    <glyph glyph-name="l" unicode="l" horiz-adv-x="278" 
d="M94 760v-760h90v760h-90z" />
    <glyph glyph-name="m" unicode="m" horiz-adv-x="974" 
d="M520 442q-41 118 -163 118q-116 0 -176 -98v85h-90v-547h90v309q0 79 41 126t109 47q58 0 86 -37.5t28 -117.5v-327h90v309q0 80 41 127q41 46 110 46q113 0 113 -155v-327h90v330q0 110 -46.5 170t-131.5 60q-125 0 -191 -118z" />
    <glyph glyph-name="n" unicode="n" horiz-adv-x="634" 
d="M549 330q0 113 -48.5 171.5t-142.5 58.5q-113 0 -177 -98v85h-90v-547h90v309q0 81 42 127q43 46 115 46q121 0 121 -155v-327h90v330z" />
    <glyph glyph-name="o" unicode="o" horiz-adv-x="612" 
d="M306 484q72 0 114 -57t42 -154q0 -99 -42 -154q-42 -57 -114 -57q-73 0 -115 56q-41 58 -41 155q0 99 42 154q42 57 114 57zM306 560q-118 0 -184 -76q-67 -76 -67 -211t67 -211q66 -76 184 -76t184 76q67 76 67 211t-67 211q-66 76 -184 76z" />
    <glyph glyph-name="p" unicode="p" horiz-adv-x="635" 
d="M181 82q56 -96 175 -96q99 0 162 79q62 80 62 208t-62 208q-63 79 -162 79q-119 0 -175 -96v83h-90v-755h90v290zM487 273q0 -98 -41 -156q-41 -56 -112 -56t-112 56q-41 58 -41 156q0 99 41 155q40 57 112 57t112 -57q41 -56 41 -155z" />
    <glyph glyph-name="q" unicode="q" horiz-adv-x="635" 
d="M148 273q0 98 40 155q42 57 113 57t112 -57q41 -56 41 -155q0 -98 -41 -156q-41 -56 -112 -56t-113 56q-40 58 -40 156zM454 82v-290h90v755h-90v-83q-55 96 -175 96q-99 0 -162 -79q-62 -80 -62 -208t62 -208q63 -79 162 -79q120 0 175 96z" />
    <glyph glyph-name="r" unicode="r" horiz-adv-x="411" 
d="M411 463v92q-22 5 -46 5q-128 0 -184 -98v85h-90v-547h90v288q0 93 40.5 142.5t117.5 49.5q44 0 72 -17z" />
    <glyph glyph-name="s" unicode="s" horiz-adv-x="521" 
d="M443 531q-75 29 -175 29q-101 0 -155.5 -42t-54.5 -119q0 -64 37 -100t121 -54l31 -7q83 -18 108 -38q25 -19 25 -56q0 -40 -34 -61.5t-98 -21.5q-94 0 -194 52v-93q105 -34 192 -34q107 0 166 44q60 45 60 121q0 66 -40 104q-40 37 -136 58l-31 7q-73 17 -96 34
q-24 16 -24 49q0 82 134 82q87 0 164 -39v85z" />
    <glyph glyph-name="t" unicode="t" horiz-adv-x="392" 
d="M183 702h-90v-155h-66v-70h66v-297q0 -104 39 -141q40 -39 144 -39h92v75h-92q-56 0 -75 19q-18 20 -18 86v297h185v70h-185v155z" />
    <glyph glyph-name="u" unicode="u" horiz-adv-x="634" 
d="M85 216q0 -113 48.5 -171.5t143.5 -58.5q112 0 176 98v-84h90v547h-90v-310q0 -80 -42 -127q-43 -46 -115 -46q-121 0 -121 155v328h-90v-331z" />
    <glyph glyph-name="v" unicode="v" horiz-adv-x="592" 
d="M30 547l205 -547h122l205 547h-95l-171 -459l-171 459h-95z" />
    <glyph glyph-name="w" unicode="w" horiz-adv-x="818" 
d="M42 547l143 -547h106l118 448l118 -448h106l143 547h-90l-112 -427l-112 427h-106l-112 -427l-112 427h-90z" />
    <glyph glyph-name="x" unicode="x" horiz-adv-x="592" 
d="M549 547h-106l-145 -195l-145 195h-106l194 -261l-212 -286h106l159 215l159 -215h106l-208 281z" />
    <glyph glyph-name="y" unicode="y" horiz-adv-x="592" 
d="M322 -51l240 598h-95l-171 -428l-171 428h-95l221 -538l-16 -41q-26 -67 -46 -83q-19 -18 -57 -18h-53v-75h72q61 0 97 30q36 31 74 127z" />
    <glyph glyph-name="z" unicode="z" horiz-adv-x="525" 
d="M55 547v-72h326l-338 -393v-82h439v72h-338l338 393v82h-427z" />
    <glyph glyph-name="braceleft" unicode="{" horiz-adv-x="636" 
d="M511 -93h-33q-68 0 -90 22q-21 21 -21 90v121q0 77 -22 111q-21 34 -76 48q53 12 76 47q22 34 22 111v121q0 69 21 90q21 22 90 22h33v70h-30q-121 0 -163 -36q-41 -36 -41 -144v-117q0 -73 -27 -101q-25 -28 -95 -28h-30v-70h30q70 0 95 -28q27 -28 27 -102v-117
q0 -108 41 -144q42 -36 163 -36h30v70z" />
    <glyph glyph-name="bar" unicode="|" horiz-adv-x="337" 
d="M210 764h-83v-1000h83v1000z" />
    <glyph glyph-name="braceright" unicode="}" horiz-adv-x="636" 
d="M125 -93v-70h31q122 0 162 36q41 36 41 144v117q0 73 26 102q27 28 96 28h30v70h-30q-69 0 -96 28q-26 29 -26 101v117q0 108 -41 144q-40 36 -162 36h-31v-70h34q68 0 89 -22q21 -21 21 -90v-121q0 -77 22 -111q23 -35 76 -47q-53 -13 -76 -48q-22 -34 -22 -111v-121
q0 -70 -21 -91t-89 -21h-34z" />
    <glyph glyph-name="asciitilde" unicode="~" horiz-adv-x="838" 
d="M732 399q-95 -78 -175 -78q-46 0 -121 30q-3 1 -6.5 2t-4.5 2q-2 0 -8 3q-72 29 -125 29q-90 0 -186 -72v-87q92 78 175 78q46 0 121 -30q3 -1 6.5 -2.5t4.5 -1.5t3.5 -1t4.5 -2q72 -29 125 -29q90 0 186 72v87z" />
    <glyph glyph-name="nbspace" unicode="&#xa0;" horiz-adv-x="636" 
 />
    <glyph glyph-name="exclamdown" unicode="&#xa1;" horiz-adv-x="401" 
d="M250 605v124h-99v-124h99zM240 0v320v174h-89v-174v-320h89z" />
    <glyph glyph-name="cent" unicode="&#xa2;" horiz-adv-x="636" 
d="M331 64q-70 7 -112 63q-40 55 -40 146q0 90 40 145t112 64v-418zM517 526q-66 30 -136 33v140h-50v-140q-116 -10 -183 -85q-64 -74 -64 -201q0 -125 64 -201q66 -75 183 -84v-141h50v139q75 6 136 35v83q-71 -38 -136 -42v422q67 -3 136 -42v84z" />
    <glyph glyph-name="sterling" unicode="&#xa3;" horiz-adv-x="636" 
d="M538 713q-78 29 -142 29q-113 0 -165.5 -59t-52.5 -187v-116h-97v-70h97v-227h-115v-83h485v83h-272v227h191v70h-191v105q0 104 28 141q29 38 101 38q60 0 133 -40v89z" />
    <glyph glyph-name="currency" unicode="&#xa4;" horiz-adv-x="636" 
d="M435 485q-56 36 -116 36q-62 0 -115 -37l-101 101l-56 -56l101 -101q-37 -53 -37 -115q0 -56 36 -116l-101 -101l55 -56l101 101q60 -36 117 -36q59 0 115 38l101 -101l56 55l-102 101q38 54 38 115q0 60 -36 117l101 101l-56 56zM450 314q0 -54 -38 -94q-38 -38 -93 -38
q-54 0 -94 38q-38 40 -38 94t39 92q38 38 93 38t93 -38t38 -92z" />
    <glyph glyph-name="yen" unicode="&#xa5;" horiz-adv-x="636" 
d="M569 222v60h-203v25l41 76h162v60h-129l155 286h-93l-184 -342l-185 342h-93l155 -286h-129v-60h162l41 -76v-25h-203v-60h203v-222h98v222h202z" />
    <glyph glyph-name="brokenbar" unicode="&#xa6;" horiz-adv-x="337" 
d="M210 199h-83v-370h83v370zM210 699h-83v-370h83v370z" />
    <glyph glyph-name="section" unicode="&#xa7;" horiz-adv-x="500" 
d="M185 457q120 -64 155 -98q35 -33 35 -70q0 -46 -61 -89q-118 63 -156 98q-34 33 -34 70q0 44 61 89zM405 714q-75 28 -149 28q-81 0 -130 -39t-49 -102q0 -67 58 -110q-90 -49 -90 -138q0 -50 31 -87q32 -38 136 -96l12 -7q108 -60 108 -110q0 -37 -28 -57.5t-77 -20.5
q-56 0 -143 38v-80q84 -28 154 -28q86 0 134 41q50 41 50 110q0 61 -58 110q90 52 90 138q0 49 -32 87q-32 37 -135 96q-7 3 -19 11q-101 57 -101 100q0 35 26.5 54.5t73.5 19.5q56 0 138 -38v80z" />
    <glyph glyph-name="dieresis" unicode="&#xa8;" horiz-adv-x="500" 
d="M296 758v-99h99v99h-99zM105 758v-99h99v99h-99z" />
    <glyph glyph-name="copyright" unicode="&#xa9;" horiz-adv-x="1000" 
d="M500 725q-149 0 -256 -107q-106 -106 -106 -256q0 -149 106 -255q107 -107 256 -107t256 107q106 106 106 255q0 150 -106 256q-107 107 -256 107zM500 675q129 0 221 -92q91 -93 91 -221q0 -129 -91 -220q-92 -92 -221 -92q-128 0 -220 92q-93 93 -93 220q0 128 93 221
q92 92 220 92zM646 555q-63 27 -134 27q-105 0 -167 -59q-61 -61 -61 -161q0 -102 61 -161q61 -60 167 -60q71 0 134 28v62q-63 -32 -123 -32q-76 0 -117.5 42.5t-41.5 120.5t40 119q42 43 114 43q65 0 128 -32v63z" />
    <glyph glyph-name="ordfeminine" unicode="&#xaa;" horiz-adv-x="471" 
d="M68 289v-60h336v60h-336zM403 569q0 173 -177 173q-70 0 -140 -27v-62q66 33 130 33q114 0 114 -89v-2h-89q-185 0 -185 -133q0 -55 37 -88q38 -33 100 -33q92 0 137 64v-55h73v219zM268 539h62v-14q0 -54 -32 -91q-32 -35 -82 -35q-40 0 -64 19t-24 50q0 39 31 54
q28 17 109 17z" />
    <glyph glyph-name="guillemotleft" unicode="&#xab;" horiz-adv-x="612" 
d="M518 517l-229 -204v-40l229 -204v93l-147 131l147 131v93zM306 517l-229 -204v-40l229 -204v93l-147 131l147 131v93z" />
    <glyph glyph-name="logicalnot" unicode="&#xac;" horiz-adv-x="838" 
d="M106 421v-83h544v-198h82v281h-626z" />
    <glyph glyph-name="sfthyphen" unicode="&#xad;" horiz-adv-x="361" 
d="M49 314v-80h263v80h-263z" />
    <glyph glyph-name="registered" unicode="&#xae;" horiz-adv-x="1000" 
d="M500 675q129 0 221 -92q91 -93 91 -221q0 -129 -91 -220q-92 -92 -221 -92q-128 0 -220 92q-93 93 -93 220q0 128 93 221q92 92 220 92zM500 725q-149 0 -256 -107q-106 -106 -106 -256q0 -149 106 -255q107 -107 256 -107t256 107q106 106 106 255q0 150 -106 256
q-107 107 -256 107zM487 523q53 0 74.5 -15.5t21.5 -52.5q0 -35 -21 -52q-22 -15 -75 -15h-60v135h60zM490 573h-139v-408h76v174h32q25 0 44 -13q18 -12 47 -59l63 -102h84l-67 109q-45 70 -67 77q47 8 72.5 35.5t25.5 69.5q0 117 -171 117z" />
    <glyph glyph-name="overscore" unicode="&#xaf;" horiz-adv-x="500" 
d="M104 745v-72h292v72h-292z" />
    <glyph glyph-name="degree" unicode="&#xb0;" horiz-adv-x="500" 
d="M250 679q38 0 65 -27q28 -28 28 -66t-27 -65t-66 -27t-66 27t-27 65q0 39 27 66t66 27zM250 742q-65 0 -110 -45t-45 -111t44 -110t110 -44q67 0 110 45q46 43 46 109t-45 110q-43 46 -110 46z" />
    <glyph glyph-name="plusminus" unicode="&#xb1;" horiz-adv-x="838" 
d="M460 627h-82v-189h-272v-83h272v-189h82v189h272v83h-272v189zM106 83v-83h626v83h-626z" />
    <glyph glyph-name="twosuperior" unicode="&#xb2;" horiz-adv-x="401" 
d="M131 382q15 14 42 36q162 140 162 207q0 52 -43 85q-43 32 -113 32q-55 0 -130 -27v-60q69 34 120 34q41 0 66.5 -20t25.5 -52q0 -47 -168 -195q-10 -9 -25.5 -23t-21.5 -19v-54h292v56h-207z" />
    <glyph glyph-name="threesuperior" unicode="&#xb3;" horiz-adv-x="401" 
d="M256 547q40 9 62 32t22 57q0 48 -42 77q-41 29 -111 29q-52 0 -125 -17v-56q71 20 109 20q95 0 95 -58q0 -60 -93 -60h-46v-53h42q107 0 107 -73q0 -35 -29.5 -54t-82.5 -19q-67 0 -116 26v-59q69 -20 123 -20q86 0 132.5 32.5t46.5 93.5q0 40 -24.5 66.5t-69.5 35.5z
" />
    <glyph glyph-name="acute" unicode="&#xb4;" horiz-adv-x="500" 
d="M318 800l-137 -184h75l159 184h-97z" />
    <glyph glyph-name="mu" unicode="&#xb5;" horiz-adv-x="636" 
d="M85 -208h90v270q40 -76 140 -76q93 0 143 77q15 -77 81 -77q33 0 73 22v72q-25 -11 -34 -11q-35 0 -35 57v421h-90v-319q0 -164 -145 -164q-133 0 -133 143v340h-90v-755z" />
    <glyph glyph-name="paragraph" unicode="&#xb6;" horiz-adv-x="636" 
d="M309 729q-105 0 -168 -57q-64 -55 -64 -149q0 -90 57 -144q59 -55 163 -62v-413h69v765h93v-765h69v825h-219z" />
    <glyph glyph-name="middot" unicode="&#xb7;" horiz-adv-x="318" 
d="M107 409v-124h103v124h-103z" />
    <glyph glyph-name="middot" unicode="&#x2219;" horiz-adv-x="318" 
d="M107 409v-124h103v124h-103z" />
    <glyph glyph-name="cedilla" unicode="&#xb8;" horiz-adv-x="500" 
d="M291 0h-58q43 -59 43 -87q0 -46 -58 -46q-44 0 -76 16v-64q42 -12 86 -12q116 0 116 88q0 45 -53 105z" />
    <glyph glyph-name="onesuperior" unicode="&#xb9;" horiz-adv-x="401" 
d="M76 380v-54h270v54h-100v354h-67l-112 -19v-57l109 20v-298h-100z" />
    <glyph glyph-name="ordmasculine" unicode="&#xba;" horiz-adv-x="471" 
d="M68 289v-60h336v60h-336zM236 742q-88 0 -138 -54q-51 -54 -51 -147t51 -146q49 -54 138 -54q88 0 138 53q50 55 50 147t-50 147q-51 54 -138 54zM236 686q52 0 82 -39t30 -106q0 -66 -31 -104q-30 -39 -81 -39q-50 0 -82 39q-31 38 -31 104q0 68 31 105q30 40 82 40z
" />
    <glyph glyph-name="guillemotright" unicode="&#xbb;" horiz-adv-x="612" 
d="M94 517v-93l147 -131l-147 -131v-93l229 204v40zM306 517v-93l147 -131l-147 -131v-93l229 204v40z" />
    <glyph glyph-name="onequarter" unicode="&#xbc;" horiz-adv-x="969" 
d="M76 380v-54h270v54h-100v354h-67l-112 -19v-57l109 20v-298h-100zM673 742l-455 -756h78l455 756h-78zM801 349v-205h-151zM790 408l-191 -258v-59h202v-91h70v91h66v53h-66v264h-81z" />
    <glyph glyph-name="onehalf" unicode="&#xbd;" horiz-adv-x="969" 
d="M76 380v-54h270v54h-100v354h-67l-112 -19v-57l109 20v-298h-100zM673 742l-455 -756h78l455 756h-78zM699 56q15 14 42 36q162 140 162 207q0 52 -43 85q-43 32 -113 32q-55 0 -130 -27v-60q69 34 120 34q41 0 66.5 -20t25.5 -52q0 -47 -168 -195q-10 -9 -26 -23
t-21 -19v-54h292v56h-207z" />
    <glyph glyph-name="threequarters" unicode="&#xbe;" horiz-adv-x="969" 
d="M256 547q40 9 62 32t22 57q0 48 -42 77q-41 29 -111 29q-52 0 -125 -17v-56q71 20 109 20q95 0 95 -58q0 -60 -93 -60h-46v-53h42q107 0 107 -73q0 -35 -29.5 -54t-82.5 -19q-67 0 -116 26v-59q69 -20 123 -20q86 0 132.5 32.5t46.5 93.5q0 40 -24.5 66.5t-69.5 35.5z
M673 742l-455 -756h78l455 756h-78zM801 349v-205h-151zM790 408l-191 -258v-59h202v-91h70v91h66v53h-66v264h-81z" />
    <glyph glyph-name="questiondown" unicode="&#xbf;" horiz-adv-x="531" 
d="M244 533v-60q0 -45 -6 -66q-5 -13 -13 -25q-25 -28 -33 -36l-43 -42q-41 -40 -62 -75q-17 -34 -17 -71q0 -77 55 -125q53 -47 144 -47q99 0 190 55v92q-96 -67 -173 -67q-54 0 -85 27q-32 27 -32 70q0 46 53 96l44 43q43 42 57 74q14 29 14 81v76h-93zM340 605v124h-99
v-124h99z" />
    <glyph glyph-name="Agrave" unicode="&#xc0;" horiz-adv-x="684" 
d="M342 632l134 -363h-268zM286 729l-278 -729h104l66 187h329l66 -187h103l-278 729h-112zM314 927h-91l112 -129h75z" />
    <glyph glyph-name="Aacute" unicode="&#xc1;" horiz-adv-x="684" 
d="M342 632l134 -363h-268zM286 729l-278 -729h104l66 187h329l66 -187h103l-278 729h-112zM369 927l-96 -129h75l111 129h-90z" />
    <glyph glyph-name="Acircumflex" unicode="&#xc2;" horiz-adv-x="684" 
d="M342 632l134 -363h-268zM286 729l-278 -729h104l66 187h329l66 -187h103l-278 729h-112zM296 928l-103 -130h68l81 87l81 -87h68l-103 130h-92z" />
    <glyph glyph-name="Atilde" unicode="&#xc3;" horiz-adv-x="684" 
d="M342 632l134 -363h-268zM286 729l-278 -729h104l66 187h329l66 -187h103l-278 729h-112zM340 835q27 -14 40 -17q12 -4 31 -4q41 0 66 29t26 78h-61v-3q0 -20 -9.5 -32.5t-25.5 -12.5q-13 0 -35 12l-28 15q-38 21 -71 21q-42 0 -67 -29t-25 -78h61v3q0 46 37 46
q12 0 33 -12z" />
    <glyph glyph-name="Adieresis" unicode="&#xc4;" horiz-adv-x="684" 
d="M342 632l134 -363h-268zM286 729l-278 -729h104l66 187h329l66 -187h103l-278 729h-112zM388 913v-99h99v99h-99zM197 913v-99h99v99h-99z" />
    <glyph glyph-name="Aring" unicode="&#xc5;" horiz-adv-x="684" 
d="M416 794q0 -31 -22 -52q-22 -22 -52 -22t-52 22q-22 21 -22 52q0 32 21 53t53 21q31 0 52 -22q22 -21 22 -52zM342 632l133 -363h-266zM268 682l-260 -682h104l66 187h329l66 -187h103l-260 682q60 42 60 112q0 56 -39 95t-95 39q-58 0 -95 -39q-39 -39 -39 -95
q0 -70 60 -112z" />
    <glyph glyph-name="AE" unicode="&#xc6;" horiz-adv-x="974" 
d="M901 729h-592l-305 -729h100l78 187h258v-187h470v83h-371v264h347v83h-347v216h362v83zM377 652h63v-383h-224z" />
    <glyph glyph-name="Ccedilla" unicode="&#xc7;" horiz-adv-x="698" 
d="M644 673q-102 69 -232 69q-165 0 -261 -101q-95 -103 -95 -277t95 -277q96 -101 261 -101q129 0 232 70v103q-98 -92 -226 -92q-125 0 -191.5 76.5t-66.5 220.5q0 145 66.5 221t191.5 76q128 0 226 -92v104zM438 0h-58q43 -59 43 -87q0 -46 -58 -46q-44 0 -76 16v-64
q42 -12 86 -12q116 0 116 88q0 45 -53 105z" />
    <glyph glyph-name="Egrave" unicode="&#xc8;" horiz-adv-x="632" 
d="M98 729v-729h470v83h-371v264h347v83h-347v216h362v83h-461zM299 927h-91l112 -129h75z" />
    <glyph glyph-name="Eacute" unicode="&#xc9;" horiz-adv-x="632" 
d="M98 729v-729h470v83h-371v264h347v83h-347v216h362v83h-461zM354 927l-96 -129h75l111 129h-90z" />
    <glyph glyph-name="Ecircumflex" unicode="&#xca;" horiz-adv-x="632" 
d="M98 729v-729h470v83h-371v264h347v83h-347v216h362v83h-461zM281 928l-103 -130h68l81 87l81 -87h68l-103 130h-92z" />
    <glyph glyph-name="Edieresis" unicode="&#xcb;" horiz-adv-x="632" 
d="M98 729v-729h470v83h-371v264h347v83h-347v216h362v83h-461zM373 913v-99h99v99h-99zM182 913v-99h99v99h-99z" />
    <glyph glyph-name="Igrave" unicode="&#xcc;" horiz-adv-x="295" 
d="M98 729v-729h99v729h-99zM120 927h-91l112 -129h75z" />
    <glyph glyph-name="Iacute" unicode="&#xcd;" horiz-adv-x="295" 
d="M98 729v-729h99v729h-99zM175 927l-96 -129h75l111 129h-90z" />
    <glyph glyph-name="Icircumflex" unicode="&#xce;" horiz-adv-x="295" 
d="M98 729v-729h99v729h-99zM102 928l-103 -130h68l81 87l81 -87h68l-103 130h-92z" />
    <glyph glyph-name="Idieresis" unicode="&#xcf;" horiz-adv-x="295" 
d="M98 729v-729h99v729h-99zM194 913v-99h99v99h-99zM3 913v-99h99v99h-99z" />
    <glyph glyph-name="Eth" unicode="&#xd0;" horiz-adv-x="775" 
d="M103 729v-317h-98v-70h98v-342h203q212 0 310 88q100 88 100 277q0 187 -99 276q-98 88 -311 88h-203zM202 648h119q150 0 221 -68q70 -70 70 -215q0 -146 -70 -216q-71 -68 -221 -68h-119v261h164v70h-164v236z" />
    <glyph glyph-name="Ntilde" unicode="&#xd1;" horiz-adv-x="748" 
d="M98 729v-729h96v610l323 -610h133v729h-96v-610l-323 610h-133zM372 835q27 -14 40 -17q12 -4 31 -4q41 0 66 29t26 78h-61v-3q0 -20 -9.5 -32.5t-25.5 -12.5q-13 0 -35 12l-28 15q-38 21 -71 21q-42 0 -67 -29t-25 -78h61v3q0 46 37 46q12 0 33 -12z" />
    <glyph glyph-name="Ograve" unicode="&#xd2;" horiz-adv-x="787" 
d="M394 662q107 0 170 -80t63 -218t-63 -218t-170 -80q-106 0 -171 80q-63 80 -63 218t63 218q65 80 171 80zM394 742q-155 0 -246 -103q-92 -103 -92 -275t92 -276q92 -102 246 -102t245 102q92 104 92 276t-92 275q-91 103 -245 103zM366 927h-91l112 -129h75z" />
    <glyph glyph-name="Oacute" unicode="&#xd3;" horiz-adv-x="787" 
d="M394 662q107 0 170 -80t63 -218t-63 -218t-170 -80q-106 0 -171 80q-63 80 -63 218t63 218q65 80 171 80zM394 742q-155 0 -246 -103q-92 -103 -92 -275t92 -276q92 -102 246 -102t245 102q92 104 92 276t-92 275q-91 103 -245 103zM421 927l-96 -129h75l111 129h-90z
" />
    <glyph glyph-name="Ocircumflex" unicode="&#xd4;" horiz-adv-x="787" 
d="M394 662q107 0 170 -80t63 -218t-63 -218t-170 -80q-106 0 -171 80q-63 80 -63 218t63 218q65 80 171 80zM394 742q-155 0 -246 -103q-92 -103 -92 -275t92 -276q92 -102 246 -102t245 102q92 104 92 276t-92 275q-91 103 -245 103zM348 928l-103 -130h68l81 87l81 -87
h68l-103 130h-92z" />
    <glyph glyph-name="Otilde" unicode="&#xd5;" horiz-adv-x="787" 
d="M394 662q107 0 170 -80t63 -218t-63 -218t-170 -80q-106 0 -171 80q-63 80 -63 218t63 218q65 80 171 80zM394 742q-155 0 -246 -103q-92 -103 -92 -275t92 -276q92 -102 246 -102t245 102q92 104 92 276t-92 275q-91 103 -245 103zM392 835q27 -14 40 -17q12 -4 31 -4
q41 0 66 29t26 78h-61v-3q0 -20 -9.5 -32.5t-25.5 -12.5q-13 0 -35 12l-28 15q-38 21 -71 21q-42 0 -67 -29t-25 -78h61v3q0 46 37 46q12 0 33 -12z" />
    <glyph glyph-name="Odieresis" unicode="&#xd6;" horiz-adv-x="787" 
d="M394 662q107 0 170 -80t63 -218t-63 -218t-170 -80q-106 0 -171 80q-63 80 -63 218t63 218q65 80 171 80zM394 742q-155 0 -246 -103q-92 -103 -92 -275t92 -276q92 -102 246 -102t245 102q92 104 92 276t-92 275q-91 103 -245 103zM440 913v-99h99v99h-99zM249 913v-99
h99v99h-99z" />
    <glyph glyph-name="multiply" unicode="&#xd7;" horiz-adv-x="838" 
d="M701 537l-58 59l-224 -224l-224 224l-58 -59l223 -224l-223 -223l58 -59l224 224l224 -224l58 59l-223 223z" />
    <glyph glyph-name="Oslash" unicode="&#xd8;" horiz-adv-x="787" 
d="M589 543q38 -70 38 -179q0 -138 -63 -218t-170 -80q-94 0 -155 64zM549 598l-351 -414q-38 68 -38 180q0 138 63 218q65 80 171 80q94 0 155 -64zM133 107l-83 -98l50 -43l79 93q88 -73 215 -73q154 0 245 102q92 104 92 276q0 156 -77 257l83 97l-50 43l-79 -93
q-86 74 -214 74q-155 0 -246 -103q-92 -103 -92 -275q0 -157 77 -257z" />
    <glyph glyph-name="Ugrave" unicode="&#xd9;" horiz-adv-x="732" 
d="M87 729v-455q0 -142 70.5 -215t208.5 -73t208.5 73t70.5 215v455h-99v-443q0 -117 -43 -169q-42 -51 -137 -51t-137 51q-43 52 -43 169v443h-99zM338 927h-91l112 -129h75z" />
    <glyph glyph-name="Uacute" unicode="&#xda;" horiz-adv-x="732" 
d="M87 729v-455q0 -142 70.5 -215t208.5 -73t208.5 73t70.5 215v455h-99v-443q0 -117 -43 -169q-42 -51 -137 -51t-137 51q-43 52 -43 169v443h-99zM393 927l-96 -129h75l111 129h-90z" />
    <glyph glyph-name="Ucircumflex" unicode="&#xdb;" horiz-adv-x="732" 
d="M87 729v-455q0 -142 70.5 -215t208.5 -73t208.5 73t70.5 215v455h-99v-443q0 -117 -43 -169q-42 -51 -137 -51t-137 51q-43 52 -43 169v443h-99zM320 928l-103 -130h68l81 87l81 -87h68l-103 130h-92z" />
    <glyph glyph-name="Udieresis" unicode="&#xdc;" horiz-adv-x="732" 
d="M87 729v-455q0 -142 70.5 -215t208.5 -73t208.5 73t70.5 215v455h-99v-443q0 -117 -43 -169q-42 -51 -137 -51t-137 51q-43 52 -43 169v443h-99zM412 913v-99h99v99h-99zM221 913v-99h99v99h-99z" />
    <glyph glyph-name="Yacute" unicode="&#xdd;" horiz-adv-x="611" 
d="M-2 729l258 -382v-347h99v347l258 382h-106l-201 -300l-202 300h-106zM333 927l-96 -129h75l111 129h-90z" />
    <glyph glyph-name="Thorn" unicode="&#xde;" horiz-adv-x="605" 
d="M98 729v-729h99v165h124q122 0 185 55.5t63 162.5t-63 162t-185 55h-124v129h-99zM197 519h124q69 0 106.5 -35.5t37.5 -100.5q0 -66 -37.5 -101.5t-106.5 -35.5h-124v273z" />
    <glyph glyph-name="germandbls" unicode="&#xdf;" horiz-adv-x="630" 
d="M91 555v-555h91v553q0 64 33.5 98t96.5 34q55 0 87 -27.5t36 -77.5q-73 -14 -114 -56t-41 -104q0 -84 89 -139l45 -27q49 -29 64 -51q14 -22 14 -51q0 -91 -115 -91q-64 0 -139 29v-80q70 -24 133 -24q103 0 158 44.5t55 128.5q0 49 -23 84q-23 33 -105 86l-28 18
q-60 40 -60 83q0 47 41 75t115 32q-1 109 -55 166t-155 57q-106 0 -165 -54q-58 -54 -58 -151z" />
    <glyph glyph-name="agrave" unicode="&#xe0;" horiz-adv-x="613" 
d="M343 275h89v-20q0 -89 -45 -141q-45 -53 -120 -53q-54 0 -85.5 28t-31.5 76q0 59 42 85q41 25 151 25zM522 312q0 248 -236 248q-86 0 -186 -38v-83q82 45 177 45q74 0 114.5 -34t40.5 -96v-9h-126q-246 0 -246 -186q0 -79 49 -126q50 -47 134 -47q129 0 189 97v-83h90
v312zM219 800h-96l159 -183h75z" />
    <glyph glyph-name="aacute" unicode="&#xe1;" horiz-adv-x="613" 
d="M343 275h89v-20q0 -89 -45 -141q-45 -53 -120 -53q-54 0 -85.5 28t-31.5 76q0 59 42 85q41 25 151 25zM522 312q0 248 -236 248q-86 0 -186 -38v-83q82 45 177 45q74 0 114.5 -34t40.5 -96v-9h-126q-246 0 -246 -186q0 -79 49 -126q50 -47 134 -47q129 0 189 97v-83h90
v312zM358 800l-137 -184h75l159 184h-97z" />
    <glyph glyph-name="acircumflex" unicode="&#xe2;" horiz-adv-x="613" 
d="M343 275h89v-20q0 -89 -45 -141q-45 -53 -120 -53q-54 0 -85.5 28t-31.5 76q0 59 42 85q41 25 151 25zM522 312q0 248 -236 248q-86 0 -186 -38v-83q82 45 177 45q74 0 114.5 -34t40.5 -96v-9h-126q-246 0 -246 -186q0 -79 49 -126q50 -47 134 -47q129 0 189 97v-83h90
v312zM254 800l-120 -184h68l88 120l88 -120h68l-120 184h-72z" />
    <glyph glyph-name="atilde" unicode="&#xe3;" horiz-adv-x="613" 
d="M343 275h89v-20q0 -89 -45 -141q-45 -53 -120 -53q-54 0 -85.5 28t-31.5 76q0 59 42 85q41 25 151 25zM522 312q0 248 -236 248q-86 0 -186 -38v-83q82 45 177 45q74 0 114.5 -34t40.5 -96v-9h-126q-246 0 -246 -186q0 -79 49 -126q50 -47 134 -47q129 0 189 97v-83h90
v312zM288 669q33 -30 68 -30q44 0 69 36t26 102h-61q-1 -76 -37 -76q-13 0 -33 19l-28 27q-33 30 -68 30q-44 0 -69 -36t-26 -102h61q1 76 37 76q13 0 33 -19z" />
    <glyph glyph-name="adieresis" unicode="&#xe4;" horiz-adv-x="613" 
d="M343 275h89v-20q0 -89 -45 -141q-45 -53 -120 -53q-54 0 -85.5 28t-31.5 76q0 59 42 85q41 25 151 25zM522 312q0 248 -236 248q-86 0 -186 -38v-83q82 45 177 45q74 0 114.5 -34t40.5 -96v-9h-126q-246 0 -246 -186q0 -79 49 -126q50 -47 134 -47q129 0 189 97v-83h90
v312zM336 758v-99h99v99h-99zM145 758v-99h99v99h-99z" />
    <glyph glyph-name="aring" unicode="&#xe5;" horiz-adv-x="613" 
d="M343 275h89v-20q0 -89 -45 -141q-45 -53 -120 -53q-54 0 -85.5 28t-31.5 76q0 59 42 85q41 25 151 25zM522 312q0 248 -236 248q-86 0 -186 -38v-83q82 45 177 45q74 0 114.5 -34t40.5 -96v-9h-126q-246 0 -246 -186q0 -79 49 -126q50 -47 134 -47q129 0 189 97v-83h90
v312zM364 744q0 -30 -21 -53q-21 -21 -53 -21t-53 21t-21 53q0 31 21 52q21 22 53 22t53 -22q21 -21 21 -52zM424 744q0 56 -39 95t-95 39t-95 -39t-39 -95t39 -95t95 -39t95 39t39 95z" />
    <glyph glyph-name="ae" unicode="&#xe6;" horiz-adv-x="982" 
d="M839 322h-320q7 77 52 119.5t120 42.5q66 0 107 -44q39 -42 41 -118zM486 470q-26 43 -78.5 66.5t-121.5 23.5q-86 0 -186 -38v-83q82 45 177 45q74 0 114.5 -34t40.5 -96v-9h-126q-246 0 -246 -186q0 -81 51 -128q53 -45 144 -45q139 0 211 117q75 -117 240 -117
q104 0 202 42v85q-97 -52 -197 -52q-89 0 -139 48.5t-56 142.5h413v44q0 122 -64 193q-65 71 -175 71q-131 0 -204 -90zM343 275h89v-20q0 -89 -45 -141q-45 -53 -120 -53q-54 0 -85.5 28t-31.5 76q0 59 42 85q41 25 151 25z" />
    <glyph glyph-name="ccedilla" unicode="&#xe7;" horiz-adv-x="550" 
d="M488 526q-74 34 -158 34q-128 0 -202 -77q-73 -78 -73 -210q0 -131 73 -210q72 -77 196 -77q86 0 164 35v83q-76 -42 -154 -42q-87 0 -136 55q-48 55 -48 156t48 155q48 56 136 56q78 0 154 -42v84zM361 0h-58q43 -59 43 -87q0 -46 -58 -46q-44 0 -76 16v-64
q42 -12 86 -12q116 0 116 88q0 45 -53 105z" />
    <glyph glyph-name="egrave" unicode="&#xe8;" horiz-adv-x="615" 
d="M562 296q0 122 -64 193q-65 71 -175 71q-123 0 -196 -79q-72 -78 -72 -213q0 -128 76 -206q77 -76 208 -76q106 0 202 42v85q-96 -51 -197 -51q-89 0 -139 48.5t-56 141.5h413v44zM472 322h-320q6 76 52 119q44 43 120 43q66 0 107 -44t41 -118zM247 800h-96l159 -183h75
z" />
    <glyph glyph-name="eacute" unicode="&#xe9;" horiz-adv-x="615" 
d="M562 296q0 122 -64 193q-65 71 -175 71q-123 0 -196 -79q-72 -78 -72 -213q0 -128 76 -206q77 -76 208 -76q106 0 202 42v85q-96 -51 -197 -51q-89 0 -139 48.5t-56 141.5h413v44zM472 322h-320q6 76 52 119q44 43 120 43q66 0 107 -44t41 -118zM386 800l-137 -184h75
l159 184h-97z" />
    <glyph glyph-name="ecircumflex" unicode="&#xea;" horiz-adv-x="615" 
d="M562 296q0 122 -64 193q-65 71 -175 71q-123 0 -196 -79q-72 -78 -72 -213q0 -128 76 -206q77 -76 208 -76q106 0 202 42v85q-96 -51 -197 -51q-89 0 -139 48.5t-56 141.5h413v44zM472 322h-320q6 76 52 119q44 43 120 43q66 0 107 -44t41 -118zM282 800l-120 -184h68
l88 120l88 -120h68l-120 184h-72z" />
    <glyph glyph-name="edieresis" unicode="&#xeb;" horiz-adv-x="615" 
d="M562 296q0 122 -64 193q-65 71 -175 71q-123 0 -196 -79q-72 -78 -72 -213q0 -128 76 -206q77 -76 208 -76q106 0 202 42v85q-96 -51 -197 -51q-89 0 -139 48.5t-56 141.5h413v44zM472 322h-320q6 76 52 119q44 43 120 43q66 0 107 -44t41 -118zM364 758v-99h99v99h-99z
M173 758v-99h99v99h-99z" />
    <glyph glyph-name="igrave" unicode="&#xec;" horiz-adv-x="278" 
d="M94 547v-547h90v547h-90zM68 800h-96l159 -183h75z" />
    <glyph glyph-name="iacute" unicode="&#xed;" horiz-adv-x="278" 
d="M94 547v-547h90v547h-90zM207 800l-137 -184h75l159 184h-97z" />
    <glyph glyph-name="icircumflex" unicode="&#xee;" horiz-adv-x="278" 
d="M94 547v-547h90v547h-90zM103 800l-120 -184h68l88 120l88 -120h68l-120 184h-72z" />
    <glyph glyph-name="idieresis" unicode="&#xef;" horiz-adv-x="278" 
d="M94 547v-547h90v547h-90zM185 758v-99h99v99h-99zM-6 758v-99h99v99h-99z" />
    <glyph glyph-name="eth" unicode="&#xf0;" horiz-adv-x="612" 
d="M409 447q53 -68 53 -185q0 -93 -43 -146q-42 -54 -113 -54q-70 0 -114 54q-42 54 -42 146q0 96 45 148q45 53 127 53q39 0 87 -16zM440 557l-80 91l144 48l-16 47l-163 -54l-62 71h-111l88 -100l-137 -45l16 -48l156 52l78 -88q-35 5 -55 5q-109 0 -175 -76
q-68 -76 -68 -198q0 -125 69 -200q69 -76 182 -76q112 0 182 76q69 75 69 200q0 86 -28 155q-27 70 -89 140z" />
    <glyph glyph-name="ntilde" unicode="&#xf1;" horiz-adv-x="634" 
d="M549 330q0 113 -48.5 171.5t-142.5 58.5q-113 0 -177 -98v85h-90v-547h90v309q0 81 42 127q43 46 115 46q121 0 121 -155v-327h90v330zM322 669q33 -30 68 -30q44 0 69 36t26 102h-61q-1 -76 -37 -76q-13 0 -33 19l-28 27q-33 30 -68 30q-44 0 -69 -36t-26 -102h61
q1 76 37 76q13 0 33 -19z" />
    <glyph glyph-name="ograve" unicode="&#xf2;" horiz-adv-x="612" 
d="M306 484q72 0 114 -57t42 -154q0 -99 -42 -154q-42 -57 -114 -57q-73 0 -115 56q-41 58 -41 155q0 99 42 154q42 57 114 57zM306 560q-118 0 -184 -76q-67 -76 -67 -211t67 -211q66 -76 184 -76t184 76q67 76 67 211t-67 211q-66 76 -184 76zM235 800h-96l159 -183h75z
" />
    <glyph glyph-name="oacute" unicode="&#xf3;" horiz-adv-x="612" 
d="M306 484q72 0 114 -57t42 -154q0 -99 -42 -154q-42 -57 -114 -57q-73 0 -115 56q-41 58 -41 155q0 99 42 154q42 57 114 57zM306 560q-118 0 -184 -76q-67 -76 -67 -211t67 -211q66 -76 184 -76t184 76q67 76 67 211t-67 211q-66 76 -184 76zM374 800l-137 -184h75
l159 184h-97z" />
    <glyph glyph-name="ocircumflex" unicode="&#xf4;" horiz-adv-x="612" 
d="M306 484q72 0 114 -57t42 -154q0 -99 -42 -154q-42 -57 -114 -57q-73 0 -115 56q-41 58 -41 155q0 99 42 154q42 57 114 57zM306 560q-118 0 -184 -76q-67 -76 -67 -211t67 -211q66 -76 184 -76t184 76q67 76 67 211t-67 211q-66 76 -184 76zM270 800l-120 -184h68
l88 120l88 -120h68l-120 184h-72z" />
    <glyph glyph-name="otilde" unicode="&#xf5;" horiz-adv-x="612" 
d="M306 484q72 0 114 -57t42 -154q0 -99 -42 -154q-42 -57 -114 -57q-73 0 -115 56q-41 58 -41 155q0 99 42 154q42 57 114 57zM306 560q-118 0 -184 -76q-67 -76 -67 -211t67 -211q66 -76 184 -76t184 76q67 76 67 211t-67 211q-66 76 -184 76zM304 669q33 -30 68 -30
q44 0 69 36t26 102h-61q-1 -76 -37 -76q-13 0 -33 19l-28 27q-33 30 -68 30q-44 0 -69 -36t-26 -102h61q1 76 37 76q13 0 33 -19z" />
    <glyph glyph-name="odieresis" unicode="&#xf6;" horiz-adv-x="612" 
d="M306 484q72 0 114 -57t42 -154q0 -99 -42 -154q-42 -57 -114 -57q-73 0 -115 56q-41 58 -41 155q0 99 42 154q42 57 114 57zM306 560q-118 0 -184 -76q-67 -76 -67 -211t67 -211q66 -76 184 -76t184 76q67 76 67 211t-67 211q-66 76 -184 76zM352 758v-99h99v99h-99z
M161 758v-99h99v99h-99z" />
    <glyph glyph-name="divide" unicode="&#xf7;" horiz-adv-x="838" 
d="M359 554v-120h120v120h-120zM359 193v-120h120v120h-120zM106 355v-83h626v83h-626z" />
    <glyph glyph-name="oslash" unicode="&#xf8;" horiz-adv-x="612" 
d="M442 391q20 -43 20 -118q0 -99 -42 -154q-42 -57 -114 -57q-62 0 -102 40zM407 444l-238 -289q-19 44 -19 111q0 102 41 160q42 58 115 58q61 0 101 -40zM108 81l-73 -89l47 -38l68 82q62 -50 156 -50q118 0 184 76q67 76 67 211q0 119 -52 193l71 87l-46 39l-68 -82
q-67 50 -156 50q-118 0 -184 -76q-67 -76 -67 -211q0 -116 53 -192z" />
    <glyph glyph-name="ugrave" unicode="&#xf9;" horiz-adv-x="634" 
d="M85 216q0 -113 48.5 -171.5t143.5 -58.5q112 0 176 98v-84h90v547h-90v-310q0 -80 -42 -127q-43 -46 -115 -46q-121 0 -121 155v328h-90v-331zM239 800h-96l159 -183h75z" />
    <glyph glyph-name="uacute" unicode="&#xfa;" horiz-adv-x="634" 
d="M85 216q0 -113 48.5 -171.5t143.5 -58.5q112 0 176 98v-84h90v547h-90v-310q0 -80 -42 -127q-43 -46 -115 -46q-121 0 -121 155v328h-90v-331zM378 800l-137 -184h75l159 184h-97z" />
    <glyph glyph-name="ucircumflex" unicode="&#xfb;" horiz-adv-x="634" 
d="M85 216q0 -113 48.5 -171.5t143.5 -58.5q112 0 176 98v-84h90v547h-90v-310q0 -80 -42 -127q-43 -46 -115 -46q-121 0 -121 155v328h-90v-331zM274 800l-120 -184h68l88 120l88 -120h68l-120 184h-72z" />
    <glyph glyph-name="udieresis" unicode="&#xfc;" horiz-adv-x="634" 
d="M85 216q0 -113 48.5 -171.5t143.5 -58.5q112 0 176 98v-84h90v547h-90v-310q0 -80 -42 -127q-43 -46 -115 -46q-121 0 -121 155v328h-90v-331zM356 758v-99h99v99h-99zM165 758v-99h99v99h-99z" />
    <glyph glyph-name="yacute" unicode="&#xfd;" horiz-adv-x="592" 
d="M322 -51l240 598h-95l-171 -428l-171 428h-95l221 -538l-16 -41q-26 -67 -46 -83q-19 -18 -57 -18h-53v-75h72q61 0 97 30q36 31 74 127zM364 800l-137 -184h75l159 184h-97z" />
    <glyph glyph-name="thorn" unicode="&#xfe;" horiz-adv-x="635" 
d="M181 82q56 -96 175 -96q99 0 162 79q62 80 62 208t-62 208q-63 79 -162 79q-119 0 -175 -96v296h-90v-968h90v290zM487 273q0 -98 -41 -156q-41 -56 -112 -56t-112 56q-41 58 -41 156q0 99 41 155q40 57 112 57t112 -57q41 -56 41 -155z" />
    <glyph glyph-name="ydieresis" unicode="&#xff;" horiz-adv-x="592" 
d="M322 -51l240 598h-95l-171 -428l-171 428h-95l221 -538l-16 -41q-26 -67 -46 -83q-19 -18 -57 -18h-53v-75h72q61 0 97 30q36 31 74 127zM342 758v-99h99v99h-99zM151 758v-99h99v99h-99z" />
    <glyph glyph-name="Amacron" unicode="&#x100;" horiz-adv-x="684" 
d="M196 899v-72h292v72h-292zM342 632l134 -363h-268zM286 729l-278 -729h104l66 187h329l66 -187h103l-278 729h-112z" />
    <glyph glyph-name="amacron" unicode="&#x101;" horiz-adv-x="613" 
d="M140 745v-72h292v72h-292zM343 275h89v-20q0 -89 -45 -141q-45 -53 -120 -53q-54 0 -85.5 28t-31.5 76q0 59 42 85q41 25 151 25zM522 312q0 248 -236 248q-86 0 -186 -38v-83q82 45 177 45q74 0 114.5 -34t40.5 -96v-9h-126q-246 0 -246 -186q0 -79 49 -126
q50 -47 134 -47q129 0 189 97v-83h90v312z" />
    <glyph glyph-name="Abreve" unicode="&#x102;" horiz-adv-x="684" 
d="M198 946q11 -140 153 -140t153 140h-58q-12 -73 -95 -73q-85 0 -95 73h-58zM342 632l134 -363h-268zM286 729l-278 -729h104l66 187h329l66 -187h103l-278 729h-112z" />
    <glyph glyph-name="abreve" unicode="&#x103;" horiz-adv-x="613" 
d="M136 765q11 -140 153 -140t153 140h-58q-12 -73 -95 -73q-85 0 -95 73h-58zM343 275h89v-20q0 -89 -45 -141q-45 -53 -120 -53q-54 0 -85.5 28t-31.5 76q0 59 42 85q41 25 151 25zM522 312q0 248 -236 248q-86 0 -186 -38v-83q82 45 177 45q74 0 114.5 -34t40.5 -96v-9
h-126q-246 0 -246 -186q0 -79 49 -126q50 -47 134 -47q129 0 189 97v-83h90v312z" />
    <glyph glyph-name="Aogonek" unicode="&#x104;" horiz-adv-x="684" 
d="M576 0q-53 -60 -53 -105q0 -46 28 -67t88 -21q24 0 66 10v65q-30 -15 -61 -15q-53 0 -53 45q0 29 43 88h-58zM342 632l134 -363h-268zM286 729l-278 -729h104l66 187h329l66 -187h103l-278 729h-112z" />
    <glyph glyph-name="aogonek" unicode="&#x105;" horiz-adv-x="613" 
d="M433 0q-53 -60 -53 -105q0 -46 28 -67t88 -21q24 0 66 10v65q-30 -15 -61 -15q-53 0 -53 45q0 29 43 88h-58zM343 275h89v-20q0 -89 -45 -141q-45 -53 -120 -53q-54 0 -85.5 28t-31.5 76q0 59 42 85q41 25 151 25zM522 312q0 248 -236 248q-86 0 -186 -38v-83
q82 45 177 45q74 0 114.5 -34t40.5 -96v-9h-126q-246 0 -246 -186q0 -79 49 -126q50 -47 134 -47q129 0 189 97v-83h90v312z" />
    <glyph glyph-name="Cacute" unicode="&#x106;" horiz-adv-x="698" 
d="M644 673q-102 69 -232 69q-165 0 -261 -101q-95 -103 -95 -277t95 -277q96 -101 261 -101q129 0 232 70v103q-98 -92 -226 -92q-125 0 -191.5 76.5t-66.5 220.5q0 145 66.5 221t191.5 76q128 0 226 -92v104zM424 927l-96 -129h75l111 129h-90z" />
    <glyph glyph-name="cacute" unicode="&#x107;" horiz-adv-x="550" 
d="M488 526q-74 34 -158 34q-128 0 -202 -77q-73 -78 -73 -210q0 -131 73 -210q72 -77 196 -77q86 0 164 35v83q-76 -42 -154 -42q-87 0 -136 55q-48 55 -48 156t48 155q48 56 136 56q78 0 154 -42v84zM385 800l-137 -184h75l159 184h-97z" />
    <glyph glyph-name="Ccircumflex" unicode="&#x108;" horiz-adv-x="698" 
d="M366 928l-103 -130h68l81 87l81 -87h68l-103 130h-92zM644 673q-102 69 -232 69q-165 0 -261 -101q-95 -103 -95 -277t95 -277q96 -101 261 -101q129 0 232 70v103q-98 -92 -226 -92q-125 0 -191.5 76.5t-66.5 220.5q0 145 66.5 221t191.5 76q128 0 226 -92v104z" />
    <glyph glyph-name="ccircumflex" unicode="&#x109;" horiz-adv-x="550" 
d="M294 800l-120 -184h68l88 120l88 -120h68l-120 184h-72zM488 526q-74 34 -158 34q-128 0 -202 -77q-73 -78 -73 -210q0 -131 73 -210q72 -77 196 -77q86 0 164 35v83q-76 -42 -154 -42q-87 0 -136 55q-48 55 -48 156t48 155q48 56 136 56q78 0 154 -42v84z" />
    <glyph glyph-name="Cdotaccent" unicode="&#x10a;" horiz-adv-x="698" 
d="M362 914v-100h100v100h-100zM644 673q-102 69 -232 69q-165 0 -261 -101q-95 -103 -95 -277t95 -277q96 -101 261 -101q129 0 232 70v103q-98 -92 -226 -92q-125 0 -191.5 76.5t-66.5 220.5q0 145 66.5 221t191.5 76q128 0 226 -92v104z" />
    <glyph glyph-name="cdotaccent" unicode="&#x10b;" horiz-adv-x="550" 
d="M280 758v-100h100v100h-100zM488 526q-74 34 -158 34q-128 0 -202 -77q-73 -78 -73 -210q0 -131 73 -210q72 -77 196 -77q86 0 164 35v83q-76 -42 -154 -42q-87 0 -136 55q-48 55 -48 156t48 155q48 56 136 56q78 0 154 -42v84z" />
    <glyph glyph-name="Ccaron" unicode="&#x10c;" horiz-adv-x="698" 
d="M644 673q-102 69 -232 69q-165 0 -261 -101q-95 -103 -95 -277t95 -277q96 -101 261 -101q129 0 232 70v103q-98 -92 -226 -92q-125 0 -191.5 76.5t-66.5 220.5q0 145 66.5 221t191.5 76q128 0 226 -92v104zM351 798h92l103 130h-68l-81 -87l-81 87h-68z" />
    <glyph glyph-name="ccaron" unicode="&#x10d;" horiz-adv-x="550" 
d="M488 526q-74 34 -158 34q-128 0 -202 -77q-73 -78 -73 -210q0 -131 73 -210q72 -77 196 -77q86 0 164 35v83q-76 -42 -154 -42q-87 0 -136 55q-48 55 -48 156t48 155q48 56 136 56q78 0 154 -42v84zM281 616h72l120 184h-68l-88 -120l-88 120h-68z" />
    <glyph glyph-name="Dcaron" unicode="&#x10e;" horiz-adv-x="770" 
d="M197 648h119q150 0 221 -68q70 -70 70 -215q0 -146 -70 -216q-71 -68 -221 -68h-119v567zM98 729v-729h203q212 0 310 88q100 88 100 277q0 187 -99 276q-98 88 -311 88h-203zM319 808h92l103 130h-68l-81 -87l-81 87h-68z" />
    <glyph glyph-name="dcaron" unicode="&#x10f;" horiz-adv-x="635" 
d="M454 464q-55 96 -175 96q-99 0 -162 -79q-62 -80 -62 -208t62 -208q63 -79 162 -79q120 0 175 96v-82h90v760h-90v-296zM148 273q0 98 40 155q42 57 113 57t112 -57q41 -56 41 -155q0 -98 -41 -156q-41 -56 -112 -56t-113 56q-40 58 -40 156zM635 759l-35 -184h75l57 184
h-97z" />
    <glyph glyph-name="Dcroat" unicode="&#x110;" horiz-adv-x="775" 
d="M103 729v-317h-98v-70h98v-342h203q212 0 310 88q100 88 100 277q0 187 -99 276q-98 88 -311 88h-203zM202 648h119q150 0 221 -68q70 -70 70 -215q0 -146 -70 -216q-71 -68 -221 -68h-119v261h164v70h-164v236z" />
    <glyph glyph-name="dslash" unicode="&#x111;" horiz-adv-x="635" 
d="M454 464q-55 96 -175 96q-99 0 -162 -79q-62 -80 -62 -208t62 -208q63 -79 162 -79q120 0 175 96v-82h90v627h75v61h-75v72h-90v-72h-159v-61h159v-163zM148 273q0 98 40 155q42 57 113 57t112 -57q41 -56 41 -155q0 -98 -41 -156q-41 -56 -112 -56t-113 56
q-40 58 -40 156z" />
    <glyph glyph-name="Emacron" unicode="&#x112;" horiz-adv-x="632" 
d="M183 900v-72h292v72h-292zM98 729v-729h470v83h-371v264h347v83h-347v216h362v83h-461z" />
    <glyph glyph-name="emacron" unicode="&#x113;" horiz-adv-x="615" 
d="M177 745v-72h292v72h-292zM562 296q0 122 -64 193q-65 71 -175 71q-123 0 -196 -79q-72 -78 -72 -213q0 -128 76 -206q77 -76 208 -76q106 0 202 42v85q-96 -51 -197 -51q-89 0 -139 48.5t-56 141.5h413v44zM472 322h-320q6 76 52 119q44 43 120 43q66 0 107 -44t41 -118
z" />
    <glyph glyph-name="Ebreve" unicode="&#x114;" horiz-adv-x="632" 
d="M176 928q11 -118 153 -118t153 118h-58q-15 -54 -95 -54q-83 0 -95 54h-58zM98 729v-729h470v83h-371v264h347v83h-347v216h362v83h-461z" />
    <glyph glyph-name="ebreve" unicode="&#x115;" horiz-adv-x="615" 
d="M170 785q11 -140 153 -140t153 140h-58q-12 -73 -95 -73q-85 0 -95 73h-58zM562 296q0 122 -64 193q-65 71 -175 71q-123 0 -196 -79q-72 -78 -72 -213q0 -128 76 -206q77 -76 208 -76q106 0 202 42v85q-96 -51 -197 -51q-89 0 -139 48.5t-56 141.5h413v44zM472 322h-320
q6 76 52 119q44 43 120 43q66 0 107 -44t41 -118z" />
    <glyph glyph-name="Edotaccent" unicode="&#x116;" horiz-adv-x="632" 
d="M279 914v-100h100v100h-100zM98 729v-729h470v83h-371v264h347v83h-347v216h362v83h-461z" />
    <glyph glyph-name="edotaccent" unicode="&#x117;" horiz-adv-x="615" 
d="M273 758v-100h100v100h-100zM562 296q0 122 -64 193q-65 71 -175 71q-123 0 -196 -79q-72 -78 -72 -213q0 -128 76 -206q77 -76 208 -76q106 0 202 42v85q-96 -51 -197 -51q-89 0 -139 48.5t-56 141.5h413v44zM472 322h-320q6 76 52 119q44 43 120 43q66 0 107 -44
t41 -118z" />
    <glyph glyph-name="Eogonek" unicode="&#x118;" horiz-adv-x="632" 
d="M440 0q-53 -60 -53 -105q0 -46 28 -67t88 -21q24 0 66 10v65q-30 -15 -61 -15q-53 0 -53 45q0 29 43 88h-58zM98 729v-729h470v83h-371v264h347v83h-347v216h362v83h-461z" />
    <glyph glyph-name="eogonek" unicode="&#x119;" horiz-adv-x="615" 
d="M399 0q-53 -60 -53 -105q0 -46 28 -67t88 -21q24 0 66 10v65q-30 -15 -61 -15q-53 0 -53 45q0 29 43 88h-58zM562 296q0 122 -64 193q-65 71 -175 71q-123 0 -196 -79q-72 -78 -72 -213q0 -128 76 -206q77 -76 208 -76q106 0 202 42v85q-96 -51 -197 -51q-89 0 -139 48.5
t-56 141.5h413v44zM472 322h-320q6 76 52 119q44 43 120 43q66 0 107 -44t41 -118z" />
    <glyph glyph-name="Ecaron" unicode="&#x11a;" horiz-adv-x="632" 
d="M98 729v-729h470v83h-371v264h347v83h-347v216h362v83h-461zM285 795h92l103 130h-68l-81 -87l-81 87h-68z" />
    <glyph glyph-name="ecaron" unicode="&#x11b;" horiz-adv-x="615" 
d="M562 296q0 122 -64 193q-65 71 -175 71q-123 0 -196 -79q-72 -78 -72 -213q0 -128 76 -206q77 -76 208 -76q106 0 202 42v85q-96 -51 -197 -51q-89 0 -139 48.5t-56 141.5h413v44zM472 322h-320q6 76 52 119q44 43 120 43q66 0 107 -44t41 -118zM286 614h72l120 184h-68
l-88 -120l-88 120h-68z" />
    <glyph glyph-name="Gcircumflex" unicode="&#x11c;" horiz-adv-x="775" 
d="M374 928l-103 -130h68l81 87l81 -87h68l-103 130h-92zM595 104q-64 -37 -167 -37q-268 0 -268 297t268 297q136 0 246 -93v105q-110 69 -254 69q-171 0 -268 -100q-96 -99 -96 -278q0 -178 96 -279q98 -99 268 -99q158 0 273 82v313h-259v-81h161v-196z" />
    <glyph glyph-name="gcircumflex" unicode="&#x11d;" horiz-adv-x="635" 
d="M265 800l-120 -184h68l88 120l88 -120h68l-120 184h-72zM454 280q0 -96 -40 -151q-40 -54 -113 -54q-72 0 -112.5 54t-40.5 151q0 99 40 151q40 54 113 54t113 -54t40 -151zM544 68v479h-90v-83q-56 96 -175 96q-101 0 -162 -77q-62 -77 -62 -203t62 -203q61 -77 162 -77
q119 0 175 96v-44q0 -186 -176 -186q-80 0 -157 42v-87q77 -29 171 -29q127 0 189.5 68t62.5 208z" />
    <glyph glyph-name="Gbreve" unicode="&#x11e;" horiz-adv-x="775" 
d="M595 104q-64 -37 -167 -37q-268 0 -268 297t268 297q136 0 246 -93v105q-110 69 -254 69q-171 0 -268 -100q-96 -99 -96 -278q0 -178 96 -279q98 -99 268 -99q158 0 273 82v313h-259v-81h161v-196zM235 928q11 -118 153 -118t153 118h-58q-15 -54 -95 -54q-83 0 -95 54
h-58z" />
    <glyph glyph-name="gbreve" unicode="&#x11f;" horiz-adv-x="635" 
d="M454 280q0 -96 -40 -151q-40 -54 -113 -54q-72 0 -112.5 54t-40.5 151q0 99 40 151q40 54 113 54t113 -54t40 -151zM544 68v479h-90v-83q-56 96 -175 96q-101 0 -162 -77q-62 -77 -62 -203t62 -203q61 -77 162 -77q119 0 175 96v-44q0 -186 -176 -186q-80 0 -157 42v-87
q77 -29 171 -29q127 0 189.5 68t62.5 208zM165 785q11 -140 153 -140t153 140h-58q-12 -73 -95 -73q-85 0 -95 73h-58z" />
    <glyph glyph-name="Gdotaccent" unicode="&#x120;" horiz-adv-x="775" 
d="M370 914v-100h100v100h-100zM595 104q-64 -37 -167 -37q-268 0 -268 297t268 297q136 0 246 -93v105q-110 69 -254 69q-171 0 -268 -100q-96 -99 -96 -278q0 -178 96 -279q98 -99 268 -99q158 0 273 82v313h-259v-81h161v-196z" />
    <glyph glyph-name="gdotaccent" unicode="&#x121;" horiz-adv-x="635" 
d="M251 758v-100h100v100h-100zM454 280q0 -96 -40 -151q-40 -54 -113 -54q-72 0 -112.5 54t-40.5 151q0 99 40 151q40 54 113 54t113 -54t40 -151zM544 68v479h-90v-83q-56 96 -175 96q-101 0 -162 -77q-62 -77 -62 -203t62 -203q61 -77 162 -77q119 0 175 96v-44
q0 -186 -176 -186q-80 0 -157 42v-87q77 -29 171 -29q127 0 189.5 68t62.5 208z" />
    <glyph glyph-name="Gcommaaccent" unicode="&#x122;" horiz-adv-x="775" 
d="M388 -73l-40 -157h63l80 157h-103zM595 104q-64 -37 -167 -37q-268 0 -268 297t268 297q136 0 246 -93v105q-110 69 -254 69q-171 0 -268 -100q-96 -99 -96 -278q0 -178 96 -279q98 -99 268 -99q158 0 273 82v313h-259v-81h161v-196z" />
    <glyph glyph-name="gcommaaccent" unicode="&#x123;" horiz-adv-x="635" 
d="M352 620l40 156h-63l-80 -156h103zM454 280q0 -96 -40 -151q-40 -54 -113 -54q-72 0 -112.5 54t-40.5 151q0 99 40 151q40 54 113 54t113 -54t40 -151zM544 68v479h-90v-83q-56 96 -175 96q-101 0 -162 -77q-62 -77 -62 -203t62 -203q61 -77 162 -77q119 0 175 96v-44
q0 -186 -176 -186q-80 0 -157 42v-87q77 -29 171 -29q127 0 189.5 68t62.5 208z" />
    <glyph glyph-name="Hcircumflex" unicode="&#x124;" horiz-adv-x="752" 
d="M330 928l-103 -130h68l81 87l81 -87h68l-103 130h-92zM98 729v-729h99v347h358v-347h99v729h-99v-299h-358v299h-99z" />
    <glyph glyph-name="hcircumflex" unicode="&#x125;" horiz-adv-x="634" 
d="M90 928l-103 -130h68l81 87l81 -87h68l-103 130h-92zM549 330q0 113 -48.5 171.5t-142.5 58.5q-113 0 -177 -98v298h-90v-760h90v309q0 81 42 127q43 46 115 46q121 0 121 -155v-327h90v330z" />
    <glyph glyph-name="Hbar" unicode="&#x126;" horiz-adv-x="916" 
d="M180 729v-109h-82v-80h82v-540h99v347h358v-347h99v540h82v80h-82v109h-99v-109h-358v109h-99zM279 540h358v-110h-358v110z" />
    <glyph glyph-name="hbar" unicode="&#x127;" horiz-adv-x="695" 
d="M578 330q0 113 -48.5 171.5t-142.5 58.5q-113 0 -177 -98v158h172v80h-172v60h-90v-60h-61v-80h61v-620h90v309q0 81 42 127q43 46 115 46q121 0 121 -155v-327h90v330z" />
    <glyph glyph-name="Itilde" unicode="&#x128;" horiz-adv-x="295" 
d="M145 835q27 -14 40 -17q12 -4 31 -4q41 0 66 29t26 78h-61v-3q0 -20 -9.5 -32.5t-25.5 -12.5q-12 0 -35 12l-28 15q-38 21 -71 21q-42 0 -67 -29t-25 -78h61v3q0 46 37 46q12 0 33 -12zM98 729v-729h99v729h-99z" />
    <glyph glyph-name="itilde" unicode="&#x129;" horiz-adv-x="278" 
d="M137 669q33 -30 68 -30q44 0 69 36t26 102h-61q-1 -76 -37 -76q-13 0 -33 19l-28 27q-33 30 -68 30q-44 0 -69 -36t-26 -102h61q1 76 37 76q13 0 33 -19zM94 547v-547h90v547h-90z" />
    <glyph glyph-name="Imacron" unicode="&#x12a;" horiz-adv-x="295" 
d="M1 899v-72h292v72h-292zM98 729v-729h99v729h-99z" />
    <glyph glyph-name="imacron" unicode="&#x12b;" horiz-adv-x="278" 
d="M-7 745v-72h292v72h-292zM94 547v-547h90v547h-90z" />
    <glyph glyph-name="Ibreve" unicode="&#x12c;" horiz-adv-x="295" 
d="M-6 928q11 -118 153 -118t153 118h-58q-15 -54 -95 -54q-83 0 -95 54h-58zM98 729v-729h99v729h-99z" />
    <glyph glyph-name="ibreve" unicode="&#x12d;" horiz-adv-x="278" 
d="M-14 785q11 -140 153 -140t153 140h-58q-12 -73 -95 -73q-85 0 -95 73h-58zM94 547v-547h90v547h-90z" />
    <glyph glyph-name="Iogonek" unicode="&#x12e;" horiz-adv-x="295" 
d="M139 0q-53 -60 -53 -105q0 -46 28 -67t88 -21q24 0 66 10v65q-30 -15 -61 -15q-53 0 -53 45q0 29 43 88h-58zM98 729v-729h99v729h-99z" />
    <glyph glyph-name="iogonek" unicode="&#x12f;" horiz-adv-x="278" 
d="M126 0q-53 -60 -53 -105q0 -46 28 -67t88 -21q24 0 66 10v65q-30 -15 -61 -15q-53 0 -53 45q0 29 43 88h-58zM94 547v-547h90v547h-90zM94 760v-114h90v114h-90z" />
    <glyph glyph-name="Idot" unicode="&#x130;" horiz-adv-x="295" 
d="M98 729v-729h99v729h-99zM98 914v-100h100v100h-100z" />
    <glyph glyph-name="dotlessi" unicode="&#x131;" horiz-adv-x="278" 
d="M94 547v-547h90v547h-90z" />
    <glyph glyph-name="IJ" unicode="&#x132;" horiz-adv-x="590" 
d="M393 729v-678q0 -95 -27 -132q-27 -36 -92 -36h-31v-83h38q110 0 160 59q51 60 51 192v678h-99zM98 729v-729h99v729h-99z" />
    <glyph glyph-name="ij" unicode="&#x133;" horiz-adv-x="556" 
d="M371 547v-557q0 -74 -18 -98q-19 -24 -70 -24h-24v-76h34q89 0 128 47q40 46 40 151v557h-90zM371 760v-114h90v114h-90zM94 547v-547h90v547h-90zM94 760v-114h90v114h-90z" />
    <glyph glyph-name="Jcircumflex" unicode="&#x134;" horiz-adv-x="295" 
d="M101 928l-103 -130h68l81 87l81 -87h68l-103 130h-92zM98 729v-678q0 -95 -27 -132q-27 -36 -92 -36h-31v-83h38q110 0 160 59q51 60 51 192v678h-99z" />
    <glyph glyph-name="jcircumflex" unicode="&#x135;" horiz-adv-x="278" 
d="M103 800l-120 -184h68l88 120l88 -120h68l-120 184h-72zM94 547v-557q0 -74 -18 -98q-19 -24 -70 -24h-24v-76h34q89 0 128 47q40 46 40 151v557h-90z" />
    <glyph glyph-name="Kcommaaccent" unicode="&#x136;" horiz-adv-x="656" 
d="M355 -59l-40 -157h63l80 157h-103zM98 729v-729h99v351l350 -351h130l-388 389l362 340h-127l-327 -308v308h-99z" />
    <glyph glyph-name="kcommaaccent" unicode="&#x137;" horiz-adv-x="579" 
d="M301 -59l-40 -157h63l80 157h-103zM91 760v-760h90v267l278 -267h117l-302 291l290 256h-115l-268 -236v449h-90z" />
    <glyph glyph-name="kgreenlandic" unicode="&#x138;" horiz-adv-x="579" 
d="M91 547v-547h90v266l278 -266h117l-302 290l290 257h-115l-268 -237v237h-90z" />
    <glyph glyph-name="Lacute" unicode="&#x139;" horiz-adv-x="557" 
d="M206 928l-96 -129h75l111 129h-90zM98 729v-729h454v83h-355v646h-99z" />
    <glyph glyph-name="lacute" unicode="&#x13a;" horiz-adv-x="293" 
d="M196 928l-96 -129h75l111 129h-90zM94 760v-760h90v760h-90z" />
    <glyph glyph-name="Lcommaaccent" unicode="&#x13b;" horiz-adv-x="557" 
d="M293 -59l-40 -157h63l80 157h-103zM98 729v-729h454v83h-355v646h-99z" />
    <glyph glyph-name="lcommaaccent" unicode="&#x13c;" horiz-adv-x="278" 
d="M107 -59l-40 -157h63l80 157h-103zM94 760v-760h90v760h-90z" />
    <glyph glyph-name="Lcaron" unicode="&#x13d;" horiz-adv-x="557" 
d="M328 729l-35 -184h75l57 184h-97zM98 729v-729h454v83h-355v646h-99z" />
    <glyph glyph-name="lcaron" unicode="&#x13e;" horiz-adv-x="375" 
d="M278 760l-35 -184h75l57 184h-97zM94 760v-760h90v760h-90z" />
    <glyph glyph-name="Ldot" unicode="&#x13f;" horiz-adv-x="557" 
d="M381 467v-124h103v124h-103zM98 729v-729h454v83h-355v646h-99z" />
    <glyph glyph-name="ldot" unicode="&#x140;" horiz-adv-x="342" 
d="M211 465v-124h103v124h-103zM94 760v-760h90v760h-90z" />
    <glyph glyph-name="Lslash" unicode="&#x141;" horiz-adv-x="562" 
d="M103 729v-371l-110 -77l38 -54l72 52v-279h454v83h-355v264l192 134l-39 54l-153 -107v301h-99z" />
    <glyph glyph-name="lslash" unicode="&#x142;" horiz-adv-x="284" 
d="M97 760v-357l-96 -69l36 -52l60 43v-325h90v389l98 69l-37 52l-61 -44v294h-90z" />
    <glyph glyph-name="Nacute" unicode="&#x143;" horiz-adv-x="748" 
d="M373 928l-96 -129h75l111 129h-90zM98 729v-729h96v610l323 -610h133v729h-96v-610l-323 610h-133z" />
    <glyph glyph-name="nacute" unicode="&#x144;" horiz-adv-x="634" 
d="M350 803l-137 -184h75l159 184h-97zM549 330q0 113 -48.5 171.5t-142.5 58.5q-113 0 -177 -98v85h-90v-547h90v309q0 81 42 127q43 46 115 46q121 0 121 -155v-327h90v330z" />
    <glyph glyph-name="Ncommaaccent" unicode="&#x145;" horiz-adv-x="748" 
d="M342 -59l-40 -157h63l80 157h-103zM98 729v-729h96v610l323 -610h133v729h-96v-610l-323 610h-133z" />
    <glyph glyph-name="ncommaaccent" unicode="&#x146;" horiz-adv-x="634" 
d="M287 -59l-40 -157h63l80 157h-103zM549 330q0 113 -48.5 171.5t-142.5 58.5q-113 0 -177 -98v85h-90v-547h90v309q0 81 42 127q43 46 115 46q121 0 121 -155v-327h90v330z" />
    <glyph glyph-name="Ncaron" unicode="&#x147;" horiz-adv-x="748" 
d="M98 729v-729h96v610l323 -610h133v729h-96v-610l-323 610h-133zM324 791h92l103 130h-68l-81 -87l-81 87h-68z" />
    <glyph glyph-name="ncaron" unicode="&#x148;" horiz-adv-x="634" 
d="M549 330q0 113 -48.5 171.5t-142.5 58.5q-113 0 -177 -98v85h-90v-547h90v309q0 81 42 127q43 46 115 46q121 0 121 -155v-327h90v330zM283 616h72l120 184h-68l-88 -120l-88 120h-68z" />
    <glyph glyph-name="napostrophe" unicode="&#x149;" horiz-adv-x="813" 
d="M715 330q0 230 -191 230q-112 0 -176 -98v85h-91v-547h91v309q0 81 42 127q41 46 114 46q121 0 121 -155v-327h90v330zM140 729v-74l-40 -156h63l80 156v74h-103z" />
    <glyph glyph-name="Eng" unicode="&#x14a;" horiz-adv-x="748" 
d="M104 729v-729h90v561l360 -561q0 -84 -18 -108q-20 -24 -70 -24h-114v-76h124q89 0 128 47q40 46 40 151v739h-90v-561l-360 561h-90z" />
    <glyph glyph-name="eng" unicode="&#x14b;" horiz-adv-x="634" 
d="M549 330q0 114 -49 172q-48 58 -142 58q-58 0 -101 -24q-42 -23 -76 -74v85h-90v-547h90v309q0 81 42 127q43 46 115 46q121 0 121 -155v-337q0 -75 -19 -98q-18 -24 -69 -24h-114v-76h124q87 0 128 47q40 46 40 151v340z" />
    <glyph glyph-name="Omacron" unicode="&#x14c;" horiz-adv-x="787" 
d="M248 899v-72h292v72h-292zM394 662q107 0 170 -80t63 -218t-63 -218t-170 -80q-106 0 -171 80q-63 80 -63 218t63 218q65 80 171 80zM394 742q-155 0 -246 -103q-92 -103 -92 -275t92 -276q92 -102 246 -102t245 102q92 104 92 276t-92 275q-91 103 -245 103z" />
    <glyph glyph-name="omacron" unicode="&#x14d;" horiz-adv-x="612" 
d="M160 745v-72h292v72h-292zM306 484q72 0 114 -57t42 -154q0 -99 -42 -154q-42 -57 -114 -57q-73 0 -115 56q-41 58 -41 155q0 99 42 154q42 57 114 57zM306 560q-118 0 -184 -76q-67 -76 -67 -211t67 -211q66 -76 184 -76t184 76q67 76 67 211t-67 211q-66 76 -184 76z
" />
    <glyph glyph-name="Obreve" unicode="&#x14e;" horiz-adv-x="787" 
d="M241 928q11 -118 153 -118t153 118h-58q-15 -54 -95 -54q-83 0 -95 54h-58zM394 662q107 0 170 -80t63 -218t-63 -218t-170 -80q-106 0 -171 80q-63 80 -63 218t63 218q65 80 171 80zM394 742q-155 0 -246 -103q-92 -103 -92 -275t92 -276q92 -102 246 -102t245 102
q92 104 92 276t-92 275q-91 103 -245 103z" />
    <glyph glyph-name="obreve" unicode="&#x14f;" horiz-adv-x="612" 
d="M153 785q11 -140 153 -140t153 140h-58q-12 -73 -95 -73q-85 0 -95 73h-58zM306 484q72 0 114 -57t42 -154q0 -99 -42 -154q-42 -57 -114 -57q-73 0 -115 56q-41 58 -41 155q0 99 42 154q42 57 114 57zM306 560q-118 0 -184 -76q-67 -76 -67 -211t67 -211q66 -76 184 -76
t184 76q67 76 67 211t-67 211q-66 76 -184 76z" />
    <glyph glyph-name="Ohungarumlaut" unicode="&#x150;" horiz-adv-x="787" 
d="M516 927l-96 -129h75l111 129h-90zM352 927l-96 -129h75l111 129h-90zM394 662q107 0 170 -80t63 -218t-63 -218t-170 -80q-106 0 -171 80q-63 80 -63 218t63 218q65 80 171 80zM394 742q-155 0 -246 -103q-92 -103 -92 -275t92 -276q92 -102 246 -102t245 102
q92 104 92 276t-92 275q-91 103 -245 103z" />
    <glyph glyph-name="ohungarumlaut" unicode="&#x151;" horiz-adv-x="612" 
d="M451 800l-100 -184h66l121 184h-87zM288 800l-93 -184h67l109 184h-83zM306 484q72 0 114 -57t42 -154q0 -99 -42 -154q-42 -57 -114 -57q-73 0 -115 56q-41 58 -41 155q0 99 42 154q42 57 114 57zM306 560q-118 0 -184 -76q-67 -76 -67 -211t67 -211q66 -76 184 -76
t184 76q67 76 67 211t-67 211q-66 76 -184 76z" />
    <glyph glyph-name="OE" unicode="&#x152;" horiz-adv-x="1070" 
d="M997 729h-511q-211 0 -320.5 -92.5t-109.5 -271.5q0 -180 109 -272.5t321 -92.5h520v83h-371v264h347v83h-347v216h362v83zM536 646v-563h-63q-313 0 -313 282q0 281 313 281h63z" />
    <glyph glyph-name="oe" unicode="&#x153;" horiz-adv-x="1023" 
d="M880 322h-320q7 77 52 119.5t120 42.5q66 0 107 -44q39 -42 41 -118zM970 296q0 122 -64 193q-65 71 -175 71q-143 0 -221 -107q-66 107 -204 107q-118 0 -184 -76q-67 -76 -67 -211t67 -211q66 -76 184 -76q137 0 205 107q80 -107 236 -107q105 0 202 42v85
q-96 -51 -197 -51q-89 0 -139 48.5t-56 141.5h413v44zM306 484q72 0 114 -57t42 -154q0 -99 -42 -154q-42 -57 -114 -57q-73 0 -115 56q-41 58 -41 155q0 99 42 154q42 57 114 57z" />
    <glyph glyph-name="Racute" unicode="&#x154;" horiz-adv-x="695" 
d="M350 928l-96 -129h75l111 129h-90zM444 342q61 17 93 62.5t32 114.5q0 210 -248 210h-223v-729h99v308h107q59 0 92 -24q36 -25 71 -97l93 -187h106l-100 199q-61 123 -122 143zM197 648h124q144 0 144 -129q0 -130 -144 -130h-124v259z" />
    <glyph glyph-name="racute" unicode="&#x155;" horiz-adv-x="411" 
d="M350 803l-137 -184h75l159 184h-97zM411 463v92q-22 5 -46 5q-128 0 -184 -98v85h-90v-547h90v288q0 93 40.5 142.5t117.5 49.5q44 0 72 -17z" />
    <glyph glyph-name="Rcommaaccent" unicode="&#x156;" horiz-adv-x="695" 
d="M350 -59l-40 -157h63l80 157h-103zM444 342q61 17 93 62.5t32 114.5q0 210 -248 210h-223v-729h99v308h107q59 0 92 -24q36 -25 71 -97l93 -187h106l-100 199q-61 123 -122 143zM197 648h124q144 0 144 -129q0 -130 -144 -130h-124v259z" />
    <glyph glyph-name="rcommaaccent" unicode="&#x157;" horiz-adv-x="411" 
d="M104 -59l-40 -157h63l80 157h-103zM411 463v92q-22 5 -46 5q-128 0 -184 -98v85h-90v-547h90v288q0 93 40.5 142.5t117.5 49.5q44 0 72 -17z" />
    <glyph glyph-name="Rcaron" unicode="&#x158;" horiz-adv-x="695" 
d="M444 342q61 17 93 62.5t32 114.5q0 210 -248 210h-223v-729h99v308h107q59 0 92 -24q36 -25 71 -97l93 -187h106l-100 199q-61 123 -122 143zM197 648h124q144 0 144 -129q0 -130 -144 -130h-124v259zM265 791h92l103 130h-68l-81 -87l-81 87h-68z" />
    <glyph glyph-name="rcaron" unicode="&#x159;" horiz-adv-x="411" 
d="M411 463v92q-22 5 -46 5q-128 0 -184 -98v85h-90v-547h90v288q0 93 40.5 142.5t117.5 49.5q44 0 72 -17zM227 616h72l120 184h-68l-88 -120l-88 120h-68z" />
    <glyph glyph-name="Sacute" unicode="&#x15a;" horiz-adv-x="635" 
d="M350 928l-96 -129h75l111 129h-90zM535 705q-110 37 -213 37q-121 0 -188 -55q-68 -56 -68 -153q0 -83 49 -130q50 -47 160 -69l60 -12q75 -15 108 -45t33 -84q0 -62 -45.5 -95t-130.5 -33q-110 0 -231 68v-102q123 -46 231 -46q137 0 208 54.5t71 160.5q0 89 -52.5 142
t-162.5 74l-60 12q-80 15 -110 40q-29 24 -29 73q0 58 44 89t124 31q92 0 202 -53v96z" />
    <glyph glyph-name="sacute" unicode="&#x15b;" horiz-adv-x="521" 
d="M350 803l-137 -184h75l159 184h-97zM443 531q-75 29 -175 29q-101 0 -155.5 -42t-54.5 -119q0 -64 37 -100t121 -54l31 -7q83 -18 108 -38q25 -19 25 -56q0 -40 -34 -61.5t-98 -21.5q-94 0 -194 52v-93q105 -34 192 -34q107 0 166 44q60 45 60 121q0 66 -40 104
q-40 37 -136 58l-31 7q-73 17 -96 34q-24 16 -24 49q0 82 134 82q87 0 164 -39v85z" />
    <glyph glyph-name="Scircumflex" unicode="&#x15c;" horiz-adv-x="635" 
d="M276 928l-103 -130h68l81 87l81 -87h68l-103 130h-92zM535 705q-110 37 -213 37q-121 0 -188 -55q-68 -56 -68 -153q0 -83 49 -130q50 -47 160 -69l60 -12q75 -15 108 -45t33 -84q0 -62 -45.5 -95t-130.5 -33q-110 0 -231 68v-102q123 -46 231 -46q137 0 208 54.5
t71 160.5q0 89 -52.5 142t-162.5 74l-60 12q-80 15 -110 40q-29 24 -29 73q0 58 44 89t124 31q92 0 202 -53v96z" />
    <glyph glyph-name="scircumflex" unicode="&#x15d;" horiz-adv-x="521" 
d="M232 800l-120 -184h68l88 120l88 -120h68l-120 184h-72zM443 531q-75 29 -175 29q-101 0 -155.5 -42t-54.5 -119q0 -64 37 -100t121 -54l31 -7q83 -18 108 -38q25 -19 25 -56q0 -40 -34 -61.5t-98 -21.5q-94 0 -194 52v-93q105 -34 192 -34q107 0 166 44q60 45 60 121
q0 66 -40 104q-40 37 -136 58l-31 7q-73 17 -96 34q-24 16 -24 49q0 82 134 82q87 0 164 -39v85z" />
    <glyph glyph-name="Scedilla" unicode="&#x15e;" horiz-adv-x="635" 
d="M535 705q-110 37 -213 37q-121 0 -188 -55q-68 -56 -68 -153q0 -83 49 -130q50 -47 160 -69l60 -12q75 -15 108 -45t33 -84q0 -62 -45.5 -95t-130.5 -33q-110 0 -231 68v-102q123 -46 231 -46q137 0 208 54.5t71 160.5q0 89 -52.5 142t-162.5 74l-60 12q-80 15 -110 40
q-29 24 -29 73q0 58 44 89t124 31q92 0 202 -53v96zM359 0h-58q43 -59 43 -87q0 -46 -58 -46q-44 0 -76 16v-64q42 -12 86 -12q116 0 116 88q0 45 -53 105z" />
    <glyph glyph-name="scedilla" unicode="&#x15f;" horiz-adv-x="521" 
d="M443 531q-75 29 -175 29q-101 0 -155.5 -42t-54.5 -119q0 -64 37 -100t121 -54l31 -7q83 -18 108 -38q25 -19 25 -56q0 -40 -34 -61.5t-98 -21.5q-94 0 -194 52v-93q105 -34 192 -34q107 0 166 44q60 45 60 121q0 66 -40 104q-40 37 -136 58l-31 7q-73 17 -96 34
q-24 16 -24 49q0 82 134 82q87 0 164 -39v85zM302 0h-58q43 -59 43 -87q0 -46 -58 -46q-44 0 -76 16v-64q42 -12 86 -12q116 0 116 88q0 45 -53 105z" />
    <glyph glyph-name="Scaron" unicode="&#x160;" horiz-adv-x="635" 
d="M535 705q-110 37 -213 37q-121 0 -188 -55q-68 -56 -68 -153q0 -83 49 -130q50 -47 160 -69l60 -12q75 -15 108 -45t33 -84q0 -62 -45.5 -95t-130.5 -33q-110 0 -231 68v-102q123 -46 231 -46q137 0 208 54.5t71 160.5q0 89 -52.5 142t-162.5 74l-60 12q-80 15 -110 40
q-29 24 -29 73q0 58 44 89t124 31q92 0 202 -53v96zM272 798h92l103 130h-68l-81 -87l-81 87h-68z" />
    <glyph glyph-name="scaron" unicode="&#x161;" horiz-adv-x="521" 
d="M443 531q-75 29 -175 29q-101 0 -155.5 -42t-54.5 -119q0 -64 37 -100t121 -54l31 -7q83 -18 108 -38q25 -19 25 -56q0 -40 -34 -61.5t-98 -21.5q-94 0 -194 52v-93q105 -34 192 -34q107 0 166 44q60 45 60 121q0 66 -40 104q-40 37 -136 58l-31 7q-73 17 -96 34
q-24 16 -24 49q0 82 134 82q87 0 164 -39v85zM225 616h72l120 184h-68l-88 -120l-88 120h-68z" />
    <glyph glyph-name="Tcommaaccent" unicode="&#x162;" horiz-adv-x="611" 
d="M330 0h-58q43 -59 43 -87q0 -46 -58 -46q-44 0 -76 16v-64q42 -12 86 -12q116 0 116 88q0 45 -53 105zM-3 729v-83h259v-646h99v646h259v83h-617z" />
    <glyph glyph-name="tcommaaccent" unicode="&#x163;" horiz-adv-x="392" 
d="M276 0h-58q43 -59 43 -87q0 -46 -58 -46q-44 0 -76 16v-64q42 -12 86 -12q116 0 116 88q0 45 -53 105zM183 702h-90v-155h-66v-70h66v-297q0 -104 39 -141q40 -39 144 -39h92v75h-92q-56 0 -75 19q-18 20 -18 86v297h185v70h-185v155z" />
    <glyph glyph-name="Tcaron" unicode="&#x164;" horiz-adv-x="611" 
d="M-3 729v-83h259v-646h99v646h259v83h-617zM260 791h92l103 130h-68l-81 -87l-81 87h-68z" />
    <glyph glyph-name="tcaron" unicode="&#x165;" horiz-adv-x="392" 
d="M183 702h-90v-155h-66v-70h66v-297q0 -104 39 -141q40 -39 144 -39h92v75h-92q-56 0 -75 19q-18 20 -18 86v297h185v70h-185v155zM277 814l-35 -184h75l57 184h-97z" />
    <glyph glyph-name="Tbar" unicode="&#x166;" horiz-adv-x="611" 
d="M-3 729v-83h259v-281h-130v-83h130v-282h99v282h129v83h-129v281h259v83h-617z" />
    <glyph glyph-name="tbar" unicode="&#x167;" horiz-adv-x="392" 
d="M183 702h-90v-155h-66v-70h66v-114h-66v-69h66v-114q0 -102 39 -141q40 -39 144 -39h92v75h-92q-56 0 -75 19q-18 20 -18 86v114h93v69h-93v114h185v70h-185v155z" />
    <glyph glyph-name="Utilde" unicode="&#x168;" horiz-adv-x="732" 
d="M364 835q27 -14 40 -17q12 -4 31 -4q41 0 66 29t26 78h-61v-3q0 -20 -9.5 -32.5t-25.5 -12.5q-13 0 -35 12l-28 15q-38 21 -71 21q-42 0 -67 -29t-25 -78h61v3q0 46 37 46q12 0 33 -12zM87 729v-455q0 -142 70.5 -215t208.5 -73t208.5 73t70.5 215v455h-99v-443
q0 -117 -43 -169q-42 -51 -137 -51t-137 51q-43 52 -43 169v443h-99z" />
    <glyph glyph-name="utilde" unicode="&#x169;" horiz-adv-x="634" 
d="M312 669q33 -30 68 -30q44 0 69 36t26 102h-61q-1 -76 -37 -76q-13 0 -33 19l-28 27q-33 30 -68 30q-44 0 -69 -36t-26 -102h61q1 76 37 76q13 0 33 -19zM85 216q0 -113 48.5 -171.5t143.5 -58.5q112 0 176 98v-84h90v547h-90v-310q0 -80 -42 -127q-43 -46 -115 -46
q-121 0 -121 155v328h-90v-331z" />
    <glyph glyph-name="Umacron" unicode="&#x16a;" horiz-adv-x="732" 
d="M220 899v-72h292v72h-292zM87 729v-455q0 -142 70.5 -215t208.5 -73t208.5 73t70.5 215v455h-99v-443q0 -117 -43 -169q-42 -51 -137 -51t-137 51q-43 52 -43 169v443h-99z" />
    <glyph glyph-name="umacron" unicode="&#x16b;" horiz-adv-x="634" 
d="M168 745v-72h292v72h-292zM85 216q0 -113 48.5 -171.5t143.5 -58.5q112 0 176 98v-84h90v547h-90v-310q0 -80 -42 -127q-43 -46 -115 -46q-121 0 -121 155v328h-90v-331z" />
    <glyph glyph-name="Ubreve" unicode="&#x16c;" horiz-adv-x="732" 
d="M213 928q11 -118 153 -118t153 118h-58q-15 -54 -95 -54q-83 0 -95 54h-58zM87 729v-455q0 -142 70.5 -215t208.5 -73t208.5 73t70.5 215v455h-99v-443q0 -117 -43 -169q-42 -51 -137 -51t-137 51q-43 52 -43 169v443h-99z" />
    <glyph glyph-name="ubreve" unicode="&#x16d;" horiz-adv-x="634" 
d="M161 785q11 -140 153 -140t153 140h-58q-12 -73 -95 -73q-85 0 -95 73h-58zM85 216q0 -113 48.5 -171.5t143.5 -58.5q112 0 176 98v-84h90v547h-90v-310q0 -80 -42 -127q-43 -46 -115 -46q-121 0 -121 155v328h-90v-331z" />
    <glyph glyph-name="Uring" unicode="&#x16e;" horiz-adv-x="732" 
d="M87 729v-455q0 -142 70.5 -215t208.5 -73t208.5 73t70.5 215v455h-99v-443q0 -117 -43 -169q-42 -51 -137 -51t-137 51q-43 52 -43 169v443h-99zM441 903q0 -30 -21 -53q-21 -21 -53 -21t-53 21t-21 53q0 31 21 52q21 22 53 22t53 -22q21 -21 21 -52zM501 903
q0 56 -39 95t-95 39t-95 -39t-39 -95t39 -95t95 -39t95 39t39 95z" />
    <glyph glyph-name="uring" unicode="&#x16f;" horiz-adv-x="634" 
d="M85 216q0 -113 48.5 -171.5t143.5 -58.5q112 0 176 98v-84h90v547h-90v-310q0 -80 -42 -127q-43 -46 -115 -46q-121 0 -121 155v328h-90v-331zM385 715q0 -30 -21 -53q-21 -21 -53 -21t-53 21t-21 53q0 31 21 52q21 22 53 22t53 -22q21 -21 21 -52zM445 715q0 56 -39 95
t-95 39t-95 -39t-39 -95t39 -95t95 -39t95 39t39 95z" />
    <glyph glyph-name="Uhungarumlaut" unicode="&#x170;" horiz-adv-x="732" 
d="M488 927l-96 -129h75l111 129h-90zM324 927l-96 -129h75l111 129h-90zM87 729v-455q0 -142 70.5 -215t208.5 -73t208.5 73t70.5 215v455h-99v-443q0 -117 -43 -169q-42 -51 -137 -51t-137 51q-43 52 -43 169v443h-99z" />
    <glyph glyph-name="uhungarumlaut" unicode="&#x171;" horiz-adv-x="634" 
d="M459 800l-100 -184h66l121 184h-87zM296 800l-93 -184h67l109 184h-83zM85 216q0 -113 48.5 -171.5t143.5 -58.5q112 0 176 98v-84h90v547h-90v-310q0 -80 -42 -127q-43 -46 -115 -46q-121 0 -121 155v328h-90v-331z" />
    <glyph glyph-name="Uogonek" unicode="&#x172;" horiz-adv-x="732" 
d="M87 729v-455q0 -142 70.5 -215t208.5 -73t208.5 73t70.5 215v455h-99v-443q0 -117 -43 -169q-42 -51 -137 -51t-137 51q-43 52 -43 169v443h-99zM337 -8q-53 -60 -53 -105q0 -46 28 -67t88 -21q24 0 66 10v65q-30 -15 -61 -15q-53 0 -53 45q0 29 43 88h-58z" />
    <glyph glyph-name="uogonek" unicode="&#x173;" horiz-adv-x="634" 
d="M85 216q0 -113 48.5 -171.5t143.5 -58.5q112 0 176 98v-84h90v547h-90v-310q0 -80 -42 -127q-43 -46 -115 -46q-121 0 -121 155v328h-90v-331zM484 0q-53 -60 -53 -105q0 -46 28 -67t88 -21q24 0 66 10v65q-30 -15 -61 -15q-53 0 -53 45q0 29 43 88h-58z" />
    <glyph glyph-name="Wcircumflex" unicode="&#x174;" horiz-adv-x="989" 
d="M449 932l-103 -130h68l81 87l81 -87h68l-103 130h-92zM33 729l183 -729h124l155 633l154 -633h124l183 729h-100l-153 -616l-153 616h-111l-153 -616l-153 616h-100z" />
    <glyph glyph-name="wcircumflex" unicode="&#x175;" horiz-adv-x="818" 
d="M373 803l-120 -184h68l88 120l88 -120h68l-120 184h-72zM42 547l143 -547h106l118 448l118 -448h106l143 547h-90l-112 -427l-112 427h-106l-112 -427l-112 427h-90z" />
    <glyph glyph-name="Ycircumflex" unicode="&#x176;" horiz-adv-x="611" 
d="M260 932l-103 -130h68l81 87l81 -87h68l-103 130h-92zM-2 729l258 -382v-347h99v347l258 382h-106l-201 -300l-202 300h-106z" />
    <glyph glyph-name="ycircumflex" unicode="&#x177;" horiz-adv-x="592" 
d="M260 803l-120 -184h68l88 120l88 -120h68l-120 184h-72zM322 -51l240 598h-95l-171 -428l-171 428h-95l221 -538l-16 -41q-26 -67 -46 -83q-19 -18 -57 -18h-53v-75h72q61 0 97 30q36 31 74 127z" />
    <glyph glyph-name="Ydieresis" unicode="&#x178;" horiz-adv-x="611" 
d="M-2 729l258 -382v-347h99v347l258 382h-106l-201 -300l-202 300h-106zM352 913v-99h99v99h-99zM161 913v-99h99v99h-99z" />
    <glyph glyph-name="Zacute" unicode="&#x179;" horiz-adv-x="685" 
d="M350 928l-96 -129h75l111 129h-90zM56 729v-83h450l-461 -571v-75h595v83h-472l461 571v75h-573z" />
    <glyph glyph-name="zacute" unicode="&#x17a;" horiz-adv-x="525" 
d="M350 803l-137 -184h75l159 184h-97zM55 547v-72h326l-338 -393v-82h439v72h-338l338 393v82h-427z" />
    <glyph glyph-name="Zdotaccent" unicode="&#x17b;" horiz-adv-x="685" 
d="M282 905v-100h100v100h-100zM56 729v-83h450l-461 -571v-75h595v83h-472l461 571v75h-573z" />
    <glyph glyph-name="zdotaccent" unicode="&#x17c;" horiz-adv-x="525" 
d="M200 758v-100h100v100h-100zM55 547v-72h326l-338 -393v-82h439v72h-338l338 393v82h-427z" />
    <glyph glyph-name="Zcaron" unicode="&#x17d;" horiz-adv-x="685" 
d="M56 729v-83h450l-461 -571v-75h595v83h-472l461 571v75h-573zM297 798h92l103 130h-68l-81 -87l-81 87h-68z" />
    <glyph glyph-name="zcaron" unicode="&#x17e;" horiz-adv-x="525" 
d="M55 547v-72h326l-338 -393v-82h439v72h-338l338 393v82h-427zM227 616h72l120 184h-68l-88 -120l-88 120h-68z" />
    <glyph glyph-name="longs" unicode="&#x17f;" horiz-adv-x="352" 
d="M199 0v595q0 49 19 71q18 19 67 19h86v75h-85q-92 0 -134.5 -42t-42.5 -133v-38h-86v-70h86v-477h90z" />
    <glyph glyph-name="uni0186" unicode="&#x186;" horiz-adv-x="698" 
d="M56 673v-104q99 92 226 92q125 0 191.5 -76t66.5 -221q0 -144 -66.5 -220.5t-191.5 -76.5q-127 0 -226 92v-103q103 -70 232 -70q165 0 261 101q95 103 95 277t-95 277q-96 101 -261 101q-130 0 -232 -69z" />
    <glyph glyph-name="uni0190" unicode="&#x190;" horiz-adv-x="636" 
d="M227 393q-70 -15 -111 -63q-40 -47 -40 -118q0 -108 74 -167t211 -59q91 0 195 36v95q-82 -48 -192 -48q-92 0 -141 36.5t-49 106.5q0 64 45.5 100.5t125.5 36.5h85v81h-89q-73 0 -111.5 29t-38.5 84q0 56 40 86t114 30q82 0 189 -36v88q-111 31 -198 31q-112 0 -177 -51
q-66 -51 -66 -138q0 -60 35 -102t99 -58z" />
    <glyph glyph-name="florin" unicode="&#x192;" horiz-adv-x="636" 
d="M626 742q-45 18 -97 18q-73 0 -122 -48t-66 -137l-31 -161h-136v-70h121l-67 -334q-17 -84 -43 -114q-27 -34 -74 -34q-44 0 -96 32v-81q47 -21 100 -21q91 0 137 52q45 50 74 190l62 310h155v70h-140l29 152q12 64 40 94t75 30q42 0 79 -28v80z" />
    <glyph glyph-name="uni0194" unicode="&#x194;" horiz-adv-x="685" 
d="M406 317l232 344h-106l-182 -271l-181 271h-106l227 -340q-146 -206 -146 -370q0 -16 2 -46q17 -115 215 -115q201 0 203 115v4q0 193 -158 408zM343 242q106 -144 108 -305v-1q0 -67 -100 -67q-103 0 -105 68v10q0 153 97 295z" />
    <glyph glyph-name="uni01C4" unicode="&#x1c4;" horiz-adv-x="1422" 
d="M768 729v-83h449l-461 -571v-75h596v83h-473l461 571v75h-572zM1008 798h92l103 130h-68l-81 -87l-81 87h-68zM197 648h119q150 0 221 -68q70 -70 70 -215q0 -146 -70 -216q-71 -68 -221 -68h-119v567zM98 729v-729h203q212 0 310 88q100 88 100 277q0 187 -99 276
q-98 88 -311 88h-203z" />
    <glyph glyph-name="uni01C5" unicode="&#x1c5;" horiz-adv-x="1299" 
d="M784 547v-72h326l-338 -393v-82h439v72h-338l338 393v82h-427zM956 616h72l120 184h-68l-88 -120l-88 120h-68zM197 648h119q150 0 221 -68q70 -70 70 -215q0 -146 -70 -216q-71 -68 -221 -68h-119v567zM98 729v-729h203q212 0 310 88q100 88 100 277q0 187 -99 276
q-98 88 -311 88h-203z" />
    <glyph glyph-name="uni01C6" unicode="&#x1c6;" horiz-adv-x="1154" 
d="M644 547v-72h326l-338 -393v-82h439v72h-338l338 393v82h-427zM816 616h72l120 184h-68l-88 -120l-88 120h-68zM454 464q-55 96 -175 96q-99 0 -162 -79q-62 -80 -62 -208t62 -208q63 -79 162 -79q120 0 175 96v-82h90v760h-90v-296zM148 273q0 98 40 155q42 57 113 57
t112 -57q41 -56 41 -155q0 -98 -41 -156q-41 -56 -112 -56t-113 56q-40 58 -40 156z" />
    <glyph glyph-name="uni01C7" unicode="&#x1c7;" horiz-adv-x="835" 
d="M669 729v-678q0 -95 -27 -132q-27 -36 -92 -36h-31v-83h38q110 0 160 59q51 60 51 192v678h-99zM98 729v-729h454v83h-355v646h-99z" />
    <glyph glyph-name="uni01C8" unicode="&#x1c8;" horiz-adv-x="787" 
d="M643 547v-557q0 -74 -18 -98q-19 -24 -70 -24h-24v-76h34q89 0 128 47q40 46 40 151v557h-90zM643 760v-114h90v114h-90zM98 729v-729h454v83h-355v646h-99z" />
    <glyph glyph-name="uni01C9" unicode="&#x1c9;" horiz-adv-x="457" 
d="M277 547v-557q0 -74 -18 -98q-19 -24 -70 -24h-24v-76h34q89 0 128 47q40 46 40 151v557h-90zM277 760v-114h90v114h-90zM94 760v-760h90v760h-90z" />
    <glyph glyph-name="uni01CA" unicode="&#x1ca;" horiz-adv-x="931" 
d="M769 729v-678q0 -95 -27 -132q-27 -36 -92 -36h-31v-83h38q110 0 160 59q51 60 51 192v678h-99zM98 729v-729h96v610l323 -610h133v729h-96v-610l-323 610h-133z" />
    <glyph glyph-name="uni01CB" unicode="&#x1cb;" horiz-adv-x="924" 
d="M749 547v-557q0 -74 -18 -98q-19 -24 -70 -24h-24v-76h34q89 0 128 47q40 46 40 151v557h-90zM749 760v-114h90v114h-90zM98 729v-729h96v610l323 -610h133v729h-96v-610l-323 610h-133z" />
    <glyph glyph-name="uni01CC" unicode="&#x1cc;" horiz-adv-x="797" 
d="M643 547v-557q0 -74 -18 -98q-19 -24 -70 -24h-24v-76h34q89 0 128 47q40 46 40 151v557h-90zM643 760v-114h90v114h-90zM549 330q0 113 -48.5 171.5t-142.5 58.5q-113 0 -177 -98v85h-90v-547h90v309q0 81 42 127q43 46 115 46q121 0 121 -155v-327h90v330z" />
    <glyph glyph-name="uni01CD" unicode="&#x1cd;" horiz-adv-x="684" 
d="M342 632l134 -363h-268zM286 729l-278 -729h104l66 187h329l66 -187h103l-278 729h-112zM297 798h92l103 130h-68l-81 -87l-81 87h-68z" />
    <glyph glyph-name="uni01CE" unicode="&#x1ce;" horiz-adv-x="613" 
d="M343 275h89v-20q0 -89 -45 -141q-45 -53 -120 -53q-54 0 -85.5 28t-31.5 76q0 59 42 85q41 25 151 25zM522 312q0 248 -236 248q-86 0 -186 -38v-83q82 45 177 45q74 0 114.5 -34t40.5 -96v-9h-126q-246 0 -246 -186q0 -79 49 -126q50 -47 134 -47q129 0 189 97v-83h90
v312zM258 616h72l120 184h-68l-88 -120l-88 120h-68z" />
    <glyph glyph-name="uni01CF" unicode="&#x1cf;" horiz-adv-x="295" 
d="M98 729v-729h99v729h-99zM102 798h92l103 130h-68l-81 -87l-81 87h-68z" />
    <glyph glyph-name="uni01D0" unicode="&#x1d0;" horiz-adv-x="278" 
d="M94 547v-547h90v547h-90zM104 616h72l120 184h-68l-88 -120l-88 120h-68z" />
    <glyph glyph-name="uni01D1" unicode="&#x1d1;" horiz-adv-x="787" 
d="M394 662q107 0 170 -80t63 -218t-63 -218t-170 -80q-106 0 -171 80q-63 80 -63 218t63 218q65 80 171 80zM394 742q-155 0 -246 -103q-92 -103 -92 -275t92 -276q92 -102 246 -102t245 102q92 104 92 276t-92 275q-91 103 -245 103zM348 798h92l103 130h-68l-81 -87
l-81 87h-68z" />
    <glyph glyph-name="uni01D2" unicode="&#x1d2;" horiz-adv-x="612" 
d="M306 484q72 0 114 -57t42 -154q0 -99 -42 -154q-42 -57 -114 -57q-73 0 -115 56q-41 58 -41 155q0 99 42 154q42 57 114 57zM306 560q-118 0 -184 -76q-67 -76 -67 -211t67 -211q66 -76 184 -76t184 76q67 76 67 211t-67 211q-66 76 -184 76zM272 616h72l120 184h-68
l-88 -120l-88 120h-68z" />
    <glyph glyph-name="uni01D3" unicode="&#x1d3;" horiz-adv-x="732" 
d="M87 729v-455q0 -142 70.5 -215t208.5 -73t208.5 73t70.5 215v455h-99v-443q0 -117 -43 -169q-42 -51 -137 -51t-137 51q-43 52 -43 169v443h-99zM324 798h92l103 130h-68l-81 -87l-81 87h-68z" />
    <glyph glyph-name="uni01D4" unicode="&#x1d4;" horiz-adv-x="634" 
d="M85 216q0 -113 48.5 -171.5t143.5 -58.5q112 0 176 98v-84h90v547h-90v-310q0 -80 -42 -127q-43 -46 -115 -46q-121 0 -121 155v328h-90v-331zM272 616h72l120 184h-68l-88 -120l-88 120h-68z" />
    <glyph glyph-name="uni01D6" unicode="&#x1d6;" horiz-adv-x="634" 
d="M164 899v-72h292v72h-292zM85 216q0 -113 48.5 -171.5t143.5 -58.5q112 0 176 98v-84h90v547h-90v-310q0 -80 -42 -127q-43 -46 -115 -46q-121 0 -121 155v328h-90v-331zM356 758v-99h99v99h-99zM165 758v-99h99v99h-99z" />
    <glyph glyph-name="uni01DF" unicode="&#x1df;" horiz-adv-x="613" 
d="M144 899v-72h292v72h-292zM343 275h89v-20q0 -89 -45 -141q-45 -53 -120 -53q-54 0 -85.5 28t-31.5 76q0 59 42 85q41 25 151 25zM522 312q0 248 -236 248q-86 0 -186 -38v-83q82 45 177 45q74 0 114.5 -34t40.5 -96v-9h-126q-246 0 -246 -186q0 -79 49 -126
q50 -47 134 -47q129 0 189 97v-83h90v312zM336 758v-99h99v99h-99zM145 758v-99h99v99h-99z" />
    <glyph glyph-name="uni01E2" unicode="&#x1e2;" horiz-adv-x="974" 
d="M459 900v-72h292v72h-292zM901 729h-592l-305 -729h100l78 187h258v-187h470v83h-371v264h347v83h-347v216h362v83zM377 652h63v-383h-224z" />
    <glyph glyph-name="uni01E3" unicode="&#x1e3;" horiz-adv-x="982" 
d="M342 743v-72h292v72h-292zM839 322h-320q7 77 52 119.5t120 42.5q66 0 107 -44q39 -42 41 -118zM486 470q-26 43 -78.5 66.5t-121.5 23.5q-86 0 -186 -38v-83q82 45 177 45q74 0 114.5 -34t40.5 -96v-9h-126q-246 0 -246 -186q0 -81 51 -128q53 -45 144 -45
q139 0 211 117q75 -117 240 -117q104 0 202 42v85q-97 -52 -197 -52q-89 0 -139 48.5t-56 142.5h413v44q0 122 -64 193q-65 71 -175 71q-131 0 -204 -90zM343 275h89v-20q0 -89 -45 -141q-45 -53 -120 -53q-54 0 -85.5 28t-31.5 76q0 59 42 85q41 25 151 25z" />
    <glyph glyph-name="uni01EA" unicode="&#x1ea;" horiz-adv-x="787" 
d="M365 -8q-53 -60 -53 -105q0 -46 28 -67t88 -21q24 0 66 10v65q-30 -15 -61 -15q-53 0 -53 45q0 29 43 88h-58zM394 662q107 0 170 -80t63 -218t-63 -218t-170 -80q-106 0 -171 80q-63 80 -63 218t63 218q65 80 171 80zM394 742q-155 0 -246 -103q-92 -103 -92 -275
t92 -276q92 -102 246 -102t245 102q92 104 92 276t-92 275q-91 103 -245 103z" />
    <glyph glyph-name="uni01EB" unicode="&#x1eb;" horiz-adv-x="612" 
d="M277 -8q-53 -60 -53 -105q0 -46 28 -67t88 -21q24 0 66 10v65q-30 -15 -61 -15q-53 0 -53 45q0 29 43 88h-58zM306 484q72 0 114 -57t42 -154q0 -99 -42 -154q-42 -57 -114 -57q-73 0 -115 56q-41 58 -41 155q0 99 42 154q42 57 114 57zM306 560q-118 0 -184 -76
q-67 -76 -67 -211t67 -211q66 -76 184 -76t184 76q67 76 67 211t-67 211q-66 76 -184 76z" />
    <glyph glyph-name="uni01EC" unicode="&#x1ec;" horiz-adv-x="787" 
d="M394 742q-155 0 -246 -103q-92 -103 -92 -275t92 -276q82 -91 213 -101q-49 -56 -49 -100q0 -88 116 -88q25 0 67 10v65q-30 -15 -61 -15q-54 0 -54 45q0 28 39 83q137 8 220 101q92 104 92 276t-92 275q-91 103 -245 103zM394 662q107 0 170 -80t63 -218t-63 -218
t-170 -80q-106 0 -171 80q-63 80 -63 218t63 218q65 80 171 80zM248 899v-72h292v72h-292z" />
    <glyph glyph-name="uni01ED" unicode="&#x1ed;" horiz-adv-x="612" 
d="M306 560q-118 0 -184 -76q-67 -76 -67 -211t67 -211q58 -65 151 -74q-48 -57 -48 -101q0 -88 115 -88q25 0 67 10v65q-30 -15 -61 -15q-54 0 -54 45q0 28 39 83q101 8 159 75q67 76 67 211t-67 211q-66 76 -184 76zM306 484q72 0 114 -57t42 -154q0 -99 -42 -154
q-42 -57 -114 -57q-73 0 -115 56q-41 58 -41 155q0 99 42 154q42 57 114 57zM160 745v-73h292v73h-292z" />
    <glyph glyph-name="Scommaaccent" unicode="&#x218;" horiz-adv-x="635" 
d="M275 -64l-40 -157h63l80 157h-103zM535 705q-110 37 -213 37q-121 0 -188 -55q-68 -56 -68 -153q0 -83 49 -130q50 -47 160 -69l60 -12q75 -15 108 -45t33 -84q0 -62 -45.5 -95t-130.5 -33q-110 0 -231 68v-102q123 -46 231 -46q137 0 208 54.5t71 160.5q0 89 -52.5 142
t-162.5 74l-60 12q-80 15 -110 40q-29 24 -29 73q0 58 44 89t124 31q92 0 202 -53v96z" />
    <glyph glyph-name="scommaaccent" unicode="&#x219;" horiz-adv-x="521" 
d="M238 -64l-40 -157h63l80 157h-103zM443 531q-75 29 -175 29q-101 0 -155.5 -42t-54.5 -119q0 -64 37 -100t121 -54l31 -7q83 -18 108 -38q25 -19 25 -56q0 -40 -34 -61.5t-98 -21.5q-94 0 -194 52v-93q105 -34 192 -34q107 0 166 44q60 45 60 121q0 66 -40 104
q-40 37 -136 58l-31 7q-73 17 -96 34q-24 16 -24 49q0 82 134 82q87 0 164 -39v85z" />
    <glyph glyph-name="uni021A" unicode="&#x21a;" horiz-adv-x="611" 
d="M258 -64l-40 -157h63l80 157h-103zM-3 729v-83h259v-646h99v646h259v83h-617z" />
    <glyph glyph-name="uni021B" unicode="&#x21b;" horiz-adv-x="392" 
d="M217 -64l-40 -157h63l80 157h-103zM183 702h-90v-155h-66v-70h66v-297q0 -104 39 -141q40 -39 144 -39h92v75h-92q-56 0 -75 19q-18 20 -18 86v297h185v70h-185v155z" />
    <glyph glyph-name="uni022B" unicode="&#x22b;" horiz-adv-x="612" 
d="M160 899v-72h292v72h-292zM306 484q72 0 114 -57t42 -154q0 -99 -42 -154q-42 -57 -114 -57q-73 0 -115 56q-41 58 -41 155q0 99 42 154q42 57 114 57zM306 560q-118 0 -184 -76q-67 -76 -67 -211t67 -211q66 -76 184 -76t184 76q67 76 67 211t-67 211q-66 76 -184 76z
M352 758v-99h99v99h-99zM161 758v-99h99v99h-99z" />
    <glyph glyph-name="uni022D" unicode="&#x22d;" horiz-adv-x="612" 
d="M160 899v-72h292v72h-292zM306 484q72 0 114 -57t42 -154q0 -99 -42 -154q-42 -57 -114 -57q-73 0 -115 56q-41 58 -41 155q0 99 42 154q42 57 114 57zM306 560q-118 0 -184 -76q-67 -76 -67 -211t67 -211q66 -76 184 -76t184 76q67 76 67 211t-67 211q-66 76 -184 76z
M304 669q33 -30 68 -30q44 0 69 36t26 102h-61q-1 -76 -37 -76q-13 0 -33 19l-28 27q-33 30 -68 30q-44 0 -69 -36t-26 -102h61q2 40 10 58t27 18q13 0 33 -19z" />
    <glyph glyph-name="uni022E" unicode="&#x22e;" horiz-adv-x="787" 
d="M344 914v-100h100v100h-100zM394 662q107 0 170 -80t63 -218t-63 -218t-170 -80q-106 0 -171 80q-63 80 -63 218t63 218q65 80 171 80zM394 742q-155 0 -246 -103q-92 -103 -92 -275t92 -276q92 -102 246 -102t245 102q92 104 92 276t-92 275q-91 103 -245 103z" />
    <glyph glyph-name="uni022F" unicode="&#x22f;" horiz-adv-x="612" 
d="M256 758v-100h100v100h-100zM306 484q72 0 114 -57t42 -154q0 -99 -42 -154q-42 -57 -114 -57q-73 0 -115 56q-41 58 -41 155q0 99 42 154q42 57 114 57zM306 560q-118 0 -184 -76q-67 -76 -67 -211t67 -211q66 -76 184 -76t184 76q67 76 67 211t-67 211q-66 76 -184 76z
" />
    <glyph glyph-name="uni0231" unicode="&#x231;" horiz-adv-x="612" 
d="M160 899v-72h292v72h-292zM256 758v-100h100v100h-100zM306 484q72 0 114 -57t42 -154q0 -99 -42 -154q-42 -57 -114 -57q-73 0 -115 56q-41 58 -41 155q0 99 42 154q42 57 114 57zM306 560q-118 0 -184 -76q-67 -76 -67 -211t67 -211q66 -76 184 -76t184 76
q67 76 67 211t-67 211q-66 76 -184 76z" />
    <glyph glyph-name="uni0232" unicode="&#x232;" horiz-adv-x="611" 
d="M160 899v-72h292v72h-292zM-2 729l258 -382v-347h99v347l258 382h-106l-201 -300l-202 300h-106z" />
    <glyph glyph-name="uni0233" unicode="&#x233;" horiz-adv-x="592" 
d="M150 745v-72h292v72h-292zM322 -51l240 598h-95l-171 -428l-171 428h-95l221 -538l-16 -41q-26 -67 -46 -83q-19 -18 -57 -18h-53v-75h72q61 0 97 30q36 31 74 127z" />
    <glyph glyph-name="dotlessj" unicode="&#x237;" horiz-adv-x="278" 
d="M94 547v-557q0 -74 -18 -98q-19 -24 -70 -24h-24v-76h34q89 0 128 47q40 46 40 151v557h-90z" />
    <glyph glyph-name="uni0250" unicode="&#x250;" horiz-adv-x="613" 
d="M239 271h-89v20q0 87 45 141q45 53 120 53q54 0 85 -28q32 -29 32 -76q0 -61 -42 -85q-41 -25 -151 -25zM60 234q0 -248 236 -248q44 0 90 9q44 9 96 29v83q-82 -45 -177 -45q-74 0 -115 34q-40 35 -40 96v9h126q124 0 184 47q62 47 62 139q0 77 -49 126q-52 47 -134 47
q-67 0 -112 -24q-46 -22 -77 -73v83h-90v-312z" />
    <glyph glyph-name="uni0251" unicode="&#x251;" horiz-adv-x="635" 
d="M454 464q-29 50 -71 72q-44 24 -104 24q-99 0 -162 -79q-62 -80 -62 -208t62 -208q63 -79 162 -79q61 0 104 24q42 22 71 72v-82h90v547h-90v-83zM148 273q0 98 40 156q42 56 113 56t112 -56q41 -58 41 -156t-41 -156q-41 -56 -112 -56t-113 56q-40 58 -40 156z" />
    <glyph glyph-name="uni0252" unicode="&#x252;" horiz-adv-x="635" 
d="M145 82q29 -50 72 -72q43 -24 103 -24q100 0 161 79q63 79 63 208t-63 208q-61 79 -161 79q-60 0 -103 -24q-43 -22 -72 -72v82h-90v-547h90v83zM451 273q0 -98 -41 -156q-41 -56 -112 -56t-112 56q-41 58 -41 156t41 156q41 56 112 56t112 -56q41 -58 41 -156z" />
    <glyph glyph-name="uni0253" unicode="&#x253;" horiz-adv-x="635" 
d="M181 464v98q0 72 18 98q16 24 70 24h114v76h-124q-89 0 -128 -47q-40 -46 -40 -151v-562h90v82q29 -50 72 -72q43 -24 103 -24q99 0 162 79q62 80 62 208t-62 208q-63 79 -162 79q-60 0 -103 -24q-43 -22 -72 -72zM487 273q0 -98 -41 -156q-41 -56 -112 -56t-112 56
q-41 58 -41 156t41 156q41 56 112 56t112 -56q41 -58 41 -156z" />
    <glyph glyph-name="uni0254" unicode="&#x254;" horiz-adv-x="550" 
d="M55 526v-84q36 19 77 32q42 10 77 10q86 0 136 -55q48 -55 48 -156t-48 -156q-50 -55 -136 -55q-41 0 -77 10q-41 13 -77 32v-83q39 -19 78 -26q41 -9 86 -9q124 0 196 77q73 79 73 210q0 133 -74 210q-73 77 -201 77q-39 0 -81 -8q-36 -8 -77 -26z" />
    <glyph glyph-name="uni0255" unicode="&#x255;" horiz-adv-x="550" 
d="M268 71q24 55 73 55q64 0 64 -36q0 -28 -71 -28q-38 0 -66 9zM250 -8q38 -8 75 -8q163 0 163 91v1q-2 120 -147 120q-95 0 -136 -86l-7 7q-48 55 -48 156t48 156q49 55 136 55q35 0 77 -10q42 -12 77 -32v84q-36 16 -77 26q-43 8 -81 8q-128 0 -201 -77q-74 -77 -74 -210
q0 -129 73 -210q22 -24 51 -42q-6 -40 -6 -91l75 1q0 25 2 61z" />
    <glyph glyph-name="uni0256" unicode="&#x256;" horiz-adv-x="635" 
d="M454 464q-29 50 -71 72q-44 24 -104 24q-99 0 -162 -79q-62 -80 -62 -208t62 -208q63 -79 162 -79q61 0 104 24q42 22 71 72v-92q0 -105 40 -151q41 -47 128 -47h34v76h-24q-50 0 -70 24q-18 24 -18 98v770h-90v-296zM148 273q0 98 40 156q42 56 113 56t112 -56
q41 -58 41 -156t-41 -156q-41 -56 -112 -56t-113 56q-40 58 -40 156z" />
    <glyph glyph-name="uni0257" unicode="&#x257;" horiz-adv-x="727" 
d="M544 562q0 72 18 98q18 24 70 24h114v76h-124q-87 0 -128 -47q-40 -46 -40 -151v-98q-29 50 -71 72q-44 24 -104 24q-99 0 -162 -79q-62 -80 -62 -208t62 -208q63 -79 162 -79q61 0 104 24q42 22 71 72v-82h90v562zM148 273q0 98 40 156q42 56 113 56t112 -56
q41 -58 41 -156t-41 -156q-41 -56 -112 -56t-113 56q-40 58 -40 156z" />
    <glyph glyph-name="uni0258" unicode="&#x258;" horiz-adv-x="615" 
d="M55 296v-44h413q-6 -94 -56 -142t-139 -48q-54 0 -100 13q-47 11 -97 38v-85q97 -42 202 -42q132 0 207 76q77 76 77 206q0 136 -73 213q-72 79 -195 79q-111 0 -175 -71q-64 -72 -64 -193zM145 322q1 74 42 118q39 44 106 44q76 0 120 -43q46 -43 52 -119h-320z" />
    <glyph glyph-name="uni0259" unicode="&#x259;" horiz-adv-x="615" 
d="M55 250q0 -121 64 -193q64 -71 175 -71q123 0 195 78q73 79 73 214q0 130 -77 206q-75 76 -207 76q-101 0 -202 -42v-85q50 27 97 38q52 13 100 13q89 0 139 -48t56 -142h-413v-44zM145 224h320q-6 -75 -52 -120q-45 -42 -120 -42q-67 0 -106 44q-41 44 -42 118z" />
    <glyph glyph-name="uni025A" unicode="&#x25a;" horiz-adv-x="795" 
d="M413 104q-37 -42 -120 -42q-67 0 -106 44q-16 16 -31 51l302 174q4 -34 4 -51v-7v-3q0 -99 -49 -166zM547 382l68 40q0 -98 40 -142q44 -47 128 -47h31v77h-21q-52 0 -69 23q-19 23 -19 99v72h-90l-99 -57q-16 23 -31 37q-75 76 -207 76q-56 0 -103 -11q-55 -12 -99 -31
v-85q50 27 97 38q46 11 100 13h3q100 0 136 -48q11 -15 23 -37l-374 -216q14 -77 58 -126q64 -71 175 -71q123 0 195 78q73 79 73 214q0 58 -15 104z" />
    <glyph glyph-name="uni025B" unicode="&#x25b;" horiz-adv-x="541" 
d="M193 295q-61 -12 -94.5 -47.5t-33.5 -88.5q0 -84 63 -129q62 -44 179 -44q42 0 81 7q36 5 85 20v84q-28 -16 -77 -28q-36 -8 -86 -8q-74 0 -116 27q-41 27 -41 71q0 43 38 70q35 25 102 25h73v75h-76q-56 0 -89 21q-34 23 -34 56q0 31 35 54q32 22 91 22q35 0 75 -6
q33 -5 86 -20v81q-96 24 -168 24q-96 0 -151 -39q-55 -37 -55 -107q0 -47 29 -77q28 -31 84 -43z" />
    <glyph glyph-name="uni025C" unicode="&#x25c;" horiz-adv-x="545" 
d="M355 296q60 14 90 44q32 32 32 77q0 67 -60 104q-60 39 -162 39q-39 0 -84 -6q-38 -5 -96 -17v-82q39 10 93 20q35 5 79 5q70 0 104 -21q36 -21 36 -57q0 -29 -35 -50q-34 -22 -102 -22h-80v-70h77q73 0 114 -27q42 -27 42 -66q0 -48 -45 -74q-44 -26 -128 -26
q-48 0 -93 9q-46 9 -82 25v-84q98 -28 177 -28q124 0 192 45q68 43 68 126q0 53 -36 89q-36 37 -101 47z" />
    <glyph glyph-name="uni025D" unicode="&#x25d;" horiz-adv-x="765" 
d="M355 296q60 14 90 44l3 3l137 79q0 -98 40 -142q42 -47 128 -47h31v77h-21q-51 0 -70 23q-18 24 -18 99v72h-90l-110 -64q-9 50 -58 81q-60 39 -162 39q-39 0 -84 -6q-38 -5 -96 -17v-82q39 10 93 20q35 5 79 5q70 0 104 -21q36 -21 36 -57q0 -29 -35 -50
q-34 -22 -102 -22h-80v-70h77q73 0 114 -27q42 -27 42 -66q0 -48 -45 -74q-44 -26 -128 -26q-48 0 -93 9q-46 9 -82 25v-84q46 -15 91 -21q52 -7 86 -7q124 0 192 45q68 43 68 126q0 53 -36 89q-36 37 -101 47z" />
    <glyph glyph-name="uni025E" unicode="&#x25e;" horiz-adv-x="682" 
d="M377 480q77 0 113 -26q41 -29 41 -67q0 -39 -38 -65q-20 -14 -112 -14h-89v-77h89q91 0 112 -15q38 -25 38 -64q0 -37 -41 -68q-37 -26 -113 -26q-221 2 -221 218q1 204 221 204zM234 537q-179 -72 -179 -266q0 -167 179 -262q56 -30 148 -30h4q112 0 178 43
q65 42 65 114q0 50 -34.5 85t-98.5 49q64 13 98.5 47.5t34.5 84.5q0 73 -65 115t-178 42q-94 0 -152 -22z" />
    <glyph glyph-name="uni025F" unicode="&#x25f;" horiz-adv-x="363" 
d="M94 0v-10q0 -74 -18 -98q-19 -24 -70 -24h-24v-76h34q88 0 129 47q39 47 39 151v10h86v70h-86v477h-90v-477h-88v-70h88z" />
    <glyph glyph-name="uni0260" unicode="&#x260;" horiz-adv-x="637" 
d="M454 547h-175q-100 0 -162 -77t-62 -190q0 -126 62 -203q61 -77 162 -77q119 0 175 96v-44q0 -93 -44 -140q-43 -46 -132 -46q-80 0 -157 42v-87q36 -14 82 -22q38 -7 89 -7q127 0 190 68q62 70 62 208v494q0 74 18 98q20 24 70 24h24v76h-34q-87 0 -128 -47
q-40 -46 -40 -151v-15zM454 280q0 -98 -40 -151q-40 -54 -113 -54t-113 54q-40 55 -40 151q0 97 40 151t113 54h153v-205z" />
    <glyph glyph-name="uni0261" unicode="&#x261;" horiz-adv-x="635" 
d="M454 280q0 -98 -40 -151q-40 -54 -113 -54t-113 54q-40 55 -40 151q0 97 40 151t113 54h153v-205zM544 547h-265q-100 0 -162 -77t-62 -190q0 -126 62 -203q61 -77 162 -77q119 0 175 96v-44q0 -93 -44 -140q-43 -46 -132 -46q-80 0 -157 42v-87q36 -14 82 -22
q38 -7 89 -7q127 0 190 68q62 70 62 208v479z" />
    <glyph glyph-name="uni0262" unicode="&#x262;" horiz-adv-x="629" 
d="M458 87q-41 -11 -124 -11q-88 0 -136 56q-48 54 -48 155t48 155q48 56 136 56q38 0 77 -11q50 -11 113 -50v84q-65 37 -113 44q-51 9 -81 9q-128 0 -201 -76q-74 -79 -74 -211q0 -131 73 -209q72 -78 196 -78q100 0 137 9q40 9 78 26v258h-157v-68h76v-138z" />
    <glyph glyph-name="uni0263" unicode="&#x263;" horiz-adv-x="685" 
d="M411 279l192 268h-106l-143 -195l-147 195h-106l193 -264q-140 -211 -140 -376v-2q1 -115 200 -115h7q188 3 188 115q0 157 -138 374zM352 221q99 -164 99 -283v-1q-2 -68 -100 -68q-105 0 -105 68v3q0 133 106 281z" />
    <glyph glyph-name="uni0264" unicode="&#x264;" horiz-adv-x="592" 
d="M241 286q-90 -117 -90 -204q0 -82 148 -82q139 0 139 81v1q0 81 -87 199l198 266h-106l-145 -195l-145 195h-106zM294 215q58 -74 58 -106q0 -51 -56 -51q-60 0 -60 51q0 30 58 106z" />
    <glyph glyph-name="uni0265" unicode="&#x265;" horiz-adv-x="634" 
d="M85 216q0 -113 48.5 -171.5t143.5 -58.5q57 0 100 24q42 23 76 74v-292h90v755h-90v-310q0 -80 -42 -127q-43 -46 -115 -46q-61 0 -91 39q-30 37 -30 116v328h-90v-331z" />
    <glyph glyph-name="uni0266" unicode="&#x266;" horiz-adv-x="634" 
d="M181 462v100q0 74 18 98t70 24h114v76h-124q-89 0 -128 -47q-40 -46 -40 -151v-562h90v309q0 81 42 127q43 46 115 46q121 0 121 -155v-327h90v330q0 114 -49 172q-48 58 -142 58q-58 0 -101 -24q-42 -23 -76 -74z" />
    <glyph glyph-name="uni0267" unicode="&#x267;" horiz-adv-x="634" 
d="M181 462v100q0 74 18 98t70 24h114v76h-124q-89 0 -128 -47q-40 -46 -40 -151v-562h90v309q0 81 42 127q43 46 115 46q61 0 91 -39t30 -116v-337q0 -75 -19 -98q-18 -24 -69 -24h-114v-76h124q87 0 128 47q40 46 40 151v340q0 114 -49 172q-48 58 -142 58q-58 0 -101 -24
q-42 -23 -76 -74z" />
    <glyph glyph-name="uni0268" unicode="&#x268;" horiz-adv-x="372" 
d="M57 221h88v-221h89v221h80v80h-80v246h-89v-246h-88v-80zM145 760v-114h89v114h-89z" />
    <glyph glyph-name="uni0269" unicode="&#x269;" horiz-adv-x="387" 
d="M184 547h-90v-349q0 -105 40 -151q41 -47 128 -47h34v76h-24q-51 0 -69 24q-19 23 -19 98v349z" />
    <glyph glyph-name="uni026A" unicode="&#x26a;" horiz-adv-x="372" 
d="M57 467h86v-387h-86v-80h257v80h-82v387h82v80h-257v-80z" />
    <glyph glyph-name="uni026B" unicode="&#x26b;" horiz-adv-x="487" 
d="M204 760v-317q-11 3 -23 3q-45 0 -69 -36q-26 -37 -26 -102h61q0 38 10 58q9 18 27 18q5 0 15 -5q1 -1 5 -3v-376h90v310q12 -2 19 -2q45 0 69 36q26 37 26 102h-61q0 -38 -10 -58q-7 -18 -27 -18q-5 0 -15 5h-1v385h-90z" />
    <glyph glyph-name="uni026C" unicode="&#x26c;" horiz-adv-x="487" 
d="M204 760v-254q-21 12 -46 12q-120 0 -120 -120v-1q0 -91 136 -91h30v-15v-291h90v306h122v78h-122v376h-90zM196 384h-31q-45 0 -45 28q2 36 38 36q28 0 38 -64z" />
    <glyph glyph-name="uni026D" unicode="&#x26d;" horiz-adv-x="278" 
d="M94 -10q0 -105 40 -151q41 -47 128 -47h34v76h-24q-51 0 -69 24q-19 23 -19 98v770h-90v-770z" />
    <glyph glyph-name="uni026E" unicode="&#x26e;" horiz-adv-x="706" 
d="M408 232l200 233v82h-424v213h-90v-760h90v475h323l-210 -244v-81h85q82 0 126 -36q45 -36 45 -101q0 -70 -49 -106q-47 -37 -141 -37q-53 0 -102 12q-53 15 -90 36v-95q54 -18 101 -27q48 -9 94 -9q137 0 211 59q74 60 74 167q0 69 -39 118q-41 52 -90 74
q-63 27 -114 27z" />
    <glyph glyph-name="uni026F" unicode="&#x26f;" horiz-adv-x="974" 
d="M460 105q19 -56 61 -87q43 -31 102 -31q57 0 102 25q42 22 74 74v-85h90v547h-90v-310q0 -77 -41 -126q-41 -47 -109 -47q-58 0 -86 38t-28 118v327h-90v-310q0 -79 -41 -126t-110 -47q-113 0 -113 156v327h-90v-330q0 -110 46.5 -170.5t131.5 -60.5q63 0 110 30
q46 27 81 88z" />
    <glyph glyph-name="uni0270" unicode="&#x270;" horiz-adv-x="974" 
d="M460 105q19 -56 61 -87q43 -31 102 -31q115 0 176 98v-293h90v755h-90v-309q0 -79 -41 -126t-109 -47q-57 0 -86 39q-28 35 -28 116v327h-90v-309q0 -79 -41 -126t-110 -47q-113 0 -113 155v327h-90v-330q0 -111 46 -170q47 -60 132 -60q125 0 191 118z" />
    <glyph glyph-name="uni0271" unicode="&#x271;" horiz-adv-x="974" 
d="M520 442q-40 118 -163 118q-59 0 -102 -24t-74 -74v85h-90v-547h90v309q0 78 41 127q41 46 109 46q57 0 86 -38q28 -37 28 -117v-327h90v309q0 80 41 127q41 46 110 46q56 0 85 -38q28 -38 28 -117v-93v-162v-82q0 -74 -18 -98t-70 -24h-114v-76h124q89 0 128 47
q40 46 40 151v340q0 111 -46 170q-47 60 -132 60q-63 0 -110 -29q-48 -28 -81 -89z" />
    <glyph glyph-name="uni0272" unicode="&#x272;" horiz-adv-x="646" 
d="M184 -10l1 319q0 81 42 127q41 46 114 46q121 0 121 -155v-327h90v330q0 113 -48 172q-48 58 -143 58q-57 0 -100 -24q-44 -23 -76 -74v85h-91v-557q0 -74 -18 -98q-19 -24 -70 -24h-24v-76h34q88 0 129 47q39 47 39 151z" />
    <glyph glyph-name="uni0273" unicode="&#x273;" horiz-adv-x="642" 
d="M459 327v-337q0 -105 40 -151q39 -47 128 -47h34v76h-24q-51 0 -70 24q-18 24 -18 98v340q0 114 -49 172q-48 58 -142 58q-58 0 -101 -24q-42 -23 -76 -74v85h-90v-547h90v309q0 81 42 127q43 46 115 46q61 0 91 -39t30 -116z" />
    <glyph glyph-name="uni0274" unicode="&#x274;" horiz-adv-x="634" 
d="M87 560v-560h96v441l233 -441h133v560h-96v-441l-233 441h-133z" />
    <glyph glyph-name="uni0275" unicode="&#x275;" horiz-adv-x="612" 
d="M306 560q-117 0 -184 -76q-67 -78 -67 -211t67 -211q67 -76 184 -76q118 0 184 76q67 76 67 211t-67 211q-66 76 -184 76zM306 484q72 0 114 -57q37 -50 41 -129h-310q5 82 41 130q42 56 114 56zM458 218q-9 -59 -38 -99q-42 -57 -114 -57q-73 0 -115 56q-30 42 -37 100
h304z" />
    <glyph glyph-name="uni0276" unicode="&#x276;" horiz-adv-x="858" 
d="M761 547h-384q-158 0 -240 -70t-82 -203q0 -134 82 -205q81 -69 240 -69h391v76h-279v178h261v76h-261v142h272v75zM398 483v-422h-18q-117 0 -176 53q-58 52 -58 159q0 106 58 158t176 52h18z" />
    <glyph glyph-name="uni0277" unicode="&#x277;" horiz-adv-x="728" 
d="M194 381q48 78 166 78q124 0 176 -78q28 -45 30 -57q9 -58 10 -87q-9 -89 -26 -112q-32 -42 -68 -42q-37 0 -64 39q-15 21 -15 111v89h-76v-89q0 -90 -15 -111q-27 -39 -64 -39q-38 0 -67 42q-23 32 -27 112v11q0 32 10 76q2 10 30 57zM100 381q-8 -27 -18 -60
q-4 -74 -7 -92v-21q0 -93 43 -157q42 -66 114 -66q50 0 85 35t48 99q13 -64 48.5 -99t85.5 -35q71 0 114 66q42 64 42 178q0 47 -7 92q-2 2 -20 60q-59 179 -263 179h-2q-216 0 -263 -179z" />
    <glyph glyph-name="uni0278" unicode="&#x278;" horiz-adv-x="612" 
d="M260 679v-122q-86 -14 -138 -73q-67 -78 -67 -211t67 -211q52 -59 138 -73v-116h-117v-81h324v81h-117v116q88 12 140 73q67 76 67 211t-67 211q-52 61 -140 73v122h117v80h-324v-80h117zM350 478q42 -12 70 -51q42 -57 42 -154q0 -99 -42 -154q-28 -39 -70 -51v410z
M260 69q-41 12 -69 49q-41 58 -41 155q0 98 42 155q28 37 68 49v-408z" />
    <glyph glyph-name="uni0279" unicode="&#x279;" horiz-adv-x="469" 
d="M55 84l1 -92q9 -2 25 -4q7 -1 20 -1q65 0 110 24q45 23 74 74v-85h90v547h-90v-288q0 -93 -41 -143q-40 -49 -117 -49q-23 0 -39 4q-19 5 -33 13z" />
    <glyph glyph-name="uni027A" unicode="&#x27a;" horiz-adv-x="469" 
d="M55 84l1 -92q9 -2 25 -4q7 -1 20 -1q65 0 110 24q45 23 74 74v-85h90v755h-90v-496q0 -91 -41 -143q-39 -49 -117 -49q-23 0 -39 4q-19 5 -33 13z" />
    <glyph glyph-name="uni027B" unicode="&#x27b;" horiz-adv-x="469" 
d="M55 84l1 -92q9 -2 25 -4q7 -1 20 -1q65 0 110 24q45 23 74 74l1 -95q0 -105 40 -151q39 -47 128 -47h34v76h-24q-52 0 -70 24q-19 25 -19 98v557h-90v-288q0 -93 -41 -143q-40 -49 -117 -49q-23 0 -39 4q-19 5 -33 13z" />
    <glyph glyph-name="uni027C" unicode="&#x27c;" horiz-adv-x="469" 
d="M375 463v92q-5 1 -25 4q-7 1 -20 1q-64 0 -111 -24q-44 -23 -73 -74v85h-91v-755h91v496q0 93 41 143q40 49 116 49q24 0 40 -4q19 -5 32 -13z" />
    <glyph glyph-name="uni027D" unicode="&#x27d;" horiz-adv-x="469" 
d="M375 463v92q-5 1 -25 4q-7 1 -20 1q-64 0 -111 -24q-44 -23 -73 -74v85h-91v-557q0 -105 40 -151q39 -47 128 -47h124v76h-114q-52 0 -70 24t-18 98v10h1v288q0 95 41 143q40 49 116 49q24 0 40 -4q19 -5 32 -13z" />
    <glyph glyph-name="uni027E" unicode="&#x27e;" horiz-adv-x="440" 
d="M55 0h90v288v74v5q0 71 18 93q18 24 70 24h114v76h-124q-89 0 -128 -47q-40 -47 -40 -151v-362z" />
    <glyph glyph-name="uni027F" unicode="&#x27f;" horiz-adv-x="440" 
d="M347 362q0 102 -40 151q-41 47 -128 47h-124v-76h113q52 0 70 -24q19 -24 19 -93v-5l-1 -74v-288h91v362z" />
    <glyph glyph-name="uni0280" unicode="&#x280;" horiz-adv-x="602" 
d="M318 256q107 28 107 133q0 78 -52 119q-54 39 -159 39h-190v-547h91v231h82q47 0 76 -18t60 -73l79 -140h95l-85 149q-25 45 -51 73q-27 27 -53 34zM115 471h96q58 0 89 -20q32 -21 32 -62q0 -40 -32 -61q-28 -21 -89 -21h-96v164z" />
    <glyph glyph-name="uni0281" unicode="&#x281;" horiz-adv-x="602" 
d="M318 291q26 7 53 34q25 27 51 72l85 150h-95l-79 -140q-31 -55 -60 -73t-76 -18h-82v231h-91v-547h190q105 0 159 39q52 40 52 119q0 105 -107 133zM115 76v164h96q59 0 89 -21q32 -21 32 -61q0 -41 -32 -62q-31 -20 -89 -20h-96z" />
    <glyph glyph-name="uni0282" unicode="&#x282;" horiz-adv-x="521" 
d="M443 531q-35 14 -81 22q-41 7 -94 7q-101 0 -155 -42q-55 -42 -55 -119q0 -64 37 -100q38 -36 121 -54l31 -7q83 -18 108 -38q25 -19 25 -56q0 -40 -34 -61q-34 -22 -98 -22q-48 0 -96 13q-49 14 -98 39v-123q0 -105 40 -151q41 -47 128 -47h124v76h-114q-51 0 -69 24
q-19 23 -19 98v6l10 -2q51 -8 92 -8q107 0 166 44q60 45 60 121q0 66 -40 104q-40 37 -136 58l-31 7q-73 17 -96 34q-24 16 -24 49q0 42 34 61q33 21 100 21q38 0 85 -10q38 -8 79 -29v85z" />
    <glyph glyph-name="uni0283" unicode="&#x283;" horiz-adv-x="336" 
d="M94 -10q0 -74 -18 -98q-19 -24 -70 -24h-24v-76h34q88 0 129 47q39 47 39 151l-1 605q0 51 19 71q18 19 67 19h86v75h-85q-94 0 -135 -42q-42 -45 -42 -133q0 -95 0.5 -293.5t0.5 -301.5z" />
    <glyph glyph-name="uni0284" unicode="&#x284;" horiz-adv-x="381" 
d="M51 0h88v-10q0 -74 -18 -98q-20 -24 -70 -24h-24v-76h34q89 0 128 47q40 46 40 151v10h86v70h-86l-1 525q0 51 19 71q18 19 67 19h86v75h-85q-95 0 -135 -42q-42 -45 -42 -133v-38h-86v-70h87v-407h-88v-70z" />
    <glyph glyph-name="uni0285" unicode="&#x285;" horiz-adv-x="461" 
d="M288 -10q0 356 1 385v10q0 79 -42 122q-41 42 -135 42h-85v-74h86q47 0 67 -20q19 -21 19 -70l-1 -395v-4q0 -100 39 -147q41 -47 129 -47h34v76h-24q-52 0 -70 24t-18 98z" />
    <glyph glyph-name="uni0286" unicode="&#x286;" horiz-adv-x="336" 
d="M88 -75q-5 -25 -12 -33q-16 -24 -70 -24q-60 0 -62 32v1q0 24 56 24h88zM184 0l-1 595q0 51 19 71q18 19 67 19h86v75h-85q-94 0 -135 -42q-42 -45 -42 -133v-585h-93q-132 0 -132 -103q0 -105 148 -105q88 0 129 47q25 31 34 85h93v76h-88z" />
    <glyph glyph-name="uni0287" unicode="&#x287;" horiz-adv-x="392" 
d="M212 -155h90v155h66v70h-66v297q0 102 -39 141q-41 39 -144 39h-92v-75h92q55 0 74 -19t19 -86v-297h-185v-70h185v-155z" />
    <glyph glyph-name="uni0288" unicode="&#x288;" horiz-adv-x="392" 
d="M183 702h-90v-155h-66v-70h66v-504q0 -103 39 -142q40 -39 144 -39h92v76h-92q-57 0 -75 19q-18 18 -18 86v504h185v70h-185v155z" />
    <glyph glyph-name="uni0289" unicode="&#x289;" horiz-adv-x="634" 
d="M0 221h85v-5q0 -114 49 -172t143 -58q57 0 100 24q42 23 76 74v-84h90v221h91v80h-91v246h-90v-246h-278v246h-90v-246h-85v-80zM453 221q-5 -69 -42 -111q-43 -46 -115 -46q-61 0 -91 39q-30 37 -30 116v2h278z" />
    <glyph glyph-name="uni028A" unicode="&#x28a;" horiz-adv-x="618" 
d="M55 467h116q-58 -51 -84 -104q-25 -51 -25 -124q0 -113 69 -183q69 -71 179 -71t179 72q70 70 70 186q0 66 -27 120t-83 104h115v80h-212v-108q49 -31 83 -85q32 -47 32 -120q0 -78 -43 -125q-42 -47 -113 -47q-69 0 -113 47q-43 47 -43 125q0 65 32 120q32 53 84 85v108
h-216v-80z" />
    <glyph glyph-name="uni028B" unicode="&#x28b;" horiz-adv-x="598" 
d="M278 481q18 -4 60 -27q46 -28 83 -85q33 -49 33 -120q0 -76 -43 -125q-43 -47 -114 -47l-25 -1h-2q-49 0 -67 24q-19 23 -19 98v349h-90v-349q0 -105 40 -151q41 -47 128 -47h34q109 0 180 71q69 72 69 186q0 66 -26 120q-30 58 -83 104h-158z" />
    <glyph glyph-name="uni028C" unicode="&#x28c;" horiz-adv-x="592" 
d="M562 0l-205 547h-122l-205 -547h95l171 459l171 -459h95z" />
    <glyph glyph-name="uni028D" unicode="&#x28d;" horiz-adv-x="818" 
d="M776 0l-143 547h-106l-118 -448l-118 448h-106l-143 -547h90l112 427l112 -427h106l112 427l112 -427h90z" />
    <glyph glyph-name="uni028E" unicode="&#x28e;" horiz-adv-x="592" 
d="M270 598l-240 -598h95l171 428l171 -428h95l-221 538l16 41q25 64 45 83q21 18 58 18h53v75h-72q-61 0 -97 -30q-37 -31 -74 -127z" />
    <glyph glyph-name="uni028F" unicode="&#x28f;" horiz-adv-x="611" 
d="M50 561l199 -305v-256h99v256l204 305h-106l-147 -223l-143 223h-106z" />
    <glyph glyph-name="uni0290" unicode="&#x290;" horiz-adv-x="525" 
d="M55 547v-72h326l-338 -393v-82h348v-10q0 -105 40 -151q41 -47 128 -47h34v76h-24q-51 0 -69 24q-19 23 -19 98v10h1v72h-338l338 393v82h-427z" />
    <glyph glyph-name="uni0291" unicode="&#x291;" horiz-adv-x="525" 
d="M294 0h20q163 0 163 91v1q0 120 -111 120q-107 0 -137 -140h-85l338 393v82h-427v-72h326l-338 -393v-82h177q-2 -34 -2 -54h75q0 37 1 54zM305 72q17 70 60 71q34 0 34 -45q0 -26 -85 -26h-9z" />
    <glyph glyph-name="uni0292" unicode="&#x292;" horiz-adv-x="578" 
d="M279 232l201 233v82h-427v-72h326l-210 -244v-81h85q81 0 126 -36t45 -101q0 -70 -49 -106q-47 -37 -141 -37q-107 0 -192 48v-95q54 -18 101 -27q48 -9 94 -9q135 0 211 59q74 60 74 167q0 69 -40 118q-38 51 -89 74q-63 27 -115 27z" />
    <glyph glyph-name="uni0293" unicode="&#x293;" horiz-adv-x="578" 
d="M238 -213q135 0 211 59l9 8q20 -26 20 -67h75q0 81 -49 130q19 39 19 96q0 69 -40 118q-39 52 -89 74q-63 27 -115 27l201 233v82h-427v-72h326l-210 -244v-81h85q80 0 126 -36q45 -36 45 -101q0 -24 -6 -44q-75 28 -197 31h-6q-139 0 -141 -121v-1q0 -91 163 -91z
M379 -91l-3 -2q-47 -37 -141 -37q-77 0 -77 23q0 37 64 37q97 0 157 -21z" />
    <glyph glyph-name="uni0294" unicode="&#x294;" horiz-adv-x="510" 
d="M167 390v-390h98v318q81 15 138 73q53 58 53 139q0 92 -54 152q-68 77 -201 77q-42 0 -81 -9q-35 -6 -77 -25v-84q35 19 76 31q41 11 78 11q86 0 136 -56q26 -31 28 -97q0 -48 -28 -85q-42 -55 -136 -55h-30z" />
    <glyph glyph-name="uni0295" unicode="&#x295;" horiz-adv-x="510" 
d="M332 390h-30q-94 0 -136 55q-28 37 -28 85q0 66 28 97q48 56 136 56q38 0 77 -11q39 -10 77 -31v84q-41 18 -77 25q-39 9 -81 9q-135 0 -201 -77q-54 -60 -54 -152q0 -81 53 -139q55 -58 137 -73v-318h99v390z" />
    <glyph glyph-name="uni0296" unicode="&#x296;" horiz-adv-x="510" 
d="M166 369h31q95 0 136 -56q28 -35 28 -84q-2 -66 -28 -97q-50 -56 -136 -56q-37 0 -78 11q-41 12 -76 31v-84q42 -19 77 -25q39 -9 81 -9q134 0 201 77q54 60 54 152q0 81 -53 139q-57 59 -138 72v319h-99v-390z" />
    <glyph glyph-name="uni0297" unicode="&#x297;" horiz-adv-x="510" 
d="M43 531v-515q0 -92 54 -152q65 -77 201 -77q42 0 81 9q36 7 77 25v84q-38 -21 -77 -31q-39 -11 -77 -11q-88 0 -136 56q-28 31 -28 97v515q0 66 28 97q48 56 136 56q38 0 77 -11q39 -10 77 -31v84q-41 18 -77 25q-39 9 -81 9q-135 0 -201 -77q-54 -60 -54 -152z" />
    <glyph glyph-name="uni0298" unicode="&#x298;" horiz-adv-x="603" 
d="M135 276q0 68 50 118q48 49 117 49q68 0 117 -49q49 -50 49 -118q0 -69 -49 -117q-48 -48 -117 -48t-117 48q-50 47 -50 117zM46 276q0 -105 76 -180q76 -74 180 -74q106 0 180 74q74 76 74 180t-75 180t-179 76q-105 0 -180 -76q-76 -76 -76 -180zM246 277q0 -23 17 -39
q15 -16 38 -16q24 0 39 16q16 16 16 39t-15 39q-17 17 -39 17q-24 0 -39 -17q-17 -16 -17 -39z" />
    <glyph glyph-name="uni0299" unicode="&#x299;" horiz-adv-x="580" 
d="M186 259h110q45 0 68 -25q22 -25 22 -69q0 -31 -24 -57q-22 -25 -68 -25h-108v176zM186 479h102q42 0 63 -21q20 -23 20 -44q0 -31 -20 -51q-21 -21 -62 -21h-103v137zM87 561v-561h202q93 0 145 41q51 40 51 116q0 58 -30 95t-88 51q48 8 71 37q24 32 24 82
q0 67 -47 103t-134 36h-194z" />
    <glyph glyph-name="uni029A" unicode="&#x29a;" horiz-adv-x="682" 
d="M307 480q221 0 221 -204q0 -216 -221 -218q-75 0 -112 26q-42 32 -42 68q0 38 39 64q21 15 111 15h89v77h-89q-91 0 -111 14q-39 27 -39 65q0 37 42 67q36 26 112 26zM450 537q-53 22 -152 22q-112 0 -177 -42q-66 -42 -66 -115q0 -50 34.5 -84.5t98.5 -47.5
q-64 -14 -98.5 -49t-34.5 -85q0 -72 66 -114q66 -43 177 -43h5q93 0 147 30q179 94 179 262q0 191 -179 266z" />
    <glyph glyph-name="uni029B" unicode="&#x29b;" horiz-adv-x="708" 
d="M458 87q-41 -11 -124 -11q-88 0 -136 56q-48 54 -48 155t48 155q48 56 136 56q38 0 77 -11q47 -10 113 -50v51h1v73q0 74 18 98q19 24 70 24h114v76h-124q-89 0 -128 -47q-40 -46 -40 -151v-1q-1 0 -24 5q-51 9 -81 9q-128 0 -201 -76q-74 -79 -74 -211q0 -130 73 -209
q72 -78 196 -78q100 0 137 9q40 9 78 26v258h-157v-68h76v-138z" />
    <glyph glyph-name="uni029C" unicode="&#x29c;" horiz-adv-x="634" 
d="M87 560v-560h99v259h264v-259h99v560h-99v-218h-264v218h-99z" />
    <glyph glyph-name="uni029D" unicode="&#x29d;" horiz-adv-x="366" 
d="M94 760v-114h90v114h-90zM16 -208q88 0 129 47q25 29 34 85h93v76h-88v547h-90v-547h-94q-132 0 -132 -100q0 -108 148 -108zM89 -75q-5 -23 -13 -33q-19 -24 -70 -24q-60 0 -62 32v1q0 24 56 24h89z" />
    <glyph glyph-name="uni029E" unicode="&#x29e;" horiz-adv-x="667" 
d="M576 -213v760h-90v-267l-278 267h-117l302 -291l-290 -256h115l268 236v-449h90z" />
    <glyph glyph-name="uni029F" unicode="&#x29f;" horiz-adv-x="583" 
d="M87 560v-560h411v83h-312v477h-99z" />
    <glyph glyph-name="uni02A0" unicode="&#x2a0;" horiz-adv-x="727" 
d="M454 82v-290h90v769q0 74 18 98q20 24 70 24h114v76h-124q-87 0 -128 -47q-40 -46 -40 -151v-97q-29 50 -71 72q-44 24 -104 24q-99 0 -162 -79q-62 -80 -62 -208t62 -208q63 -79 162 -79q61 0 104 24q42 22 71 72zM148 273q0 98 40 156q42 56 113 56t112 -56
q41 -58 41 -156t-41 -156q-41 -56 -112 -56t-113 56q-40 58 -40 156z" />
    <glyph glyph-name="uni02A1" unicode="&#x2a1;" horiz-adv-x="510" 
d="M166 390v-175h-111v-80h112v-135h98v135h113v80h-113v103q81 15 138 73q53 58 53 139q0 92 -54 152q-68 77 -201 77q-42 0 -81 -9q-35 -6 -77 -25v-84q35 19 76 31q41 11 78 11q86 0 136 -56q26 -31 28 -97q0 -48 -28 -85q-42 -55 -136 -55h-31z" />
    <glyph glyph-name="uni02A2" unicode="&#x2a2;" horiz-adv-x="510" 
d="M233 215h-112v-80h112v-135h99v135h112v80h-112v175h-30q-94 0 -136 55q-28 37 -28 85q0 66 28 97q48 56 136 56q38 0 77 -11q39 -10 77 -31v84q-41 18 -77 25q-39 9 -81 9q-135 0 -201 -77q-54 -60 -54 -152q0 -81 53 -139q55 -58 137 -73v-103z" />
    <glyph glyph-name="uni02A3" unicode="&#x2a3;" horiz-adv-x="1014" 
d="M454 464q-29 50 -71 72q-44 24 -104 24q-99 0 -162 -79q-62 -80 -62 -208t62 -208q63 -79 162 -79q61 0 104 24q42 22 71 72v-82h516v72h-338l338 393v82h-426v213h-90v-296zM148 273q0 98 40 156q42 56 113 56t112 -56q41 -58 41 -156t-41 -156q-41 -56 -112 -56
t-113 56q-40 58 -40 156zM544 475h325l-325 -378v378z" />
    <glyph glyph-name="uni02A4" unicode="&#x2a4;" horiz-adv-x="1058" 
d="M544 475h326l-210 -244v-81h85q79 0 126 -36q45 -37 45 -101q0 -69 -49 -106t-141 -37q-54 0 -102 12q-54 15 -90 36v-95q50 -18 100 -27t95 -9q136 0 210 59q75 60 75 167q0 67 -40 118q-41 52 -90 74q-62 27 -114 27l201 233v82h-427v213h-90v-296q-29 50 -71 72
q-44 24 -104 24q-99 0 -162 -79q-62 -80 -62 -208t62 -208q63 -79 162 -79q61 0 104 24q42 22 71 72v-82h90v475zM148 273q0 98 40 156q42 56 113 56t112 -57q41 -56 41 -155q0 -98 -41 -156q-41 -56 -112 -56t-113 56q-40 58 -40 156z" />
    <glyph glyph-name="uni02A5" unicode="&#x2a5;" horiz-adv-x="1013" 
d="M544 547v213h-90v-296q-29 50 -71 72q-44 24 -104 24q-99 0 -162 -79q-62 -80 -62 -208t62 -208q63 -79 162 -79q61 0 104 24q42 22 71 72v-82h254q-2 -34 -2 -54h75q0 37 1 54h20q163 0 163 91v1q-1 120 -111 120q-107 0 -137 -140h-85l338 393v82h-426zM148 273
q0 98 40 156q42 56 113 56t112 -57q41 -56 41 -155q0 -98 -41 -156q-41 -56 -112 -56t-113 56q-40 58 -40 156zM544 475h325l-325 -378v378zM792 72q18 70 61 71q34 0 34 -45q0 -26 -85 -26h-10z" />
    <glyph glyph-name="uni02A6" unicode="&#x2a6;" horiz-adv-x="824" 
d="M752 531q-35 14 -81 22q-41 7 -94 7q-101 0 -155 -42q-55 -42 -55 -119q0 -64 37 -100q38 -36 121 -54l31 -7q86 -19 108 -38q25 -19 25 -56q0 -40 -34 -61q-34 -22 -98 -22q-48 0 -96 13q-49 14 -98 39v-38h-87q-56 0 -75 19q-18 20 -18 86v297h185v70h-185v155h-90
v-155h-66v-70h66v-297q0 -102 39 -141q40 -39 144 -39h92v19q47 -15 96 -25q51 -8 91 -8q107 0 166 44q60 45 60 121q0 67 -40 104t-136 58l-31 7q-73 17 -96 34q-24 16 -24 49q0 41 33 61q35 21 101 21q40 0 85 -10q41 -9 79 -29v85z" />
    <glyph glyph-name="uni02A7" unicode="&#x2a7;" horiz-adv-x="610" 
d="M183 702h-90v-155h-66v-70h66v-297q0 -104 39 -141q40 -39 144 -39h92v-10q0 -74 -18 -98q-20 -24 -70 -24h-24v-76h34q89 0 128 47q40 46 40 151l-1 605q0 51 19 71q18 19 67 19h86v75h-85q-94 0 -135 -42q-42 -45 -42 -133v-38h-184v155zM368 75h-92q-56 0 -75 19
q-18 20 -18 86v297h184q0 -266 1 -402z" />
    <glyph glyph-name="uni02A8" unicode="&#x2a8;" horiz-adv-x="778" 
d="M183 702h-90v-155h-66v-70h66v-297q0 -104 39 -141q40 -39 144 -39h135q-3 -32 -3 -70l75 1q0 46 1 62q36 -9 77 -9q75 0 113 15q49 19 49 77q0 120 -146 120q-101 0 -140 -83l-3 4q-49 55 -49 156t49 156t135 55q35 0 77 -10q44 -14 77 -32v84q-41 18 -77 26
q-42 8 -81 8q-124 0 -197 -73v60h-185v155zM497 74q1 2 2.5 5.5t1.5 4.5q19 42 75 42q64 0 65 -36q0 -20 -15 -25q-10 -3 -57 -3q-41 0 -72 12zM353 75h-77q-56 0 -75 19q-18 20 -18 86v297h175q-67 -74 -67 -204q0 -121 62 -198z" />
    <glyph glyph-name="uni02A9" unicode="&#x2a9;" horiz-adv-x="848" 
d="M804 330q0 113 -48 172q-48 58 -143 58q-56 0 -101 -24q-43 -24 -75 -74v85h-238v48q0 49 19 71q18 19 67 19h86v75h-85q-92 0 -135 -42q-42 -42 -42 -133v-38h-86v-70h86v-477h90v477h147v-477h91v309q0 81 42 127q41 46 114 46q61 0 91 -39t30 -116v-337q0 -74 -18 -98
t-70 -24h-114v-76h124q89 0 128 47q40 46 40 151v340z" />
    <glyph glyph-name="uni02AA" unicode="&#x2aa;" horiz-adv-x="641" 
d="M569 531q-75 29 -175 29q-101 0 -155 -42q-55 -42 -55 -119v361h-90v-760h90v19q47 -15 96 -25q51 -8 92 -8q107 0 166 44q60 45 60 121q0 66 -40 104q-40 37 -136 58l-31 7q-73 17 -96 34q-24 16 -24 49q0 42 34 61q33 21 100 21q38 0 85 -10q38 -8 79 -29v85zM184 399
q0 -64 37 -100t121 -54l31 -7q86 -19 108 -38q25 -19 25 -56q0 -40 -34 -61q-34 -22 -98 -22q-48 0 -96 13q-50 15 -94 37v288z" />
    <glyph glyph-name="uni02AB" unicode="&#x2ab;" horiz-adv-x="654" 
d="M94 760v-760h516v72h-338l338 393v82h-426v213h-90zM184 475h325l-325 -378v378z" />
    <glyph glyph-name="uni02AC" unicode="&#x2ac;" horiz-adv-x="515" 
d="M26 292l91 -307h66l75 251l74 -251h66l91 307h-57l-70 -239l-71 239h-67l-70 -239l-71 239h-57zM26 640l91 -306h66l75 251l74 -251h66l91 306h-57l-70 -239l-71 239h-67l-70 -239l-37 239h-91z" />
    <glyph glyph-name="uni02AD" unicode="&#x2ad;" horiz-adv-x="515" 
d="M26 292v-208h70v128h323v-128h70v208h-463zM26 640v-207h70v128h323v-128h70v207h-463z" />
    <glyph glyph-name="uni02AE" unicode="&#x2ae;" horiz-adv-x="570" 
d="M202 219v343q0 105 -40 151q-39 47 -128 47h-34v-76h24q52 0 70 -24t18 -98v-346q0 -114 49 -172q48 -58 142 -58q57 0 101 24q42 23 76 74v-298h90v760h-90v-309q0 -80 -42 -127q-43 -46 -115 -46q-61 0 -91 39q-30 37 -30 116z" />
    <glyph glyph-name="uni02AF" unicode="&#x2af;" horiz-adv-x="664" 
d="M480 0v-10q3 -108 40 -151q39 -47 128 -47h35v76h-25q-51 0 -69 24q-19 24 -19 85v13v556h-90v-309q0 -80 -42 -127q-43 -46 -115 -46q-61 0 -91 39q-30 37 -30 116v343q0 105 -40 151q-39 47 -128 47h-34v-76h24q52 0 70 -24t18 -98v-346q0 -114 49 -172q48 -58 142 -58
q57 0 101 24q42 23 76 74v-84z" />
    <glyph glyph-name="uni02B0" unicode="&#x2b0;" horiz-adv-x="399" 
d="M346 637q0 62 -31 96q-30 33 -89 33q-36 0 -64 -14q-29 -14 -48 -41v166h-57v-425h57v173q0 45 27 71q26 26 72 26q76 0 76 -87v-183h57v185z" />
    <glyph glyph-name="uni02B1" unicode="&#x2b1;" horiz-adv-x="634" 
d="M114 710v56q0 41 11 55q12 13 44 13h72v43h-78q-56 0 -80 -26q-26 -26 -26 -85v-314h57v173q0 45 27 70q26 26 72 26q76 0 76 -86v-183h57v184q0 62 -31 96q-30 33 -89 33q-39 0 -64 -14q-30 -15 -48 -41z" />
    <glyph glyph-name="uni02B2" unicode="&#x2b2;" horiz-adv-x="175" 
d="M60 758v-311q0 -43 -12 -55q-11 -14 -44 -14h-15v-43h22q56 0 80 27q26 26 26 85v311h-57zM60 877v-63h57v63h-57z" />
    <glyph glyph-name="uni02B3" unicode="&#x2b3;" horiz-adv-x="259" 
d="M259 711v52q-12 2 -16 2q-5 1 -13 1q-39 0 -69 -14q-29 -14 -47 -41v47h-57v-306h57v161q0 52 26 80t73 28q29 0 46 -10z" />
    <glyph glyph-name="uni02B4" unicode="&#x2b4;" horiz-adv-x="295" 
d="M35 499v-52q6 0 16 -2h12q43 0 70 13t47 42v-48h56v306h-56v-161q0 -51 -26 -79q-25 -28 -74 -28q-28 0 -45 9z" />
    <glyph glyph-name="uni02B5" unicode="&#x2b5;" horiz-adv-x="296" 
d="M35 499v-52q6 0 16 -2h12q43 0 70 13t47 42v-48v-5q0 -60 25 -85q25 -27 81 -27h21v43h-15q-32 0 -44 14q-12 12 -12 55v311h-56v-161q0 -51 -26 -79q-25 -28 -74 -28q-28 0 -45 9z" />
    <glyph glyph-name="uni02B6" unicode="&#x2b6;" horiz-adv-x="379" 
d="M201 615q15 4 33 19q13 12 32 41l54 83h-60l-50 -78q-19 -31 -38 -41q-17 -10 -47 -10h-53v129h-56v-306h119q68 0 100 22q33 22 33 67q0 29 -18 47q-17 20 -49 27zM72 495v92h61q37 0 56 -12q20 -12 20 -34q0 -23 -20 -35q-20 -11 -56 -11h-61z" />
    <glyph glyph-name="uni02B7" unicode="&#x2b7;" horiz-adv-x="515" 
d="M26 758l91 -306h66l75 251l74 -251h66l91 306h-57l-70 -238l-71 238h-67l-70 -238l-71 238h-57z" />
    <glyph glyph-name="uni02B8" unicode="&#x2b8;" horiz-adv-x="373" 
d="M203 424l151 334h-60l-107 -239l-108 239h-60l139 -301l-10 -23q-15 -37 -29 -46q-11 -10 -36 -10h-33v-43h45q39 0 61 18q24 18 47 71z" />
    <glyph glyph-name="uni02BB" unicode="&#x2bb;" horiz-adv-x="318" 
d="M188 489v84l40 156h-63l-80 -156v-84h103z" />
    <glyph glyph-name="afii57929" unicode="&#x2bc;" horiz-adv-x="318" 
d="M127 729v-74l-40 -156h63l80 156v74h-103z" />
    <glyph glyph-name="uni02C0" unicode="&#x2c0;" horiz-adv-x="370" 
d="M135 670v-218h62v178q54 9 87 41q33 31 33 78q0 51 -33 85q-43 43 -128 43q-23 0 -51 -5q-21 -4 -48 -14v-47q46 23 97 23q55 0 86 -31q17 -17 17 -54q0 -27 -17 -47q-27 -32 -86 -32h-19z" />
    <glyph glyph-name="uni02C1" unicode="&#x2c1;" horiz-adv-x="370" 
d="M239 670h-19q-59 0 -85 32q-18 20 -18 47q0 37 18 54q30 31 85 31q51 0 97 -23v47q-27 10 -48 14q-28 5 -51 5q-85 0 -127 -43q-34 -34 -34 -85q0 -47 33 -78t87 -41v-178h62v218z" />
    <glyph glyph-name="circumflex" unicode="&#x2c6;" horiz-adv-x="500" 
d="M214 800l-120 -184h68l88 120l88 -120h68l-120 184h-72z" />
    <glyph glyph-name="caron" unicode="&#x2c7;" horiz-adv-x="500" 
d="M214 616h72l120 184h-68l-88 -120l-88 120h-68z" />
    <glyph glyph-name="uni02C8" unicode="&#x2c8;" horiz-adv-x="275" 
d="M171 759h-67v-271h67v271z" />
    <glyph glyph-name="uni02CC" unicode="&#x2cc;" horiz-adv-x="275" 
d="M171 123h-67v-271h67v271z" />
    <glyph glyph-name="uni02D0" unicode="&#x2d0;" horiz-adv-x="337" 
d="M141 356l88 161h-175zM141 161l-87 -161h175z" />
    <glyph glyph-name="uni02D1" unicode="&#x2d1;" horiz-adv-x="337" 
d="M141 356l88 161h-175z" />
    <glyph glyph-name="uni02D2" unicode="&#x2d2;" horiz-adv-x="307" 
d="M57 610q56 0 95 39t39 95t-39 95t-95 39v-60q32 0 53 -22q21 -21 21 -52q0 -30 -21 -53q-21 -21 -53 -21v-60z" />
    <glyph glyph-name="uni02D6" unicode="&#x2d6;" horiz-adv-x="413" 
d="M204 374h-110v-72h110v-110h72v110h110v72h-110v110h-72v-110z" />
    <glyph glyph-name="breve" unicode="&#x2d8;" horiz-adv-x="500" 
d="M97 785q11 -140 153 -140t153 140h-58q-12 -73 -95 -73q-85 0 -95 73h-58z" />
    <glyph glyph-name="dotaccent" unicode="&#x2d9;" horiz-adv-x="500" 
d="M200 758v-100h100v100h-100z" />
    <glyph glyph-name="ring" unicode="&#x2da;" horiz-adv-x="500" 
d="M324 744q0 -30 -21 -53q-21 -21 -53 -21t-53 21t-21 53q0 31 21 52q21 22 53 22t53 -22q21 -21 21 -52zM384 744q0 56 -39 95t-95 39t-95 -39t-39 -95t39 -95t95 -39t95 39t39 95z" />
    <glyph glyph-name="ogonek" unicode="&#x2db;" horiz-adv-x="500" 
d="M215 0q-53 -60 -53 -105q0 -46 28 -67t88 -21q24 0 66 10v65q-30 -15 -61 -15q-53 0 -53 45q0 29 43 88h-58z" />
    <glyph glyph-name="tilde" unicode="&#x2dc;" horiz-adv-x="500" 
d="M248 669q33 -30 68 -30q44 0 69 36t26 102h-61q-1 -76 -37 -76q-13 0 -33 19l-28 27q-33 30 -68 30q-44 0 -69 -36t-26 -102h61q1 76 37 76q13 0 33 -19z" />
    <glyph glyph-name="hungarumlaut" unicode="&#x2dd;" horiz-adv-x="500" 
d="M373 800l-100 -184h66l121 184h-87zM210 800l-93 -184h67l109 184h-83z" />
    <glyph glyph-name="uni02DE" unicode="&#x2de;" horiz-adv-x="315" 
d="M0 424v-81l135 79q0 -98 40 -142q44 -47 128 -47h31v77h-21q-52 0 -69 23q-19 23 -19 99v72h-90z" />
    <glyph glyph-name="uni02E0" unicode="&#x2e0;" horiz-adv-x="426" 
d="M252 608l122 150h-67l-90 -109l-93 109h-67l122 -148q-88 -118 -88 -210v-1q0 -65 124 -65h6q118 1 118 65q0 90 -87 209zM215 576q63 -92 63 -159q-2 -38 -63 -38q-65 0 -67 38v2q0 72 67 157z" />
    <glyph glyph-name="uni02E1" unicode="&#x2e1;" horiz-adv-x="166" 
d="M57 877v-425h57v425h-57z" />
    <glyph glyph-name="uni02E2" unicode="&#x2e2;" horiz-adv-x="373" 
d="M302 757q-20 8 -51 13q-38 4 -59 4q-64 0 -98 -24t-34 -66q0 -37 23 -57q24 -20 76 -30l20 -4q53 -10 68 -21q15 -10 15 -31t-21 -35q-21 -12 -62 -12q-25 0 -60 7q-26 6 -62 22v-52q37 -10 63 -14q33 -5 58 -5q67 0 104 25q38 25 38 67q0 38 -25 59q-22 20 -86 32l-19 4
q-45 9 -61 19q-15 10 -15 28q0 22 21 34q19 11 64 11q25 0 53 -5q23 -4 50 -16v47z" />
    <glyph glyph-name="uni02E3" unicode="&#x2e3;" horiz-adv-x="444" 
d="M385 758h-67l-91 -109l-92 109h-67l123 -146l-134 -160h67l100 120l100 -120h67l-131 157z" />
    <glyph glyph-name="uni02E4" unicode="&#x2e4;" horiz-adv-x="370" 
d="M239 670h-19q-59 0 -85 32q-18 20 -18 47q0 37 18 54q30 31 85 31q51 0 97 -23v47q-27 10 -48 14q-28 5 -51 5q-85 0 -127 -43q-34 -34 -34 -85q0 -47 33 -78t87 -41v-178h62v218z" />
    <glyph glyph-name="uni02E5" unicode="&#x2e5;" horiz-adv-x="493" 
d="M323 0h66v668h-285v-66h219v-602z" />
    <glyph glyph-name="uni02E6" unicode="&#x2e6;" horiz-adv-x="493" 
d="M323 0h66v668h-66v-150h-219v-67h219v-451z" />
    <glyph glyph-name="uni02E7" unicode="&#x2e7;" horiz-adv-x="493" 
d="M323 367h-219v-66h219v-301h66v668h-66v-301z" />
    <glyph glyph-name="uni02E8" unicode="&#x2e8;" horiz-adv-x="493" 
d="M323 217h-219v-67h219v-150h66v668h-66v-451z" />
    <glyph glyph-name="uni02E9" unicode="&#x2e9;" horiz-adv-x="493" 
d="M323 66h-219v-66h285v668h-66v-602z" />
    <glyph glyph-name="gravecomb" unicode="&#x300;" 
d="M-322 800h-96l159 -183h75z" />
    <glyph glyph-name="acutecomb" unicode="&#x301;" 
d="M-183 800l-137 -184h75l159 184h-97z" />
    <glyph glyph-name="uni0302" unicode="&#x302;" 
d="M-287 800l-120 -184h68l88 120l88 -120h68l-120 184h-72z" />
    <glyph glyph-name="tildecomb" unicode="&#x303;" 
d="M-253 669q33 -30 68 -30q44 0 69 36t26 102h-61q-1 -76 -37 -76q-13 0 -33 19l-28 27q-33 30 -68 30q-44 0 -69 -36t-26 -102h61q1 76 37 76q13 0 33 -19z" />
    <glyph glyph-name="uni0304" unicode="&#x304;" 
d="M-394 745v-72h292v72h-292z" />
    <glyph glyph-name="uni0305" unicode="&#x305;" 
d="M-500 745v-72h500v72h-500z" />
    <glyph glyph-name="uni0306" unicode="&#x306;" 
d="M-407 785q11 -140 153 -140t153 140h-58q-12 -73 -95 -73q-85 0 -95 73h-58z" />
    <glyph glyph-name="uni0307" unicode="&#x307;" 
d="M-295 758v-100h100v100h-100z" />
    <glyph glyph-name="uni0308" unicode="&#x308;" 
d="M-205 758v-99h99v99h-99zM-396 758v-99h99v99h-99z" />
    <glyph glyph-name="uni030A" unicode="&#x30a;" 
d="M-177 744q0 -30 -21 -53q-21 -21 -53 -21t-53 21t-21 53q0 31 21 52q21 22 53 22t53 -22q21 -21 21 -52zM-117 744q0 56 -39 95t-95 39t-95 -39t-39 -95t39 -95t95 -39t95 39t39 95z" />
    <glyph glyph-name="uni030B" unicode="&#x30b;" 
d="M-125 800l-100 -184h66l121 184h-87zM-288 800l-93 -184h67l109 184h-83z" />
    <glyph glyph-name="uni030C" unicode="&#x30c;" 
d="M-284 616h72l120 184h-68l-88 -120l-88 120h-68z" />
    <glyph glyph-name="uni030D" unicode="&#x30d;" 
d="M-217 832h-66v-217h66v217z" />
    <glyph glyph-name="uni030E" unicode="&#x30e;" 
d="M-317 832h-66v-217h66v217zM-117 832h-66v-217h66v217z" />
    <glyph glyph-name="uni030F" unicode="&#x30f;" 
d="M-368 800h-87l122 -184h65zM-205 800h-83l109 -184h67z" />
    <glyph glyph-name="uni0310" unicode="&#x310;" 
d="M-298 855v-100h100v100h-100zM-407 785q11 -140 153 -140t153 140h-58q-12 -73 -95 -73q-85 0 -95 73h-58z" />
    <glyph glyph-name="uni0311" unicode="&#x311;" 
d="M-101 645q-11 140 -153 140t-153 -140h58q12 73 95 73q85 0 95 -73h58z" />
    <glyph glyph-name="uni0312" unicode="&#x312;" 
d="M-132 489l40 156h-63l-80 -156h103z" />
    <glyph glyph-name="uni0315" unicode="&#x315;" 
d="M0 759l-35 -184h75l57 184h-97z" />
    <glyph glyph-name="uni0316" unicode="&#x316;" 
d="M-322 -64h-96l159 -183h75z" />
    <glyph glyph-name="uni0317" unicode="&#x317;" 
d="M-183 -64l-137 -184h75l159 184h-97z" />
    <glyph glyph-name="uni0318" unicode="&#x318;" 
d="M-129 -184h-86v-66h86v-87h66v239h-66v-86z" />
    <glyph glyph-name="uni0319" unicode="&#x319;" 
d="M-148 -250h85v66h-85v86h-67v-239h67v87z" />
    <glyph glyph-name="uni031C" unicode="&#x31c;" 
d="M-115 -98q-56 0 -95 -39t-39 -95t39 -95t95 -39v60q-30 0 -52 22q-22 21 -22 52q0 32 22 53q21 21 52 21v60z" />
    <glyph glyph-name="uni031D" unicode="&#x31d;" 
d="M-105 -184v86h-67v-86h-86v-66h239v66h-86z" />
    <glyph glyph-name="uni031E" unicode="&#x31e;" 
d="M-172 -164v-86h67v86h86v66h-239v-66h86z" />
    <glyph glyph-name="uni031F" unicode="&#x31f;" 
d="M-172 -250v-87h67v87h86v66h-86v86h-67v-86h-86v-66h86z" />
    <glyph glyph-name="uni0320" unicode="&#x320;" 
d="M-258 -164h239v66h-239v-66z" />
    <glyph glyph-name="uni0321" unicode="&#x321;" 
d="M-23 62h-90v-72q0 -73 -19 -98q-18 -24 -70 -24h-113v-76h124q87 0 128 47q40 48 40 151v72z" />
    <glyph glyph-name="uni0322" unicode="&#x322;" 
d="M-317 62v-72q0 -105 40 -151q41 -47 128 -47h124v76h-114q-51 0 -69 24q-19 23 -19 98v72h-90z" />
    <glyph glyph-name="uni0324" unicode="&#x324;" 
d="M-205 -65v-99h99v99h-99zM-396 -65v-99h99v99h-99z" />
    <glyph glyph-name="uni0325" unicode="&#x325;" 
d="M-177 -199q0 -31 -21 -53q-21 -21 -53 -21t-53 21t-21 53q0 31 21 52q21 22 53 22t53 -22q21 -21 21 -52zM-117 -199q0 56 -39 95t-95 39t-95 -39t-39 -95t39 -95t95 -39t95 39t39 95z" />
    <glyph glyph-name="uni0326" unicode="&#x326;" 
d="M-283 -64l-40 -157h63l80 157h-103z" />
    <glyph glyph-name="uni0329" unicode="&#x329;" 
d="M-217 -64h-66v-217h66v217z" />
    <glyph glyph-name="uni032A" unicode="&#x32a;" 
d="M-114 -64h-269v-162h67v95h135v-95h67v162z" />
    <glyph glyph-name="uni032C" unicode="&#x32c;" 
d="M-284 -249h72l120 184h-68l-88 -120l-88 120h-68z" />
    <glyph glyph-name="uni032D" unicode="&#x32d;" 
d="M-287 -64l-120 -184h68l88 120l88 -120h68l-120 184h-72z" />
    <glyph glyph-name="uni032E" unicode="&#x32e;" 
d="M-407 -63q11 -140 153 -140t153 140h-58q-12 -73 -95 -73q-85 0 -95 73h-58z" />
    <glyph glyph-name="uni032F" unicode="&#x32f;" 
d="M-101 -204q-11 140 -153 140t-153 -140h58q12 73 95 73q85 0 95 -73h58z" />
    <glyph glyph-name="uni0330" unicode="&#x330;" 
d="M-253 -173q33 -30 68 -30q44 0 69 36t26 102h-61q-1 -76 -37 -76q-13 0 -33 19l-28 27q-33 30 -68 30q-44 0 -69 -36t-26 -102h61q1 76 37 76q13 0 33 -19z" />
    <glyph glyph-name="uni0331" unicode="&#x331;" 
d="M-394 -65v-72h292v72h-292z" />
    <glyph glyph-name="uni0332" unicode="&#x332;" 
d="M-500 -64v-73h500v73h-500z" />
    <glyph glyph-name="uni0339" unicode="&#x339;" 
d="M-248 -365q56 0 95 39t39 95t-39 95t-95 39v-60q30 0 52 -22q22 -21 22 -52q0 -32 -22 -53q-21 -21 -52 -21v-60z" />
    <glyph glyph-name="uni033A" unicode="&#x33a;" 
d="M-382 -226h269v162h-67v-95h-135v95h-67v-162z" />
    <glyph glyph-name="uni033B" unicode="&#x33b;" 
d="M-114 -64h-269v-269h269v269zM-181 -267h-135v136h135v-136z" />
    <glyph glyph-name="uni033D" unicode="&#x33d;" 
d="M-250 669l61 -61l47 47l-61 61l61 61l-47 47l-61 -61l-61 61l-47 -47l61 -61l-61 -62l46 -47z" />
    <glyph glyph-name="uni0361" unicode="&#x361;" 
d="M0 835q27 0 166 -12q131 -12 193 -81h58q0 117 -249 147q-120 13 -168 13t-168 -13q-249 -30 -249 -147h58q62 69 193 81q140 12 166 12z" />
    <glyph glyph-name="uni0374" unicode="&#x374;" horiz-adv-x="278" 
d="M78 557h71l54 243h-93z" />
    <glyph glyph-name="uni0375" unicode="&#x375;" horiz-adv-x="278" 
d="M203 35h-71l-54 -243h93z" />
    <glyph glyph-name="uni037A" unicode="&#x37a;" horiz-adv-x="361" 
d="M234 -208v32h-10q-25 0 -25 51v80h-73v-74q0 -89 43 -89h65z" />
    <glyph glyph-name="uni037E" unicode="&#x37e;" horiz-adv-x="337" 
d="M117 517v-124h103v124h-103zM117 124v-84l-40 -156h63l80 156v84h-103z" />
    <glyph glyph-name="tonos" unicode="&#x384;" horiz-adv-x="500" 
d="M318 800l-137 -184h75l159 184h-97z" />
    <glyph glyph-name="dieresistonos" unicode="&#x385;" horiz-adv-x="500" 
d="M296 758v-99h99v99h-99zM105 758v-99h99v99h-99zM318 978l-137 -184h75l159 184h-97z" />
    <glyph glyph-name="Alphatonos" unicode="&#x386;" horiz-adv-x="692" 
d="M174 800l-136 -184h74l159 184h-97zM342 632l134 -363h-268zM286 729l-278 -729h104l66 187h329l66 -187h103l-278 729h-112z" />
    <glyph glyph-name="anoteleia" unicode="&#x387;" horiz-adv-x="318" 
d="M107 409v-124h103v124h-103z" />
    <glyph glyph-name="Epsilontonos" unicode="&#x388;" horiz-adv-x="746" 
d="M125 800l-137 -184h74l160 184h-97zM212 729v-729h470v83h-371v264h347v83h-347v216h362v83h-461z" />
    <glyph glyph-name="Etatonos" unicode="&#x389;" horiz-adv-x="871" 
d="M130 800l-136 -184h74l160 184h-98zM209 729v-729h99v347h359v-347h98v729h-98v-299h-359v299h-99z" />
    <glyph glyph-name="Iotatonos" unicode="&#x38a;" horiz-adv-x="408" 
d="M127 800l-136 -184h74l160 184h-98zM212 729v-729h99v729h-99z" />
    <glyph glyph-name="Omicrontonos" unicode="&#x38c;" horiz-adv-x="812" 
d="M130 800l-137 -184h75l159 184h-97zM414 662q107 0 169 -80q63 -80 63 -218t-63 -218q-62 -80 -169 -80q-108 0 -171 80t-63 218t63 218t171 80zM414 742q-154 0 -247 -103q-91 -101 -91 -275q0 -173 91 -276q93 -102 247 -102t245 102q91 103 91 276q0 174 -91 275
q-91 103 -245 103z" />
    <glyph glyph-name="Upsilontonos" unicode="&#x38e;" horiz-adv-x="825" 
d="M122 800l-137 -184h75l159 184h-97zM206 729l258 -382v-347h99v347l258 382h-106l-201 -300l-202 300h-106z" />
    <glyph glyph-name="Omegatonos" unicode="&#x38f;" horiz-adv-x="826" 
d="M119 800l-137 -184h75l159 184h-97zM752 87h-156q79 70 113 141q35 73 35 167q0 152 -94 247q-94 96 -242 96q-149 0 -242 -96q-94 -95 -94 -252q0 -89 35 -162q36 -73 113 -141h-156v-87h293v87q-87 48 -136 128q-48 82 -48 180q0 117 64 188q66 71 171 71t170 -71
q64 -70 64 -188q0 -98 -48 -180q-47 -80 -135 -128v-87h293v87z" />
    <glyph glyph-name="iotadieresistonos" unicode="&#x390;" horiz-adv-x="292" 
d="M102 547v-547h89v547h-89zM193 758v-99h99v99h-99zM2 758v-99h100v99h-100zM215 978l-136 -184h74l159 184h-97z" />
    <glyph glyph-name="Alpha" unicode="&#x391;" horiz-adv-x="684" 
d="M342 632l134 -363h-268zM286 729l-278 -729h104l66 187h329l66 -187h103l-278 729h-112z" />
    <glyph glyph-name="Beta" unicode="&#x392;" horiz-adv-x="686" 
d="M197 348h158q80 0 118 -32.5t38 -100.5q0 -134 -156 -134h-158v267zM197 648h146q143 0 143 -110t-143 -110h-146v220zM98 729v-729h262q121 0 189 53q66 54 66 151q0 74 -40 123.5t-113 65.5q123 20 123 156q0 86 -61 133t-174 47h-252z" />
    <glyph glyph-name="Gamma" unicode="&#x393;" horiz-adv-x="557" 
d="M98 0h99v646h355v83h-454v-729z" />
    <glyph glyph-name="uni0394" unicode="&#x394;" horiz-adv-x="684" 
d="M342 632l200 -550h-400zM8 0h668l-278 729h-112z" />
    <glyph glyph-name="Epsilon" unicode="&#x395;" horiz-adv-x="632" 
d="M98 729v-729h470v83h-371v264h347v83h-347v216h362v83h-461z" />
    <glyph glyph-name="Zeta" unicode="&#x396;" horiz-adv-x="685" 
d="M56 729v-83h450l-461 -571v-75h595v83h-472l461 571v75h-573z" />
    <glyph glyph-name="Eta" unicode="&#x397;" horiz-adv-x="752" 
d="M98 729v-729h99v347h358v-347h99v729h-99v-299h-358v299h-99z" />
    <glyph glyph-name="Theta" unicode="&#x398;" horiz-adv-x="787" 
d="M221 430v-83h345v83h-345zM394 662q107 0 170 -80t63 -218t-63 -218t-170 -80q-106 0 -171 80q-63 80 -63 218q0 139 64 218q63 80 170 80zM394 742q-154 0 -246 -102q-92 -104 -92 -276t92 -276q92 -102 246 -102t245 103q92 103 92 275t-92 275q-91 103 -245 103z" />
    <glyph glyph-name="Iota" unicode="&#x399;" horiz-adv-x="295" 
d="M98 729v-729h99v729h-99z" />
    <glyph glyph-name="Kappa" unicode="&#x39a;" horiz-adv-x="656" 
d="M98 729v-729h99v351l350 -351h130l-388 389l362 340h-127l-327 -308v308h-99z" />
    <glyph glyph-name="Lambda" unicode="&#x39b;" horiz-adv-x="684" 
d="M112 0l230 632l231 -632h103l-278 729h-112l-278 -729h104z" />
    <glyph glyph-name="Mu" unicode="&#x39c;" horiz-adv-x="863" 
d="M98 729v-729h96v640l188 -500h99l188 500v-640h96v729h-147l-187 -496l-186 496h-147z" />
    <glyph glyph-name="Nu" unicode="&#x39d;" horiz-adv-x="748" 
d="M98 729v-729h96v610l323 -610h133v729h-96v-610l-323 610h-133z" />
    <glyph glyph-name="Xi" unicode="&#x39e;" horiz-adv-x="632" 
d="M149 430v-83h348v83h-348zM98 729v-83h450v83h-450zM98 83v-83h450v83h-450z" />
    <glyph glyph-name="Omicron" unicode="&#x39f;" horiz-adv-x="787" 
d="M394 662q107 0 170 -80t63 -218t-63 -218t-170 -80q-106 0 -171 80q-63 80 -63 218t63 218q65 80 171 80zM394 742q-155 0 -246 -103q-92 -103 -92 -275t92 -276q92 -102 246 -102t245 102q92 104 92 276t-92 275q-91 103 -245 103z" />
    <glyph glyph-name="Pi" unicode="&#x3a0;" horiz-adv-x="752" 
d="M654 729h-556v-729h99v646h358v-646h99v729z" />
    <glyph glyph-name="Rho" unicode="&#x3a1;" horiz-adv-x="603" 
d="M197 648h124q69 0 106.5 -35.5t37.5 -101.5t-37.5 -101.5t-106.5 -35.5h-124v274zM98 729v-729h99v293h124q248 0 248 218q0 107 -63 162.5t-185 55.5h-223z" />
    <glyph glyph-name="Sigma" unicode="&#x3a3;" horiz-adv-x="632" 
d="M211 83l234 307l-234 256h348v83h-461v-83l234 -258l-234 -305v-83h470v83h-357z" />
    <glyph glyph-name="Tau" unicode="&#x3a4;" horiz-adv-x="611" 
d="M-3 729v-83h259v-646h99v646h259v83h-617z" />
    <glyph glyph-name="Upsilon" unicode="&#x3a5;" horiz-adv-x="611" 
d="M-2 729l258 -382v-347h99v347l258 382h-106l-201 -300l-202 300h-106z" />
    <glyph glyph-name="Phi" unicode="&#x3a6;" horiz-adv-x="787" 
d="M345 569v-410q-75 11 -121 52q-64 57 -64 153t64 153q46 41 121 52zM443 159v410q75 -11 121 -52q63 -57 63 -153t-63 -153q-46 -41 -121 -52zM345 77v-77h98v77q118 10 196 76q92 80 92 211t-92 211q-78 66 -196 76v78h-98v-78q-120 -10 -197 -76q-92 -80 -92 -211
t92 -211q79 -66 197 -76z" />
    <glyph glyph-name="Chi" unicode="&#x3a7;" horiz-adv-x="685" 
d="M63 729l227 -340l-260 -389h106l207 310l205 -310h106l-250 379l234 350h-106l-182 -271l-181 271h-106z" />
    <glyph glyph-name="Psi" unicode="&#x3a8;" horiz-adv-x="787" 
d="M345 0h98v96v55q105 0 197 103q89 98 92 275v200h-104v-200q0 -138 -64 -217q-52 -68 -121 -76v493h-98v-493q-69 8 -121 76q-64 79 -64 217v200h-104v-200q3 -177 92 -275q92 -103 197 -103v-81v-70z" />
    <glyph glyph-name="Omega" unicode="&#x3a9;" horiz-adv-x="764" 
d="M726 87h-156q79 70 113 141q35 73 35 167q0 152 -94 247q-94 96 -242 96q-149 0 -242 -96q-94 -95 -94 -252q0 -89 35 -162q36 -73 113 -141h-156v-87h293v87q-87 48 -136 128q-48 82 -48 180q0 117 64 188q66 71 171 71t170 -71q64 -70 64 -188q0 -98 -48 -180
q-47 -80 -135 -128v-87h293v87z" />
    <glyph glyph-name="Iotadieresis" unicode="&#x3aa;" horiz-adv-x="295" 
d="M194 913v-99h99v99h-99zM3 913v-99h99v99h-99zM98 729v-729h99v729h-99z" />
    <glyph glyph-name="Upsilondieresis" unicode="&#x3ab;" horiz-adv-x="611" 
d="M351 913v-99h99v99h-99zM160 913v-99h99v99h-99zM-2 729l258 -382v-347h99v347l258 382h-106l-201 -300l-202 300h-106z" />
    <glyph glyph-name="alphatonos" unicode="&#x3ac;" horiz-adv-x="638" 
d="M372 800l-137 -184h75l159 184h-97zM469 224q-56 -161 -178 -162h-1q-57 0 -99 56q-41 58 -41 155q0 98 42 155q41 56 99 56h1q82 0 177 -140v-120zM469 106v-106h90v547h-90v-96q-78 109 -177 109h-1q-103 0 -169 -76q-67 -78 -67 -211t67 -211q66 -76 169 -76
q141 0 178 120z" />
    <glyph glyph-name="epsilontonos" unicode="&#x3ad;" horiz-adv-x="548" 
d="M357 800l-137 -184h75l159 184h-97zM193 295q-61 -12 -94.5 -47.5t-33.5 -88.5q0 -84 63 -129q62 -44 179 -44q42 0 81 7q36 5 85 20v84q-28 -16 -77 -28q-36 -8 -86 -8q-74 0 -116 27q-41 27 -41 71q0 43 38 70q35 25 102 25h73v75h-76q-56 0 -89 21q-34 23 -34 56
q0 31 35 54q32 22 91 22q35 0 75 -6q33 -5 86 -20v81q-96 24 -168 24q-96 0 -151 -39q-55 -37 -55 -107q0 -47 29 -77q28 -31 84 -43z" />
    <glyph glyph-name="etatonos" unicode="&#x3ae;" horiz-adv-x="654" 
d="M415 800l-137 -184h75l159 184h-97zM549 330q0 114 -49 172q-48 58 -142 58q-58 0 -101 -24q-42 -23 -76 -74v85h-90v-547h90v309q0 81 42 127q43 46 115 46q121 0 121 -155v-535h90v538z" />
    <glyph glyph-name="iotatonos" unicode="&#x3af;" horiz-adv-x="289" 
d="M227 800l-137 -184h75l159 184h-97zM94 547v-547h90v547h-90z" />
    <glyph glyph-name="upsilondieresistonos" unicode="&#x3b0;" horiz-adv-x="634" 
d="M314 -14q134 0 180 58q49 62 49 172v331h-90v-328q0 -80 -30 -116q-33 -39 -109 -39q-79 0 -109 39q-30 37 -30 116v328h-90v-331q0 -114 49 -172t180 -58zM358 758v-99h100v99h-100zM167 758v-99h100v99h-100zM380 978l-136 -184h74l160 184h-98z" />
    <glyph glyph-name="alpha" unicode="&#x3b1;" horiz-adv-x="612" 
d="M469 224q-56 -161 -178 -162h-1q-57 0 -99 56q-41 58 -41 155q0 98 42 155q41 56 99 56h1q82 0 177 -140v-120zM469 106v-106h90v547h-90v-96q-78 109 -177 109h-1q-103 0 -169 -76q-67 -78 -67 -211t67 -211q66 -76 169 -76q141 0 178 120z" />
    <glyph glyph-name="beta" unicode="&#x3b2;" horiz-adv-x="638" 
d="M184 34q76 -44 139 -44h8q235 10 235 227v4q0 148 -136 175q82 46 84 182q0 174 -195 188q-9 1 -27 1q-198 0 -198 -224v-751h90v242zM184 167v374q0 133 115 133h13q114 -8 114 -99q0 -145 -171 -145h-6v-83q6 0 16.5 0.5t15.5 0.5q194 0 194 -128q0 -133 -119 -133
q-14 0 -22 1q-111 11 -150 79z" />
    <glyph glyph-name="gamma" unicode="&#x3b3;" horiz-adv-x="592" 
d="M30 547l205 -547v-208h122v208l205 547h-95l-171 -459l-171 459h-95z" />
    <glyph glyph-name="delta" unicode="&#x3b4;" horiz-adv-x="612" 
d="M490 633v75q-58 34 -166 34q-216 0 -216 -133q0 -68 77 -107q-38 -18 -63 -49q-67 -82 -67 -180q0 -133 67 -211q67 -76 184 -76q118 0 184 76q67 76 67 206q0 135 -69 201q-56 55 -159 73q-129 24 -129 68q0 57 124 57q117 0 166 -34zM252 478q23 -7 57 -10
q63 -6 108 -56q45 -46 45 -144q0 -94 -42 -149q-42 -57 -114 -57q-73 0 -115 56q-41 56 -41 155q0 100 42 155q26 34 60 50z" />
    <glyph glyph-name="epsilon" unicode="&#x3b5;" horiz-adv-x="541" 
d="M193 295q-61 -12 -94.5 -47.5t-33.5 -88.5q0 -84 63 -129q62 -44 179 -44q42 0 81 7q36 5 85 20v84q-28 -16 -77 -28q-36 -8 -86 -8q-74 0 -116 27q-41 27 -41 71q0 43 38 70q35 25 102 25h73v75h-76q-56 0 -89 21q-34 23 -34 56q0 31 35 54q32 22 91 22q35 0 75 -6
q33 -5 86 -20v81q-96 24 -168 24q-96 0 -151 -39q-55 -37 -55 -107q0 -47 29 -77q28 -31 84 -43z" />
    <glyph glyph-name="zeta" unicode="&#x3b6;" horiz-adv-x="626" 
d="M537 -70q-3 160 -182 160q-172 2 -172 248q0 2 0.5 8t0.5 8q4 240 353 315v91h-425v-91h181q-196 -105 -200 -315v-20q0 -334 264 -334q85 0 88 -72v-2q0 -68 -152 -80v-54q244 0 244 135v3z" />
    <glyph glyph-name="eta" unicode="&#x3b7;" horiz-adv-x="634" 
d="M549 330q0 114 -49 172q-48 58 -142 58q-58 0 -101 -24q-42 -23 -76 -74v85h-90v-547h90v309q0 81 42 127q43 46 115 46q121 0 121 -155v-535h90v538z" />
    <glyph glyph-name="theta" unicode="&#x3b8;" horiz-adv-x="612" 
d="M461 347q-5 -112 -41 -178q-42 -77 -114 -77t-115 76q-37 69 -41 179h311zM460 430h-309q8 99 41 158q42 76 114 76t114 -77q34 -65 40 -157zM306 768q-116 0 -184 -104q-67 -105 -67 -286q0 -180 67 -285q67 -104 184 -104q119 0 184 104q67 103 67 285q0 183 -67 286
q-66 104 -184 104z" />
    <glyph glyph-name="iota" unicode="&#x3b9;" horiz-adv-x="278" 
d="M94 547v-547h90v547h-90z" />
    <glyph glyph-name="kappa" unicode="&#x3ba;" horiz-adv-x="604" 
d="M93 547v-547h91v267l277 -267h118l-303 291l290 256h-114l-268 -236v236h-91z" />
    <glyph glyph-name="lambda" unicode="&#x3bb;" horiz-adv-x="592" 
d="M30 0h95l188 404l154 -404h95l-284 760h-97l89 -236z" />
    <glyph glyph-name="uni03BC" unicode="&#x3bc;" horiz-adv-x="634" 
d="M175 25q17 -25 102 -39q4 -1 14 -1q35 0 86 25q39 19 76 74v-84h90v547h-90v-310q0 -80 -42 -127q-43 -46 -115 -46q-121 0 -121 155v328h-90v-755h90v233z" />
    <glyph glyph-name="nu" unicode="&#x3bd;" horiz-adv-x="592" 
d="M30 547l205 -547h122l205 547h-95l-171 -459l-171 459h-95z" />
    <glyph glyph-name="xi" unicode="&#x3be;" horiz-adv-x="626" 
d="M537 -70q-3 160 -182 160q-171 2 -171 127v4q2 126 277 126v83q-258 4 -258 97q0 142 307 142v91h-385v-91h102q-108 -39 -108 -136q0 -127 137 -144q-163 -55 -163 -168q2 -221 264 -221q85 0 88 -72v-2q0 -68 -152 -80v-54q244 0 244 135v3z" />
    <glyph glyph-name="omicron" unicode="&#x3bf;" horiz-adv-x="612" 
d="M306 484q72 0 114 -57t42 -154q0 -99 -42 -154q-42 -57 -114 -57q-73 0 -115 56q-41 58 -41 155q0 99 42 154q42 57 114 57zM306 560q-118 0 -184 -76q-67 -76 -67 -211t67 -211q66 -76 184 -76t184 76q67 76 67 211t-67 211q-66 76 -184 76z" />
    <glyph glyph-name="pi" unicode="&#x3c0;" horiz-adv-x="660" 
d="M566 547h-472v-547h90v472h293v-472h89v547z" />
    <glyph glyph-name="rho" unicode="&#x3c1;" horiz-adv-x="635" 
d="M135 449q-44 -66 -44 -181v-476h90v290q56 -96 175 -96q99 0 162 79q62 80 62 208t-62 208q-63 79 -162 79q-89 0 -118 -17q-72 -42 -103 -94zM487 273q0 -98 -41 -156q-41 -56 -112 -56t-112 56q-41 58 -41 156q0 99 41 155q40 57 112 57t112 -57q41 -56 41 -155z" />
    <glyph glyph-name="sigma1" unicode="&#x3c2;" horiz-adv-x="587" 
d="M498 547q-60 5 -101 5q-328 0 -330 -260q0 -292 264 -292q85 0 87 -72v-2q0 -68 -151 -80v-54q244 0 244 135v3q-3 151 -182 160q-172 10 -172 202q0 176 257 176q24 0 84 -4v83z" />
    <glyph glyph-name="sigma" unicode="&#x3c3;" horiz-adv-x="634" 
d="M306 484q72 0 114 -57t42 -154q0 -99 -42 -154q-42 -57 -114 -57q-73 0 -115 56q-41 58 -41 155q0 99 42 154q42 57 114 57zM306 560q-117 0 -184 -76q-67 -78 -67 -211t67 -211q67 -76 184 -76q118 0 184 76q67 76 67 211t-67 211h114v76h-298z" />
    <glyph glyph-name="tau" unicode="&#x3c4;" horiz-adv-x="529" 
d="M2 547v-83h218v-464h89v464h217v83h-524z" />
    <glyph glyph-name="upsilon" unicode="&#x3c5;" horiz-adv-x="634" 
d="M314 -14q134 0 180 58q49 62 49 172v331h-90v-328q0 -80 -30 -116q-33 -39 -109 -39q-79 0 -109 39q-30 37 -30 116v328h-90v-331q0 -114 49 -172t180 -58z" />
    <glyph glyph-name="phi" unicode="&#x3c6;" horiz-adv-x="688" 
d="M308 5v-213h86v210q226 18 226 311v4q-1 235 -152 235q-160 0 -160 -224v-258q-133 28 -133 221v256h-90v-260q0 -257 223 -282zM394 65v263q0 134 74 137h3q72 0 72 -148v-5q0 -222 -149 -247z" />
    <glyph glyph-name="chi" unicode="&#x3c7;" horiz-adv-x="592" 
d="M549 547h-106l-145 -270l-145 270h-106l194 -360l-212 -395h106l159 296l159 -296h106l-208 387z" />
    <glyph glyph-name="psi" unicode="&#x3c8;" horiz-adv-x="698" 
d="M414 68v479h-89v-479q-66 18 -100 44q-41 32 -41 122v313h-91v-317q0 -118 64 -176q65 -57 167 -66l1 -196h89v196q111 18 165 66q64 55 64 176v317h-91v-313q0 -87 -41 -122q-42 -36 -97 -44z" />
    <glyph glyph-name="omega" unicode="&#x3c9;" horiz-adv-x="837" 
d="M376 435v-22q0 -316 -104 -316q-70 0 -70 126v2q0 247 63 322h-93q-67 -49 -73 -319v-14q0 -214 164 -214q136 0 154 150q19 -150 155 -150h1q163 0 163 214v14q-6 270 -73 319h-93q63 -75 63 -322v-2q0 -126 -71 -126q-103 0 -103 316v22h-83z" />
    <glyph glyph-name="iotadieresis" unicode="&#x3ca;" horiz-adv-x="290" 
d="M193 758v-99h99v99h-99zM2 758v-99h100v99h-100zM102 547v-547h89v547h-89z" />
    <glyph glyph-name="upsilondieresis" unicode="&#x3cb;" horiz-adv-x="634" 
d="M359 758v-99h99v99h-99zM168 758v-99h99v99h-99zM314 -14q134 0 180 58q49 62 49 172v331h-90v-328q0 -80 -30 -116q-33 -39 -109 -39q-79 0 -109 39q-30 37 -30 116v328h-90v-331q0 -114 49 -172t180 -58z" />
    <glyph glyph-name="omicrontonos" unicode="&#x3cc;" horiz-adv-x="612" 
d="M379 800l-137 -184h75l159 184h-97zM306 484q72 0 114 -57t42 -154q0 -99 -42 -154q-42 -57 -114 -57q-73 0 -115 56q-41 58 -41 155q0 99 42 154q42 57 114 57zM306 560q-118 0 -184 -76q-67 -76 -67 -211t67 -211q66 -76 184 -76t184 76q67 76 67 211t-67 211
q-66 76 -184 76z" />
    <glyph glyph-name="upsilontonos" unicode="&#x3cd;" horiz-adv-x="634" 
d="M384 800l-137 -184h75l159 184h-97zM314 -14q134 0 180 58q49 62 49 172v331h-90v-328q0 -80 -30 -116q-33 -39 -109 -39q-79 0 -109 39q-30 37 -30 116v328h-90v-331q0 -114 49 -172t180 -58z" />
    <glyph glyph-name="omegatonos" unicode="&#x3ce;" horiz-adv-x="837" 
d="M486 800l-137 -184h75l159 184h-97zM376 435v-22q0 -316 -104 -316q-70 0 -70 126v2q0 247 63 322h-93q-67 -49 -73 -319v-14q0 -214 164 -214q136 0 154 150q19 -150 155 -150h1q163 0 163 214v14q-6 270 -73 319h-93q63 -75 63 -322v-2q0 -126 -71 -126
q-103 0 -103 316v22h-83z" />
    <glyph glyph-name="uni03D0" unicode="&#x3d0;" horiz-adv-x="614" 
d="M179 430v13q0 83 24 138q36 82 105 83h5q79 0 94 -76q2 -12 2 -20q0 -54 -61 -107q-38 -31 -169 -31zM417 398q79 72 79 158q0 16 -1 25q-24 187 -187 187q-103 0 -168 -104q-59 -92 -59 -262q0 -15 1 -24q4 -198 54 -285q56 -96 191 -104q5 -1 12 -1q116 0 170 105
q32 62 32 116q0 108 -124 189zM327 356q121 -52 121 -139q0 -22 -9 -49q-27 -73 -112 -76h-4q-78 0 -116 77q-27 51 -30 178q40 -2 54 -2q71 0 96 11z" />
    <glyph glyph-name="theta1" unicode="&#x3d1;" horiz-adv-x="619" 
d="M460 430q-132 0 -169 31q-61 52 -61 107q0 14 2 20q15 76 93 76h6q69 -1 105 -83q24 -55 24 -138v-13zM461 347q-1 -116 -41 -178q-50 -77 -114 -77q-57 0 -115 76q-37 53 -41 262h-95v-38q0 -211 67 -299q76 -104 184 -104q119 0 184 104q62 95 67 285v24q0 173 -58 262
q-65 104 -168 104q-165 0 -187 -187q-1 -9 -1 -26q0 -106 104 -177q47 -32 177 -32q24 0 37 1z" />
    <glyph glyph-name="Upsilon1" unicode="&#x3d2;" horiz-adv-x="699" 
d="M583 732q-145 0 -221 -140q-43 -79 -61 -192q-64 209 -191 291q-59 37 -110 38v-83q54 -13 115 -77q84 -88 118 -212q21 -72 21 -149v-208h99v208q0 163 57 289q44 99 107 134q27 15 53 15q31 0 40 -28q3 -14 3 -31q0 -52 -62 -55h-9v-83q60 0 104 37q48 40 48 98
q0 86 -50 126q-28 22 -61 22z" />
    <glyph glyph-name="uni03D3" unicode="&#x3d3;" horiz-adv-x="886" 
d="M125 800l-137 -184h75l159 184h-97zM791 732q-145 0 -221 -140q-43 -79 -61 -192q-64 209 -191 291q-59 37 -110 38v-83q54 -13 115 -77q84 -88 118 -212q21 -72 21 -149v-208h99v208q0 163 57 289q44 99 107 134q27 15 53 15q31 0 40 -28q3 -14 3 -31q0 -52 -62 -55h-9
v-83q60 0 104 37q48 40 48 98q0 86 -50 126q-28 22 -61 22z" />
    <glyph glyph-name="uni03D4" unicode="&#x3d4;" horiz-adv-x="699" 
d="M351 913v-99h99v99h-99zM160 913v-99h99v99h-99zM583 732q-145 0 -221 -140q-43 -79 -61 -192q-64 209 -191 291q-59 37 -110 38v-83q54 -13 115 -77q84 -88 118 -212q21 -72 21 -149v-208h99v208q0 163 57 289q44 99 107 134q27 15 53 15q31 0 40 -28q3 -14 3 -31
q0 -52 -62 -55h-9v-83q60 0 104 37q48 40 48 98q0 86 -50 126q-28 22 -61 22z" />
    <glyph glyph-name="phi1" unicode="&#x3d5;" horiz-adv-x="612" 
d="M262 68q-42 12 -71 50q-41 58 -41 155q0 98 42 155q26 37 70 49v-409zM352 68v409q44 -17 68 -50q42 -57 42 -154q0 -99 -42 -154q-28 -39 -68 -51zM352 -12q88 15 138 74q67 76 67 211t-67 211q-52 60 -138 73v203h-90v-203q-87 -12 -140 -73q-67 -79 -67 -211
q0 -130 67 -211q48 -56 140 -74v-196h90v196z" />
    <glyph glyph-name="omega1" unicode="&#x3d6;" horiz-adv-x="867" 
d="M93 464h48q-22 -77 -27 -236v-14q0 -214 163 -214h1q136 0 155 150q18 -150 154 -150h1q163 0 163 214v14q-3 149 -27 236h55v83h-686v-83zM625 464q21 -80 23 -239v-2q0 -126 -70 -126q-104 0 -104 288v16h-83v-16q0 -288 -102 -288h-1q-71 0 -71 126v2q0 149 23 239
h385z" />
    <glyph glyph-name="uni03D7" unicode="&#x3d7;" horiz-adv-x="663" 
d="M579 90q-121 0 -152 52q-25 41 -25 87q0 82 77 186l97 132h-100l-171 -225q11 22 11 44q0 57 -67 125q-62 62 -125 62q-20 0 -41 -6v-90q74 0 107 -42q43 -53 43 -113q0 -68 -55 -141l-119 -161h102l178 237q-21 -31 -21 -63q0 -64 85 -125q37 -28 90 -40
q-30 -144 -91 -144q-44 0 -102 72v-79q39 -58 99 -58q27 0 60 12q105 40 120 278z" />
    <glyph glyph-name="uni03D8" unicode="&#x3d8;" horiz-adv-x="787" 
d="M439 -12q121 13 200 101q92 103 92 275t-92 275q-91 103 -245 103t-246 -102q-92 -104 -92 -276t92 -276q79 -87 202 -100v-195h89v195zM394 662q107 0 170 -80t63 -218t-63 -218t-170 -80q-106 0 -171 80q-63 80 -63 218q0 139 64 218q63 80 170 80z" />
    <glyph glyph-name="uni03D9" unicode="&#x3d9;" horiz-adv-x="612" 
d="M306 484q72 0 114 -57t42 -154q0 -99 -42 -154q-42 -57 -114 -57q-73 0 -115 56q-41 58 -41 155q0 99 42 154q42 57 114 57zM350 -12q90 15 140 74q67 76 67 211t-67 211q-66 76 -184 76t-184 -76q-67 -76 -67 -211q0 -133 67 -211q53 -61 145 -74v-196h83v196z" />
    <glyph glyph-name="uni03DA" unicode="&#x3da;" horiz-adv-x="652" 
d="M562 640v90h-126q-180 0 -270 -140q-73 -114 -73 -285q2 -305 262 -305q117 0 118 -60v-1q0 -74 -202 -85v-64h2q292 1 292 141v11q-12 148 -209 148h-3q-169 0 -169 213v2q0 149 51 225q71 110 214 110h113z" />
    <glyph glyph-name="uni03DB" unicode="&#x3db;" horiz-adv-x="597" 
d="M493 621q-33 -69 -90 -69q-335 0 -337 -260v-1q0 -291 264 -291q86 0 88 -72v-2q0 -68 -152 -80v-54q244 0 244 135v3q-3 151 -181 160q-172 9 -172 201v1q0 176 248 176q51 0 88 70v83z" />
    <glyph glyph-name="uni03DC" unicode="&#x3dc;" horiz-adv-x="575" 
d="M98 729v-729h99v348h289v83h-289v215h320v83h-419z" />
    <glyph glyph-name="uni03DD" unicode="&#x3dd;" horiz-adv-x="525" 
d="M448 469v78h-357v-755h90v208h256v85h-255v384h266z" />
    <glyph glyph-name="uni03DE" unicode="&#x3de;" horiz-adv-x="660" 
d="M276 566q2 20 2 28q0 66 -39 101q-38 34 -152 34v-92q22 4 30 4q41 0 67 -40q5 -10 5 -21q0 -18 -11 -46l-84 -321l372 180l-75 -232q-2 -20 -2 -28q0 -67 39 -101q38 -34 152 -34v92q-15 -4 -30 -4q-42 0 -67 40q-5 8 -5 21q0 18 11 46l115 354l-381 -187z" />
    <glyph glyph-name="uni03DF" unicode="&#x3df;" horiz-adv-x="660" 
d="M566 430h-356l110 329h-90l-137 -412h357l-111 -347h90z" />
    <glyph glyph-name="uni03E0" unicode="&#x3e0;" horiz-adv-x="865" 
d="M290 653q30 9 52 9h4q168 -4 271 -127l-91 -69q-89 -69 -89 -190q0 -265 -1 -276h100v278v13q0 90 31 114q65 49 87 61q40 -61 40 -288q0 -223 -127 -386h110q120 179 120 386q0 282 -105 415q-116 145 -346 149h-13q-179 0 -277 -101v-97q48 51 151 88v-285h83v306z" />
    <glyph glyph-name="uni03E1" unicode="&#x3e1;" horiz-adv-x="627" 
d="M429 150l15 -39q47 -118 47 -291h82q0 181 -56 325q-86 212 -194 308q-118 106 -265 106v-80q103 0 195 -65q25 -18 70 -78l-265 -336h90l216 273q23 -35 32 -54l-174 -219h90z" />
    <glyph glyph-name="uni03F0" unicode="&#x3f0;" horiz-adv-x="663" 
d="M576 547h-100l-195 -264q17 31 17 62q0 67 -76 146q-60 62 -124 62q-21 0 -42 -6v-90q75 0 108 -42q45 -59 45 -125q0 -85 -70 -180l-80 -110h102l200 271q-13 -28 -13 -53q0 -54 48 -123q65 -95 183 -95v90q-76 0 -127 83q-25 40 -25 88q0 86 83 198z" />
    <glyph glyph-name="uni03F1" unicode="&#x3f1;" horiz-adv-x="635" 
d="M91 268l-1 -120v-8q0 -348 242 -348h236v83h-244q-140 0 -143 207q56 -96 175 -96q99 0 162 79q62 80 62 208t-62 208q-63 79 -162 79q-89 0 -118 -17q-72 -42 -103 -94q-44 -82 -44 -181zM487 273q0 -98 -41 -156q-41 -56 -112 -56t-112 56q-41 58 -41 156q0 99 41 155
q40 57 112 57t112 -57q41 -56 41 -155z" />
    <glyph glyph-name="uni03F2" unicode="&#x3f2;" horiz-adv-x="550" 
d="M488 526q-74 34 -158 34q-128 0 -202 -77q-73 -78 -73 -210q0 -131 73 -210q72 -77 196 -77q86 0 164 35v83q-76 -42 -154 -42q-87 0 -136 55q-48 55 -48 156t48 155q48 56 136 56q78 0 154 -42v84z" />
    <glyph glyph-name="uni03F3" unicode="&#x3f3;" horiz-adv-x="278" 
d="M94 547v-557q0 -74 -18 -98q-19 -24 -70 -24h-24v-76h34q89 0 128 47q40 46 40 151v557h-90zM94 760v-114h90v114h-90z" />
    <glyph glyph-name="uni03F4" unicode="&#x3f4;" horiz-adv-x="787" 
d="M626 347q-3 -125 -62 -201q-63 -80 -170 -80t-170 80q-59 74 -64 201h466zM623 430h-458q12 93 59 152q63 80 170 80t170 -80q49 -62 59 -152zM394 742q-154 0 -246 -102q-92 -104 -92 -276t92 -276q92 -102 246 -102t245 103q92 103 92 275t-92 275q-91 103 -245 103z
" />
    <glyph glyph-name="uni03F5" unicode="&#x3f5;" horiz-adv-x="615" 
d="M480 460v80q-33 8 -38 9q-50 11 -103 11q-131 0 -207 -76q-77 -77 -77 -211t77 -211q76 -76 207 -76q56 0 103 11l38 8v82l-36 -12q-36 -13 -100 -13q-90 0 -139 48q-46 44 -55 128h330v70h-330q9 84 55 128q49 48 139 48q48 0 100 -13q10 -2 36 -11z" />
    <glyph glyph-name="uni03F6" unicode="&#x3f6;" horiz-adv-x="615" 
d="M96 460q24 8 36 11q52 13 100 13q90 0 139 -48q46 -44 55 -128h-330v-70h330q-9 -84 -55 -128q-49 -48 -139 -48q-64 0 -100 13l-36 12v-82l38 -8q47 -11 103 -11q132 0 207 76q77 76 77 211t-77 211q-75 76 -207 76q-54 0 -103 -11q-5 -1 -38 -9v-80z" />
    <glyph glyph-name="uni03F7" unicode="&#x3f7;" horiz-adv-x="605" 
d="M98 729v-729h99v165h124q122 0 185 55.5t63 162.5t-63 162t-185 55h-124v129h-99zM197 519h124q69 0 106.5 -35.5t37.5 -100.5q0 -66 -37.5 -101.5t-106.5 -35.5h-124v273z" />
    <glyph glyph-name="uni03F8" unicode="&#x3f8;" horiz-adv-x="635" 
d="M181 82q56 -96 175 -96q99 0 162 79q62 80 62 208t-62 208q-63 79 -162 79q-119 0 -175 -96v296h-90v-968h90v290zM487 273q0 -98 -41 -156q-41 -56 -112 -56t-112 56q-41 58 -41 156q0 99 41 155q40 57 112 57t112 -57q41 -56 41 -155z" />
    <glyph glyph-name="uni03F9" unicode="&#x3f9;" horiz-adv-x="698" 
d="M644 673q-102 69 -232 69q-165 0 -261 -101q-95 -103 -95 -277t95 -277q96 -101 261 -101q129 0 232 70v103q-98 -92 -226 -92q-125 0 -191.5 76.5t-66.5 220.5q0 145 66.5 221t191.5 76q128 0 226 -92v104z" />
    <glyph glyph-name="uni03FA" unicode="&#x3fa;" horiz-adv-x="863" 
d="M98 729v-729h96v640l188 -238h99l188 238v-640h96v729h-147l-187 -234l-186 234h-147z" />
    <glyph glyph-name="uni03FB" unicode="&#x3fb;" horiz-adv-x="697" 
d="M353 193l169 268v-461h90v547h-124l-135 -235l-136 235h-124v-755h90v674z" />
    <glyph glyph-name="uni03FC" unicode="&#x3fc;" horiz-adv-x="635" 
d="M91 -70h-49v-83h49v-55h90v55h237v83h-237v152q56 -96 175 -96q99 0 162 79q62 80 62 208t-62 208q-63 79 -162 79q-89 0 -118 -17q-72 -42 -103 -94q-44 -66 -44 -181v-338zM487 273q0 -98 -41 -156q-41 -56 -112 -56t-112 56q-41 58 -41 156q0 99 41 155q40 57 112 57
t112 -57q41 -56 41 -155z" />
    <glyph glyph-name="uni03FD" unicode="&#x3fd;" horiz-adv-x="698" 
d="M59 673v-104q98 92 226 92q125 0 191.5 -76t66.5 -221q0 -144 -66.5 -220.5t-191.5 -76.5q-128 0 -226 92v-103q103 -70 232 -70q165 0 261 101q95 103 95 277t-95 277q-96 101 -261 101q-130 0 -232 -69z" />
    <glyph glyph-name="uni03FE" unicode="&#x3fe;" horiz-adv-x="698" 
d="M644 673q-102 69 -232 69q-165 0 -261 -101q-95 -103 -95 -277t95 -277q96 -101 261 -101q129 0 232 70v103q-98 -92 -226 -92q-125 0 -191.5 76.5t-66.5 220.5q0 145 66.5 221t191.5 76q128 0 226 -92v104zM382 409v-124h103v124h-103z" />
    <glyph glyph-name="uni03FF" unicode="&#x3ff;" horiz-adv-x="698" 
d="M319 409h-103v-124h103v124zM57 673v-104q99 92 226 92q125 0 191.5 -76t66.5 -221q0 -144 -66.5 -220.5t-191.5 -76.5q-127 0 -226 92v-103q103 -70 232 -70q165 0 261 101q95 103 95 277t-95 277q-96 101 -261 101q-130 0 -232 -69z" />
    <glyph glyph-name="uni0400" unicode="&#x400;" horiz-adv-x="632" 
d="M98 729v-729h470v83h-371v264h347v83h-347v216h362v83h-461zM338 927h-91l112 -129h75z" />
    <glyph glyph-name="afii10023" unicode="&#x401;" horiz-adv-x="632" 
d="M98 729v-729h470v83h-371v264h347v83h-347v216h362v83h-461zM408 913v-99h99v99h-99zM217 913v-99h99v99h-99z" />
    <glyph glyph-name="afii10051" unicode="&#x402;" horiz-adv-x="786" 
d="M709 51v149q0 116 -53 172q-55 58 -146 58h-204v216h259v83h-568v-83h210v-646h99v347h184q121 0 121 -155v-141q0 -95 -27 -132q-27 -36 -93 -36h-30v-83h37q111 0 161 59q50 61 50 192z" />
    <glyph glyph-name="afii10052" unicode="&#x403;" horiz-adv-x="557" 
d="M98 0h99v646h355v83h-454v-729zM362 927l-96 -129h75l111 129h-90z" />
    <glyph glyph-name="afii10053" unicode="&#x404;" horiz-adv-x="698" 
d="M160 347h341v83h-337q12 96 63 155q66 76 191 76q62 0 120 -23q56 -22 106 -69v104q-50 34 -109 52q-59 17 -123 17q-165 0 -261 -101q-95 -103 -95 -277t95 -277q96 -101 261 -101q63 0 122 17q55 17 110 53v103q-50 -47 -106 -69q-58 -23 -120 -23q-126 0 -191 77
q-62 70 -67 203z" />
    <glyph glyph-name="afii10054" unicode="&#x405;" horiz-adv-x="635" 
d="M535 705q-110 37 -213 37q-121 0 -188 -55q-68 -56 -68 -153q0 -83 49 -130q50 -47 160 -69l60 -12q75 -15 108 -45t33 -84q0 -62 -45.5 -95t-130.5 -33q-110 0 -231 68v-102q123 -46 231 -46q137 0 208 54.5t71 160.5q0 89 -52.5 142t-162.5 74l-60 12q-80 15 -110 40
q-29 24 -29 73q0 58 44 89t124 31q92 0 202 -53v96z" />
    <glyph glyph-name="afii10055" unicode="&#x406;" horiz-adv-x="295" 
d="M98 729v-729h99v729h-99z" />
    <glyph glyph-name="afii10056" unicode="&#x407;" horiz-adv-x="295" 
d="M98 729v-729h99v729h-99zM194 913v-99h99v99h-99zM3 913v-99h99v99h-99z" />
    <glyph glyph-name="afii10057" unicode="&#x408;" horiz-adv-x="295" 
d="M98 729v-678q0 -95 -27 -132q-27 -36 -92 -36h-31v-83h38q110 0 160 59q51 60 51 192v678h-99z" />
    <glyph glyph-name="afii10058" unicode="&#x409;" horiz-adv-x="1094" 
d="M555 646v-646h213q124 0 189.5 53.5t65.5 160.5t-65.5 161t-189.5 54h-115v300h-433v-138q0 -277 -57 -419q-32 -81 -137 -105v-81q181 27 227 151q65 168 65 405v104h237zM919 214q0 -67 -39 -100t-117 -33h-110v267h110q79 0 117 -33q39 -33 39 -101z" />
    <glyph glyph-name="afii10059" unicode="&#x40a;" horiz-adv-x="1045" 
d="M506 0h213q125 0 190.5 53.5t65.5 160.5t-65.5 161t-190.5 54h-114v300h-99v-299h-309v299h-99v-729h99v347h309v-347zM871 214q0 -67 -39 -100t-118 -33h-109v267h109q80 0 118 -33q39 -33 39 -101z" />
    <glyph glyph-name="afii10060" unicode="&#x40b;" horiz-adv-x="786" 
d="M510 430h-204v216h259v83h-568v-83h210v-646h99v347h184q121 0 121 -155v-192h98v200q0 116 -53 172q-55 58 -146 58z" />
    <glyph glyph-name="afii10061" unicode="&#x40c;" horiz-adv-x="656" 
d="M98 729v-729h99v351l350 -351h130l-388 389l362 340h-127l-327 -308v308h-99zM393 927l-96 -129h75l111 129h-90z" />
    <glyph glyph-name="uni040D" unicode="&#x40d;" horiz-adv-x="748" 
d="M650 729h-133l-323 -610v610h-96v-729h133l323 610v-610h96v729zM334 927h-91l112 -129h75z" />
    <glyph glyph-name="afii10062" unicode="&#x40e;" horiz-adv-x="609" 
d="M153 928q11 -118 153 -118t153 118h-58q-15 -54 -95 -54q-83 0 -95 54h-58zM320 88l272 641h-106l-182 -428l-181 428h-106l234 -552l-22 -52q-2 -5 -11 -20q-24 -36 -92 -36h-31v-83h38q110 0 161 59q13 17 26 43z" />
    <glyph glyph-name="afii10145" unicode="&#x40f;" horiz-adv-x="752" 
d="M342 0v-208h98v208h214v729h-99v-646h-358v646h-99v-729h244z" />
    <glyph glyph-name="afii10017" unicode="&#x410;" horiz-adv-x="684" 
d="M342 632l134 -363h-268zM286 729l-278 -729h104l66 187h329l66 -187h103l-278 729h-112z" />
    <glyph glyph-name="afii10018" unicode="&#x411;" horiz-adv-x="686" 
d="M511 214q0 -68 -38 -100q-39 -33 -118 -33h-158v267h158q79 0 118 -33q38 -32 38 -101zM511 729h-413v-729h262q124 0 189.5 53.5t65.5 160.5t-65.5 161t-189.5 54h-163v219h314v81z" />
    <glyph glyph-name="afii10019" unicode="&#x412;" horiz-adv-x="686" 
d="M197 348h158q80 0 118 -32.5t38 -100.5q0 -134 -156 -134h-158v267zM197 648h146q143 0 143 -110t-143 -110h-146v220zM98 729v-729h262q121 0 189 53q66 54 66 151q0 74 -40 123.5t-113 65.5q123 20 123 156q0 86 -61 133t-174 47h-252z" />
    <glyph glyph-name="afii10020" unicode="&#x413;" horiz-adv-x="557" 
d="M98 0h99v646h355v83h-454v-729z" />
    <glyph glyph-name="afii10021" unicode="&#x414;" horiz-adv-x="776" 
d="M223 83q21 28 30 54q65 165 65 405v104h237v-563h-332zM74 83h-50v-291h98v208h531v-208h98v291h-98v646h-433v-138q0 -275 -57 -419q-25 -61 -89 -89z" />
    <glyph glyph-name="afii10022" unicode="&#x415;" horiz-adv-x="632" 
d="M98 729v-729h470v83h-371v264h347v83h-347v216h362v83h-461z" />
    <glyph glyph-name="afii10024" unicode="&#x416;" horiz-adv-x="863" 
d="M481 430v299h-99v-299h-72l-151 299h-106l171 -340l-195 -389h106l174 347h73v-347h99v347h73l175 -347h105l-195 389l171 340h-106l-150 -299h-73z" />
    <glyph glyph-name="afii10025" unicode="&#x417;" horiz-adv-x="636" 
d="M406 393q64 16 98.5 58t34.5 102q0 87 -65 138q-66 51 -178 51q-87 0 -198 -31v-88q107 36 189 36q74 0 114 -30t40 -86q0 -55 -38.5 -84t-111.5 -29h-89v-81h85q81 0 126 -36t45 -101q0 -70 -48.5 -106.5t-141.5 -36.5q-110 0 -192 48v-95q104 -36 195 -36q139 0 211 59
q74 59 74 167q0 71 -40 118q-39 48 -110 63z" />
    <glyph glyph-name="afii10026" unicode="&#x418;" horiz-adv-x="748" 
d="M650 729h-133l-323 -610v610h-96v-729h133l323 610v-610h96v729z" />
    <glyph glyph-name="afii10027" unicode="&#x419;" horiz-adv-x="748" 
d="M217 928q11 -118 153 -118t153 118h-58q-15 -54 -95 -54q-83 0 -95 54h-58zM650 729h-133l-323 -610v610h-96v-729h133l323 610v-610h96v729z" />
    <glyph glyph-name="afii10028" unicode="&#x41a;" horiz-adv-x="656" 
d="M98 729v-729h99v351l350 -351h130l-388 389l362 340h-127l-327 -308v308h-99z" />
    <glyph glyph-name="afii10029" unicode="&#x41b;" horiz-adv-x="752" 
d="M26 -14q180 27 227 151q65 169 65 405v104h237v-646h98v729h-433v-138q0 -275 -57 -419q-33 -81 -137 -104v-82z" />
    <glyph glyph-name="afii10030" unicode="&#x41c;" horiz-adv-x="863" 
d="M98 729v-729h96v640l188 -500h99l188 500v-640h96v729h-147l-187 -496l-186 496h-147z" />
    <glyph glyph-name="afii10031" unicode="&#x41d;" horiz-adv-x="752" 
d="M98 729v-729h99v347h358v-347h99v729h-99v-299h-358v299h-99z" />
    <glyph glyph-name="afii10032" unicode="&#x41e;" horiz-adv-x="787" 
d="M394 662q107 0 170 -80t63 -218t-63 -218t-170 -80q-106 0 -171 80q-63 80 -63 218t63 218q65 80 171 80zM394 742q-155 0 -246 -103q-92 -103 -92 -275t92 -276q92 -102 246 -102t245 102q92 104 92 276t-92 275q-91 103 -245 103z" />
    <glyph glyph-name="afii10033" unicode="&#x41f;" horiz-adv-x="752" 
d="M654 729h-556v-729h99v646h358v-646h99v729z" />
    <glyph glyph-name="afii10034" unicode="&#x420;" horiz-adv-x="603" 
d="M197 648h124q69 0 106.5 -35.5t37.5 -101.5t-37.5 -101.5t-106.5 -35.5h-124v274zM98 729v-729h99v293h124q248 0 248 218q0 107 -63 162.5t-185 55.5h-223z" />
    <glyph glyph-name="afii10035" unicode="&#x421;" horiz-adv-x="698" 
d="M644 673q-102 69 -232 69q-165 0 -261 -101q-95 -103 -95 -277t95 -277q96 -101 261 -101q129 0 232 70v103q-98 -92 -226 -92q-125 0 -191.5 76.5t-66.5 220.5q0 145 66.5 221t191.5 76q128 0 226 -92v104z" />
    <glyph glyph-name="afii10036" unicode="&#x422;" horiz-adv-x="611" 
d="M-3 729v-83h259v-646h99v646h259v83h-617z" />
    <glyph glyph-name="afii10037" unicode="&#x423;" horiz-adv-x="609" 
d="M320 88l272 641h-106l-182 -428l-181 428h-106l234 -552l-22 -52q-2 -5 -11 -20q-24 -36 -92 -36h-31v-83h38q110 0 161 59q13 17 26 43z" />
    <glyph glyph-name="afii10038" unicode="&#x424;" horiz-adv-x="787" 
d="M345 569v-410q-75 11 -121 52q-64 57 -64 153t64 153q46 41 121 52zM443 159v410q75 -11 121 -52q63 -57 63 -153t-63 -153q-46 -41 -121 -52zM345 77v-77h98v77q118 10 196 76q92 80 92 211t-92 211q-78 66 -196 76v78h-98v-78q-120 -10 -197 -76q-92 -80 -92 -211
t92 -211q79 -66 197 -76z" />
    <glyph glyph-name="afii10039" unicode="&#x425;" horiz-adv-x="685" 
d="M63 729l227 -340l-260 -389h106l207 310l205 -310h106l-250 379l234 350h-106l-182 -271l-181 271h-106z" />
    <glyph glyph-name="afii10040" unicode="&#x426;" horiz-adv-x="776" 
d="M654 0v-208h98v291h-98v646h-99v-646h-358v646h-99v-729h556z" />
    <glyph glyph-name="afii10041" unicode="&#x427;" horiz-adv-x="686" 
d="M488 0h99v729h-99v-299h-183q-121 0 -121 155v144h-99v-152q0 -117 54 -172q55 -58 146 -58h203v-347z" />
    <glyph glyph-name="afii10042" unicode="&#x428;" horiz-adv-x="1003" 
d="M550 83v608h-99v-608h-254v646h-99v-729h805v729h-99v-646h-254z" />
    <glyph glyph-name="afii10043" unicode="&#x429;" horiz-adv-x="1025" 
d="M903 0v-208h98v291h-98v646h-99v-646h-254v608h-99v-608h-254v646h-99v-729h805z" />
    <glyph glyph-name="afii10044" unicode="&#x42a;" horiz-adv-x="833" 
d="M245 0h261q125 0 190.5 53.5t65.5 160.5t-65.5 161t-190.5 54h-163v300h-319v-83h221v-646zM658 214q0 -67 -39 -100t-118 -33h-158v267h158q81 0 118 -33q39 -33 39 -101z" />
    <glyph glyph-name="afii10045" unicode="&#x42b;" horiz-adv-x="882" 
d="M685 729v-729h99v729h-99zM511 214q0 -68 -38 -100q-39 -33 -118 -33h-158v267h158q79 0 118 -33q38 -32 38 -101zM98 729v-729h262q124 0 189.5 53.5t65.5 160.5t-65.5 161t-189.5 54h-163v300h-99z" />
    <glyph glyph-name="afii10046" unicode="&#x42c;" horiz-adv-x="686" 
d="M511 214q0 -68 -38 -100q-39 -33 -118 -33h-158v267h158q79 0 118 -33q38 -32 38 -101zM98 729v-729h262q124 0 189.5 53.5t65.5 160.5t-65.5 161t-189.5 54h-163v300h-99z" />
    <glyph glyph-name="afii10047" unicode="&#x42d;" horiz-adv-x="698" 
d="M538 347q-3 -133 -66 -203q-67 -77 -192 -77q-62 0 -120 23q-57 23 -106 69v-103q55 -36 110 -53q60 -17 122 -17q165 0 261 101q95 103 95 277t-95 277q-96 101 -261 101q-63 0 -123 -17q-60 -19 -109 -52v-104q49 46 106 69q58 23 120 23q125 0 192 -76q50 -59 62 -155
h-337v-83h341z" />
    <glyph glyph-name="afii10048" unicode="&#x42e;" horiz-adv-x="1031" 
d="M638 662q107 0 170 -80t63 -218t-63 -218t-170 -80q-108 0 -171 80t-63 218t63 218t171 80zM303 430h-101v299h-99v-729h99v347h98q5 -163 92 -259q92 -102 246 -102t245 103q92 103 92 275t-92 276q-92 102 -245 102q-154 0 -246 -102q-74 -81 -89 -210z" />
    <glyph glyph-name="afii10049" unicode="&#x42f;" horiz-adv-x="695" 
d="M251 342q-62 -20 -122 -143l-100 -199h106l93 187q36 73 70 97t93 24h107v-308h99v729h-223q-248 0 -248 -210q0 -142 125 -177zM498 648v-259h-124q-144 0 -144 130q0 129 144 129h124z" />
    <glyph glyph-name="afii10065" unicode="&#x430;" horiz-adv-x="613" 
d="M343 275h89v-20q0 -89 -45 -141q-45 -53 -120 -53q-54 0 -85.5 28t-31.5 76q0 59 42 85q41 25 151 25zM522 312q0 248 -236 248q-86 0 -186 -38v-83q82 45 177 45q74 0 114.5 -34t40.5 -96v-9h-126q-246 0 -246 -186q0 -79 49 -126q50 -47 134 -47q129 0 189 97v-83h90
v312z" />
    <glyph glyph-name="afii10066" unicode="&#x431;" horiz-adv-x="612" 
d="M490 633v75q-58 34 -166 34q-216 0 -216 -133q0 -68 77 -107q-38 -18 -63 -49q-67 -82 -67 -180q0 -133 67 -211q67 -76 184 -76q118 0 184 76q67 76 67 206q0 135 -69 201q-56 55 -159 73q-129 24 -129 68q0 57 124 57q117 0 166 -34zM252 478q23 -7 57 -10
q63 -6 108 -56q45 -46 45 -144q0 -94 -42 -149q-42 -57 -114 -57q-73 0 -115 56q-41 56 -41 155q0 100 42 155q26 34 60 50z" />
    <glyph glyph-name="afii10067" unicode="&#x432;" horiz-adv-x="586" 
d="M181 251h128q61 0 95 -22q31 -20 31 -66q0 -44 -31 -66q-32 -22 -95 -22h-128v176zM181 472h118q57 0 87 -18q28 -18 28 -53q0 -36 -28 -54q-30 -18 -87 -18h-118v143zM91 547v-547h222q105 0 161 40q56 41 56 113q0 56 -34 93t-96 49q51 7 78 37q26 29 26 80
q0 65 -51.5 100t-147.5 35h-214z" />
    <glyph glyph-name="afii10068" unicode="&#x433;" horiz-adv-x="491" 
d="M91 0h90v464h296v83h-386v-547z" />
    <glyph glyph-name="afii10069" unicode="&#x434;" horiz-adv-x="672" 
d="M206 75q5 18 14 26q58 109 58 306v65h190v-397h-262zM76 75h-52v-283h90v208h444v-208h89v283h-89v472h-370v-104q0 -203 -48 -307q-19 -42 -64 -61z" />
    <glyph glyph-name="afii10070" unicode="&#x435;" horiz-adv-x="615" 
d="M562 296q0 122 -64 193q-65 71 -175 71q-123 0 -196 -79q-72 -78 -72 -213q0 -128 76 -206q77 -76 208 -76q106 0 202 42v85q-96 -51 -197 -51q-89 0 -139 48.5t-56 141.5h413v44zM472 322h-320q6 76 52 119q44 43 120 43q66 0 107 -44t41 -118z" />
    <glyph glyph-name="afii10072" unicode="&#x436;" horiz-adv-x="733" 
d="M412 329v218h-90v-218h-55l-126 218h-96l145 -255l-166 -292h97l146 254h55v-254h90v254h55l146 -254h96l-166 292l145 255h-95l-126 -218h-55z" />
    <glyph glyph-name="afii10073" unicode="&#x437;" horiz-adv-x="541" 
d="M345 295q55 12 84 43q29 32 29 77q0 69 -56 107q-54 39 -151 39q-72 0 -168 -24v-81q52 15 87 20q39 6 74 6q58 0 92 -22t34 -54q0 -34 -33 -56q-33 -21 -89 -21h-76v-75h72q68 0 102 -25q38 -26 38 -70q0 -45 -41 -71q-42 -27 -115 -27q-50 0 -87 8q-47 12 -76 28v-84
q46 -14 85 -20q39 -7 80 -7q117 0 180 44.5t63 128.5q0 52 -34 88t-94 48z" />
    <glyph glyph-name="afii10074" unicode="&#x438;" horiz-adv-x="657" 
d="M562 547h-115l-263 -438v438h-90v-547h115l264 439v-439h89v547z" />
    <glyph glyph-name="afii10075" unicode="&#x439;" horiz-adv-x="657" 
d="M175 760q11 -140 153 -140t153 140h-58q-12 -73 -95 -73q-85 0 -95 73h-58zM562 547h-115l-263 -438v438h-90v-547h115l264 439v-439h89v547z" />
    <glyph glyph-name="afii10076" unicode="&#x43a;" horiz-adv-x="604" 
d="M93 547v-547h91v267l277 -267h118l-303 291l290 256h-114l-268 -236v236h-91z" />
    <glyph glyph-name="afii10077" unicode="&#x43b;" horiz-adv-x="639" 
d="M22 -14q150 13 197 115q57 127 57 306v65h190v-472h90v547h-369v-104q0 -203 -48 -307q-29 -63 -117 -75v-75z" />
    <glyph glyph-name="afii10078" unicode="&#x43c;" horiz-adv-x="754" 
d="M94 547v-547h87v461l152 -356h89l151 356v-461h87v547h-127l-156 -366l-155 366h-128z" />
    <glyph glyph-name="afii10079" unicode="&#x43d;" horiz-adv-x="661" 
d="M94 547v-547h90v252h293v-252h89v547h-89v-225h-293v225h-90z" />
    <glyph glyph-name="afii10080" unicode="&#x43e;" horiz-adv-x="612" 
d="M306 484q72 0 114 -57t42 -154q0 -99 -42 -154q-42 -57 -114 -57q-73 0 -115 56q-41 58 -41 155q0 99 42 154q42 57 114 57zM306 560q-118 0 -184 -76q-67 -76 -67 -211t67 -211q66 -76 184 -76t184 76q67 76 67 211t-67 211q-66 76 -184 76z" />
    <glyph glyph-name="afii10081" unicode="&#x43f;" horiz-adv-x="660" 
d="M566 547h-472v-547h90v472h293v-472h89v547z" />
    <glyph glyph-name="afii10082" unicode="&#x440;" horiz-adv-x="635" 
d="M181 82q56 -96 175 -96q99 0 162 79q62 80 62 208t-62 208q-63 79 -162 79q-119 0 -175 -96v83h-90v-755h90v290zM487 273q0 -98 -41 -156q-41 -56 -112 -56t-112 56q-41 58 -41 156q0 99 41 155q40 57 112 57t112 -57q41 -56 41 -155z" />
    <glyph glyph-name="afii10083" unicode="&#x441;" horiz-adv-x="550" 
d="M488 526q-74 34 -158 34q-128 0 -202 -77q-73 -78 -73 -210q0 -131 73 -210q72 -77 196 -77q86 0 164 35v83q-76 -42 -154 -42q-87 0 -136 55q-48 55 -48 156t48 155q48 56 136 56q78 0 154 -42v84z" />
    <glyph glyph-name="afii10084" unicode="&#x442;" horiz-adv-x="529" 
d="M2 547v-83h218v-464h89v464h217v83h-524z" />
    <glyph glyph-name="afii10085" unicode="&#x443;" horiz-adv-x="592" 
d="M322 -51l240 598h-95l-171 -428l-171 428h-95l221 -538l-16 -41q-26 -67 -46 -83q-19 -18 -57 -18h-53v-75h72q61 0 97 30q36 31 74 127z" />
    <glyph glyph-name="afii10086" unicode="&#x444;" horiz-adv-x="917" 
d="M150 273q0 102 34 158q33 53 97 53t99 -53q33 -54 33 -158t-33 -158q-35 -53 -99 -53t-97 53q-34 56 -34 158zM413 -208h90v277q23 -41 59 -62q38 -21 87 -21q99 0 156 76q56 76 56 209q0 135 -56 212t-156 77q-49 0 -86 -21q-36 -21 -60 -62v252h-90v-252q-23 41 -59 62
q-38 21 -87 21q-100 0 -155 -77q-57 -77 -57 -212q0 -134 57 -209q57 -76 155 -76q50 0 87 22q36 21 59 62v-278zM767 273q0 -104 -33 -158q-33 -53 -98 -53q-133 0 -133 211q0 102 34 158q35 53 99 53q65 0 98 -53q33 -54 33 -158z" />
    <glyph glyph-name="afii10087" unicode="&#x445;" horiz-adv-x="592" 
d="M549 547h-106l-145 -195l-145 195h-106l194 -261l-212 -286h106l159 215l159 -215h106l-208 281z" />
    <glyph glyph-name="afii10088" unicode="&#x446;" horiz-adv-x="681" 
d="M566 0v-208h90v283h-90v472h-89v-472h-293v472h-90v-547h472z" />
    <glyph glyph-name="afii10089" unicode="&#x447;" horiz-adv-x="591" 
d="M410 0h90v547h-90v-218h-145q-50 0 -77 29q-25 28 -25 86v103h-90v-114q0 -90 45 -132q50 -47 125 -47h167v-254z" />
    <glyph glyph-name="afii10090" unicode="&#x448;" horiz-adv-x="873" 
d="M481 75v443h-90v-443h-207v472h-90v-547h684v547h-90v-472h-207z" />
    <glyph glyph-name="afii10091" unicode="&#x449;" horiz-adv-x="893" 
d="M778 0v-208h90v283h-90v472h-90v-472h-207v443h-90v-443h-207v472h-90v-547h684z" />
    <glyph glyph-name="afii10092" unicode="&#x44a;" horiz-adv-x="703" 
d="M552 162q0 -44 -31 -65q-31 -22 -95 -22h-128v176h128q64 0 95 -22q31 -21 31 -67zM208 472v-472h222q105 0 161 40q56 41 56 122t-56 122q-60 42 -161 42h-132v221h-277v-75h187z" />
    <glyph glyph-name="afii10093" unicode="&#x44b;" horiz-adv-x="765" 
d="M438 162q0 -44 -30 -65q-32 -22 -96 -22h-128v176h128q64 0 96 -22q30 -21 30 -67zM94 547v-547h222q105 0 161 40q57 40 57 122t-57 122q-60 42 -161 42h-132v221h-90zM586 547v-547h90v547h-90z" />
    <glyph glyph-name="afii10094" unicode="&#x44c;" horiz-adv-x="589" 
d="M438 162q0 -44 -30 -65q-32 -22 -96 -22h-128v176h128q64 0 96 -22q30 -21 30 -67zM94 547v-547h222q105 0 161 40q57 40 57 122t-57 122q-60 42 -161 42h-132v221h-90z" />
    <glyph glyph-name="afii10095" unicode="&#x44d;" horiz-adv-x="615" 
d="M135 460q24 8 36 11q52 13 100 13q89 0 139 -48q46 -44 55 -128h-330v-70h330q-9 -84 -55 -128q-50 -48 -139 -48q-54 0 -100 13q-47 11 -97 38v-85q98 -42 202 -42q132 0 207 76q77 76 77 211t-77 211q-75 76 -207 76q-56 0 -103 -11q-5 -1 -38 -9v-80z" />
    <glyph glyph-name="afii10096" unicode="&#x44e;" horiz-adv-x="812" 
d="M507 484q72 0 114 -57q42 -59 42 -154q0 -96 -42 -154q-42 -57 -114 -57q-73 0 -115 56q-41 56 -41 155q0 98 42 155q41 56 114 56zM259 329h-75v218h-90v-547h90v254h72q5 -121 67 -192q66 -76 184 -76q117 0 184 76q67 78 67 211t-67 211q-67 76 -184 76
q-118 0 -184 -76q-55 -62 -64 -155z" />
    <glyph glyph-name="afii10097" unicode="&#x44f;" horiz-adv-x="602" 
d="M213 256q-25 -7 -52 -34q-29 -30 -52 -73l-85 -149h96l79 140q29 54 59 73q28 18 76 18h83v-231h90v547h-189q-106 0 -159 -39q-52 -41 -52 -119q0 -105 106 -133zM417 471v-164h-97q-60 0 -89 21q-31 21 -31 61q0 41 31 62q32 20 89 20h97z" />
    <glyph glyph-name="uni0450" unicode="&#x450;" horiz-adv-x="615" 
d="M223 802h-96l159 -182h75zM562 296q0 122 -64 193q-65 71 -175 71q-123 0 -196 -79q-72 -78 -72 -213q0 -128 76 -206q77 -76 208 -76q106 0 202 42v85q-96 -51 -197 -51q-89 0 -139 48.5t-56 141.5h413v44zM472 322h-320q6 76 52 119q44 43 120 43q66 0 107 -44t41 -118
z" />
    <glyph glyph-name="afii10071" unicode="&#x451;" horiz-adv-x="615" 
d="M369 758v-99h99v99h-99zM178 758v-99h99v99h-99zM562 296q0 122 -64 193q-65 71 -175 71q-123 0 -196 -79q-72 -78 -72 -213q0 -128 76 -206q77 -76 208 -76q106 0 202 42v85q-96 -51 -197 -51q-89 0 -139 48.5t-56 141.5h413v44zM472 322h-320q6 76 52 119q44 43 120 43
q66 0 107 -44t41 -118z" />
    <glyph glyph-name="afii10099" unicode="&#x452;" horiz-adv-x="644" 
d="M94 627v-627h91v267q0 77 42 126q39 46 114 46q62 0 91 -38q30 -39 30 -116v-295q0 -71 -18 -98q-16 -24 -70 -24h-24v-76h34q89 0 128 47q40 46 40 151v298q0 118 -48 171q-53 59 -143 59q-54 0 -101 -25q-43 -24 -75 -74v208h159v61h-159v72h-91v-72h-74v-61h74z" />
    <glyph glyph-name="afii10100" unicode="&#x453;" horiz-adv-x="491" 
d="M383 803l-137 -184h75l159 184h-97zM91 0h90v464h296v83h-386v-547z" />
    <glyph glyph-name="afii10101" unicode="&#x454;" horiz-adv-x="615" 
d="M480 460v80q-33 8 -38 9q-47 11 -103 11q-131 0 -207 -76q-77 -77 -77 -211t77 -211q76 -76 207 -76q106 0 202 42v85q-50 -27 -97 -38q-46 -13 -100 -13q-90 0 -139 48q-46 44 -55 128h330v70h-330q9 84 55 128q49 48 139 48q48 0 100 -13q10 -2 36 -11z" />
    <glyph glyph-name="afii10102" unicode="&#x455;" horiz-adv-x="521" 
d="M443 531q-75 29 -175 29q-101 0 -155.5 -42t-54.5 -119q0 -64 37 -100t121 -54l31 -7q83 -18 108 -38q25 -19 25 -56q0 -40 -34 -61.5t-98 -21.5q-94 0 -194 52v-93q105 -34 192 -34q107 0 166 44q60 45 60 121q0 66 -40 104q-40 37 -136 58l-31 7q-73 17 -96 34
q-24 16 -24 49q0 82 134 82q87 0 164 -39v85z" />
    <glyph glyph-name="afii10103" unicode="&#x456;" horiz-adv-x="278" 
d="M94 547v-547h90v547h-90zM94 760v-114h90v114h-90z" />
    <glyph glyph-name="afii10104" unicode="&#x457;" horiz-adv-x="278" 
d="M185 758v-99h99v99h-99zM-6 758v-99h99v99h-99zM94 547v-547h90v547h-90z" />
    <glyph glyph-name="afii10105" unicode="&#x458;" horiz-adv-x="278" 
d="M94 547v-557q0 -74 -18 -98q-19 -24 -70 -24h-24v-76h34q89 0 128 47q40 46 40 151v557h-90zM94 760v-114h90v114h-90z" />
    <glyph glyph-name="afii10106" unicode="&#x459;" horiz-adv-x="898" 
d="M452 472v-472h173q106 0 161 40q57 40 57 122t-57 122q-59 42 -161 42h-83v221h-355v-104q0 -203 -48 -307q-29 -63 -117 -75v-75q150 13 197 115q57 127 57 306v65h176zM747 162q0 -44 -30 -65q-32 -22 -95 -22h-80v176h80q63 0 95 -22q30 -21 30 -67z" />
    <glyph glyph-name="afii10107" unicode="&#x45a;" horiz-adv-x="892" 
d="M746 162q0 -44 -30 -65q-32 -22 -95 -22h-80v176h80q63 0 95 -22q30 -21 30 -67zM451 0h174q105 0 160 40q57 40 57 122t-57 122q-58 42 -160 42h-84v221h-90v-221h-267v221h-90v-547h90v251h267v-251z" />
    <glyph glyph-name="afii10108" unicode="&#x45b;" horiz-adv-x="637" 
d="M94 627v-627h91v267q0 78 42 126q39 46 114 46q62 0 91 -38q30 -39 30 -116v-285h90v288q0 116 -48 171q-51 59 -143 59q-54 0 -101 -25q-43 -24 -75 -74v208h159v61h-159v72h-91v-72h-74v-61h74z" />
    <glyph glyph-name="afii10109" unicode="&#x45c;" horiz-adv-x="604" 
d="M429 803l-137 -184h75l159 184h-97zM93 547v-547h91v267l277 -267h118l-303 291l290 256h-114l-268 -236v236h-91z" />
    <glyph glyph-name="uni045D" unicode="&#x45d;" horiz-adv-x="657" 
d="M228 802h-96l159 -183h75zM562 547h-115l-263 -438v438h-90v-547h115l264 439v-439h89v547z" />
    <glyph glyph-name="afii10110" unicode="&#x45e;" horiz-adv-x="592" 
d="M143 760q9 -140 153 -140q142 0 153 140h-58q-12 -73 -95 -73q-85 0 -95 73h-58zM322 -51l240 598h-95l-171 -428l-171 428h-95l221 -538l-16 -41q-26 -67 -46 -83q-19 -18 -57 -18h-53v-75h72q61 0 97 30q36 31 74 127z" />
    <glyph glyph-name="afii10193" unicode="&#x45f;" horiz-adv-x="662" 
d="M375 0h191v547h-89v-472h-293v472h-90v-547h191v-208h90v208z" />
    <glyph glyph-name="afii10050" unicode="&#x490;" horiz-adv-x="557" 
d="M98 0h99v646h355v232h-98v-149h-356v-729z" />
    <glyph glyph-name="afii10098" unicode="&#x491;" horiz-adv-x="491" 
d="M91 0h90v464h296v236h-90v-153h-296v-547z" />
    <glyph glyph-name="uni0492" unicode="&#x492;" horiz-adv-x="557" 
d="M35 488v-83h63v-405h99v405h267v83h-267v158h355v83h-454v-241h-63z" />
    <glyph glyph-name="uni0493" unicode="&#x493;" horiz-adv-x="491" 
d="M91 0h90v244h203v83h-203v137h296v83h-386v-220h-64v-83h64v-244z" />
    <glyph glyph-name="uni049A" unicode="&#x49a;" horiz-adv-x="656" 
d="M594 83l-305 306l362 340h-127l-327 -308v308h-99v-729h99v351l350 -351h34v-208h96v291h-83z" />
    <glyph glyph-name="uni049B" unicode="&#x49b;" horiz-adv-x="604" 
d="M501 75l-225 216l290 256h-114l-268 -236v236h-91v-547h91v267l277 -267h28v-208h90v283h-78z" />
    <glyph glyph-name="uni04B2" unicode="&#x4b2;" horiz-adv-x="685" 
d="M599 83l-195 296l234 350h-106l-182 -271l-181 271h-106l227 -340l-260 -389h106l207 310l205 -310h10v-208h96v291h-55z" />
    <glyph glyph-name="uni04B3" unicode="&#x4b3;" horiz-adv-x="592" 
d="M504 75l-153 206l198 266h-106l-145 -195l-145 195h-106l194 -261l-212 -286h106l159 215l159 -215h16v-208h90v283h-55z" />
    <glyph glyph-name="uni10A0" unicode="&#x10a0;" horiz-adv-x="505" 
d="M457 295q0 137 -97 237q-98 98 -100 225h-89q0 -146 98 -240q97 -94 97 -222q0 -212 -112 -212q-113 0 -113 192v62h-92v-63q0 -274 205 -274q203 0 203 295z" />
    <glyph glyph-name="uni10A1" unicode="&#x10a1;" horiz-adv-x="505" 
d="M457 267q0 207 -159 229q8 35 8 63q0 54 -27.5 89.5t-60.5 46.5q-41 12 -47 62h-87q3 -81 52 -101q83 -31 83 -94q0 -28 -9 -64q-161 -29 -161 -233q0 -265 205 -265q203 0 203 267zM365 267q0 -184 -110 -184q-113 0 -113 184q0 150 113 150q110 0 110 -150z" />
    <glyph glyph-name="uni10A2" unicode="&#x10a2;" horiz-adv-x="581" 
d="M532 252q0 206 -183 228q96 70 96 137q0 140 -168 140q-182 0 -182 -140v-55h81v55q0 55 103 55q78 0 78 -55q0 -68 -115 -133q-193 -25 -193 -238q0 -247 243 -247q240 0 240 253zM441 249q0 -166 -149 -166q-154 0 -154 169q0 152 155 152q148 0 148 -155z" />
    <glyph glyph-name="uni10A3" unicode="&#x10a3;" horiz-adv-x="791" 
d="M165 107l-2 -81l356 -26h91v83h-90q-192 2 -286 103t-94 276q0 211 99 211q98 0 98 -199v-2q0 -279 203 -279q202 0 202 283q0 281 -202 281q-115 0 -156 -120q-33 120 -145 120q-190 0 -190 -292q0 -256 183 -366zM652 476q0 -198 -111 -198q-114 0 -114 196
q0 199 113 199q111 0 112 -197z" />
    <glyph glyph-name="uni10A4" unicode="&#x10a4;" horiz-adv-x="510" 
d="M457 212v337q0 208 -188 208q-205 0 -205 -185v-1q0 -148 152 -163v89q-62 12 -62 69q0 108 112 108q100 0 100 -125v-337q0 -129 -112 -129q-114 0 -114 129v94h-91v-94q0 -213 202 -213q206 0 206 213z" />
    <glyph glyph-name="uni10A5" unicode="&#x10a5;" horiz-adv-x="510" 
d="M457 212v40q0 112 -87 149q87 63 87 164q0 192 -203 192q-190 0 -190 -206v-22h90v20q0 123 96 123h3q113 0 113 -110q0 -124 -100 -124h-76v-83h76q100 0 100 -103v-40q0 -129 -112 -129q-114 0 -114 129v103h-91v-103q0 -212 205 -212q203 0 203 212z" />
    <glyph glyph-name="uni10A6" unicode="&#x10a6;" horiz-adv-x="586" 
d="M537 252q0 222 -190 222q30 39 30 94q0 189 -192 189q-180 0 -180 -195q0 -146 135 -177q-42 -25 -46 -137q0 -248 219 -248q224 0 224 252zM439 252q0 -169 -126 -169q-128 0 -128 169q0 144 132 144q122 -1 122 -144zM288 566q-1 -112 -103 -112q-92 0 -92 112v2
q0 105 92 105h2q99 0 101 -107z" />
    <glyph glyph-name="uni10A7" unicode="&#x10a7;" horiz-adv-x="784" 
d="M730 522q0 235 -191 235q-123 0 -145 -110q-22 110 -145 110q-195 0 -195 -235v-270q0 -252 191 -252q197 0 197 252v270q0 151 97 151q98 0 98 -151v-270q0 -169 -98 -169v-83h8q183 0 183 252v270zM351 252q0 -169 -102 -169q-104 0 -104 169v270q0 151 104 151
q102 0 102 -151v-270z" />
    <glyph glyph-name="uni10A8" unicode="&#x10a8;" horiz-adv-x="496" 
d="M442 522q0 235 -193 235q-195 0 -195 -235v-270q0 -223 146 -252v83q-55 15 -55 169v270q0 151 104 151q102 0 102 -151v-270q0 -154 -52 -169v-83q143 28 143 252v270z" />
    <glyph glyph-name="uni10A9" unicode="&#x10a9;" horiz-adv-x="510" 
d="M457 212v40q0 112 -87 149q87 63 87 164q0 192 -246 192v-85q155 0 155 -110q0 -124 -99 -124h-1h-76v-83h76q100 0 100 -103v-40q0 -129 -112 -129q-114 0 -114 129v40h-91v-40q0 -212 205 -212q203 0 203 212z" />
    <glyph glyph-name="uni10AA" unicode="&#x10aa;" horiz-adv-x="1053" 
d="M1004 474v13v2q0 268 -188 268q-118 0 -148 -113q-38 113 -139 113q-108 0 -136 -115q-45 115 -150 115q-194 0 -194 -274q0 -281 297 -395l-122 10l-13 -93h396h171v78h-171q-433 49 -468 399v2q0 189 103 189h2q106 0 106 -177v-2v-130h81v130v2q0 177 97 177h1
q97 0 97 -177v-2v-130h81v130v2q0 175 109 177q102 0 102 -196v-3q0 -163 -98 -189v-83q184 36 184 272z" />
    <glyph glyph-name="uni10AB" unicode="&#x10ab;" horiz-adv-x="510" 
d="M457 252v297q0 208 -203 208q-194 0 -194 -190v-2h88q1 108 103 109q115 -1 115 -125v-85q-45 41 -115 45q-202 -10 -202 -257q0 -252 205 -252q203 0 203 252zM366 252q0 -169 -112 -169q-114 0 -114 169q0 165 111 165q115 0 115 -165z" />
    <glyph glyph-name="uni10AC" unicode="&#x10ac;" horiz-adv-x="509" 
d="M460 252q0 258 -204 258q-55 -1 -112 -57v96q0 114 114 114h159v85h-161q-202 0 -202 -197v-303q0 -248 202 -248q204 0 204 252zM370 252q0 -169 -114 -169q-112 0 -112 169q0 166 112 166q114 0 114 -166z" />
    <glyph glyph-name="uni10AD" unicode="&#x10ad;" horiz-adv-x="732" 
d="M679 522q0 235 -194 235q-73 0 -118 -84q-45 84 -133 84q-180 0 -180 -235v-270q0 -225 180 -252v83q-89 19 -89 169v270q0 151 89 151q88 0 88 -124v-251h91v247q0 128 72 128q103 0 103 -151v-270q0 -169 -102 -169v-83q193 27 193 242v280z" />
    <glyph glyph-name="uni10AE" unicode="&#x10ae;" horiz-adv-x="504" 
d="M456 212q0 140 -101 184q101 44 101 153q0 208 -317 208h-40v-83h40q225 0 227 -125v-2q-2 -108 -114 -108h-76v-86h76q114 0 114 -141q0 -129 -115 -129q-111 0 -111 129v65h-91v-65q0 -212 203 -212q204 0 204 212z" />
    <glyph glyph-name="uni10AF" unicode="&#x10af;" horiz-adv-x="514" 
d="M460 212v545l-388 -53v-79q128 -55 128 -162q0 -87 -140 -87h-2l1 -78q233 2 233 166q0 88 -94 164l171 25v-441q0 -129 -112 -129t-112 118v24h-91v-24q0 -201 202 -202q204 1 204 213z" />
    <glyph glyph-name="uni10B0" unicode="&#x10b0;" horiz-adv-x="822" 
d="M773 264q0 246 -212 246q-105 0 -151 -115q-58 115 -163 115q13 49 179 99q166 49 178 148h-93q-1 -53 -222 -133t-240 -360v-2q0 -253 202 -262v83h-1q-111 0 -111 182v4q0 148 112 149q114 0 114 -167v-100h90v100q0 167 113 167q111 -2 111 -151q0 -184 -111 -184v-83
q203 12 205 264z" />
    <glyph glyph-name="uni10B1" unicode="&#x10b1;" horiz-adv-x="510" 
d="M460 224q0 88 -51 124q-52 36 -53 91q5 71 46 89l-48 63q-82 -53 -82 -146q3 -64 51 -115q49 -51 49 -105v-1q-3 -140 -115 -141q-113 0 -113 141v533h-90v-533q0 -224 202 -224q204 0 204 224z" />
    <glyph glyph-name="uni10B2" unicode="&#x10b2;" horiz-adv-x="696" 
d="M647 252q0 206 -193 206q81 30 81 128v1q0 170 -151 170q-155 0 -155 -171q0 -91 77 -130q-77 -26 -77 -123q0 -127 146 -127h21v76l-23 1q-55 0 -57 50q2 77 45 77h55q142 -1 142 -158q0 -166 -184 -169q-229 0 -229 170v359h-91v-359q0 -249 318 -252h3q272 3 272 250
v1zM316 586q0 87 67 87h2q63 0 63 -87v-2q0 -92 -64 -92q-67 0 -68 94z" />
    <glyph glyph-name="uni10B3" unicode="&#x10b3;" horiz-adv-x="585" 
d="M532 201v346q-2 210 -165 210l-1 -1h-2q-83 0 -110 -70q-48 71 -114 71h-91v-84h93q67 0 67 -118v-135h83v135q0 118 74 118q65 0 65 -124v-348q0 -118 -126 -118q-136 0 -136 118v123h-89v-123q0 -201 225 -202q226 1 227 202z" />
    <glyph glyph-name="uni10B4" unicode="&#x10b4;" horiz-adv-x="791" 
d="M742 212q0 98 -81 142q81 39 81 195q0 208 -203 208q-83 0 -131 -84q-42 84 -154 84q-205 0 -205 -253q0 -260 202 -260q206 0 206 260q0 169 82 169q113 0 113 -124q0 -156 -69 -156h-45v-84h45q69 -1 69 -97q0 -129 -198 -129q-200 0 -200 83h-89q1 -166 289 -167
q288 1 288 213zM366 504q0 -175 -115 -175h-1q-110 0 -110 175q0 169 114 169q112 0 112 -169z" />
    <glyph glyph-name="uni10B5" unicode="&#x10b5;" horiz-adv-x="509" 
d="M456 212v545h-91v-164q-55 58 -131 58h-1q-153 0 -153 -246h79q1 162 77 162q129 -3 129 -154v-201q0 -129 -113 -129t-113 129v63h-90v-63q0 -211 201 -211h1q204 0 205 211z" />
    <glyph glyph-name="uni10B6" unicode="&#x10b6;" horiz-adv-x="822" 
d="M622 0v83h-113q-370 51 -370 410v3q0 177 113 177h1q112 0 112 -151v-136h91v136q0 151 112 151h1q111 0 111 -170q0 -185 -127 -185v-85q220 0 220 270q-2 254 -205 254q-113 0 -156 -106q-48 106 -159 106q-204 0 -204 -265q0 -311 249 -409l-109 9l-11 -92h331h113z
" />
    <glyph glyph-name="uni10B7" unicode="&#x10b7;" horiz-adv-x="510" 
d="M457 212v545h-91v-235q0 -108 -114 -144q-112 0 -112 144q0 165 67 223l-74 22q-84 -81 -84 -245q0 -228 205 -228q77 0 112 70v-152q0 -129 -114 -129q-112 0 -112 129v13h-91v-13q0 -211 203 -213q205 2 205 213z" />
    <glyph glyph-name="uni10B8" unicode="&#x10b8;" horiz-adv-x="535" 
d="M467 251v372q-1 138 -147 138q-69 0 -109 -74q-33 74 -160 74h-2v-82q125 0 128 -91v-17h72v17q2 91 57 91q70 0 70 -56v-178q-53 53 -112 54q-204 0 -204 -247v-1q0 -251 204 -251q203 0 203 251zM376 251q0 -168 -112 -168q-114 0 -114 168q0 162 114 162
q112 0 112 -162z" />
    <glyph glyph-name="uni10B9" unicode="&#x10b9;" horiz-adv-x="509" 
d="M335 423q58 85 59 169q0 165 -181 165q-159 0 -159 -253v-2v-502h90v203q0 150 114 150q110 0 112 -141q0 -148 -57 -212l88 -15q59 78 59 227q-1 171 -125 211zM305 592q0 -79 -47 -158q-82 -6 -114 -48v116q0 172 69 172q92 -2 92 -82z" />
    <glyph glyph-name="uni10BA" unicode="&#x10ba;" horiz-adv-x="572" 
d="M522 552q0 69 -76 114q-77 44 -80 91h-78q2 -76 72 -113q71 -38 71 -92q0 -93 -118 -93h-46v-86h49q115 0 115 -145t-134 -145q-157 0 -157 169v222q3 183 48 253l-65 45q-72 -97 -74 -298v-222q0 -252 248 -252q226 0 226 233q0 155 -124 183q123 42 123 135v1z" />
    <glyph glyph-name="uni10BB" unicode="&#x10bb;" horiz-adv-x="510" 
d="M457 262v495h-91v-299q-26 43 -112 53q-205 0 -205 -249q0 -262 205 -262q203 0 203 262zM366 262q0 -179 -112 -179q-114 0 -114 179q0 164 111 164q114 0 115 -164z" />
    <glyph glyph-name="uni10BC" unicode="&#x10bc;" horiz-adv-x="511" 
d="M55 612l-1 -360v-2q0 -250 205 -250q202 0 202 252q0 258 -204 258q-69 0 -112 -47v145q0 64 60 66q71 -2 71 -67v-12h67v12v1q0 65 119 65v84q-105 0 -155 -74q-42 74 -102 74q-150 0 -150 -145zM145 252q0 166 111 166q115 0 115 -166q0 -169 -112 -169
q-114 0 -114 169z" />
    <glyph glyph-name="uni10BD" unicode="&#x10bd;" horiz-adv-x="505" 
d="M457 207q0 130 -122 216q17 19 31 61h90v78h-90q-14 41 -41 64v130h-83v-87q-20 4 -41 4q-151 0 -151 -152t151 -152l66 11q99 -76 99 -168q0 -129 -112 -129q-114 0 -114 129v13h-91l1 -13q0 -212 201 -213q206 0 206 208zM140 522q0 75 78 75q74 0 74 -75
q0 -79 -78 -79q-74 0 -74 79z" />
    <glyph glyph-name="uni10BE" unicode="&#x10be;" horiz-adv-x="509" 
d="M460 252q0 258 -202 258h-1q-75 0 -112 -47v294h-91v-505q0 -252 203 -252t203 252zM370 252q0 -169 -113 -169q-112 0 -112 169q0 166 112 166q113 -2 113 -166z" />
    <glyph glyph-name="uni10BF" unicode="&#x10bf;" horiz-adv-x="504" 
d="M456 205q-1 98 -84 160q-81 60 -81 135v1l136 -65v87l-133 51v183h-86v-156l-139 54v-84l137 -53v-40v-2q0 -93 79 -144q79 -52 81 -127q-2 -122 -114 -122t-112 129v70h-91v-70q0 -212 202 -213q205 2 205 206z" />
    <glyph glyph-name="uni10C0" unicode="&#x10c0;" horiz-adv-x="509" 
d="M456 176q0 76 -53 118q53 36 53 100q0 50 -53 88q53 41 53 110q0 165 -255 165h-64v-84h64q164 0 164 -81q0 -67 -45 -67h-110v-84h102q54 0 54 -48q0 -58 -54 -58h-102v-83h102q54 0 54 -76q0 -93 -114 -93q-112 0 -112 120v22h-91v-22q0 -203 203 -203q204 0 204 176z
" />
    <glyph glyph-name="uni10C1" unicode="&#x10c1;" horiz-adv-x="543" 
d="M269 0q220 0 220 189q0 93 -58 135q57 45 57 96v1q0 62 -51 99q51 40 51 88q0 149 -214 149v-84q123 0 126 -63q-3 -49 -50 -49h-76v-90h76q47 0 50 -50q-3 -51 -49 -51h-77v-87h77q46 -2 46 -94q0 -106 -127 -106q-125 0 -125 129v474h-91v-474q0 -212 215 -212z" />
    <glyph glyph-name="uni10C2" unicode="&#x10c2;" horiz-adv-x="514" 
d="M54 -8v-93q88 12 204 101q113 -89 200 -101v90q-94 9 -117 28q119 66 119 235v268q0 236 -203 236h-3q-200 0 -200 -235v-269q0 -169 118 -233q-27 -18 -118 -27zM144 252v268q0 153 112 153q114 0 114 -153v-268q0 -169 -112 -169q-114 0 -114 169z" />
    <glyph glyph-name="uni10C3" unicode="&#x10c3;" horiz-adv-x="505" 
d="M457 212q0 212 -114 227q114 82 114 318h-408v-177h91v93h226q-31 -193 -115 -193h-75v-89h75q115 0 115 -179q0 -129 -112 -129q-114 0 -114 114v55h-90v-51q0 -201 201 -202q206 2 206 213z" />
    <glyph glyph-name="uni10C4" unicode="&#x10c4;" horiz-adv-x="505" 
d="M457 212q0 141 -127 189q127 50 127 205v151q-81 -83 -203 -83h-2q-112 0 -112 83h-91q0 -166 203 -169q40 0 115 19q0 -164 -112 -164h-3h-76v-88h86h1q103 0 103 -143q0 -129 -114 -129q-112 0 -112 129v13h-91v-13q0 -211 203 -213q205 2 205 213z" />
    <glyph glyph-name="uni10C5" unicode="&#x10c5;" horiz-adv-x="565" 
d="M457 224h59v84h-59v135h59v87h-59v62q0 165 -203 165q-205 0 -205 -165q0 -176 106 -221q-106 -46 -106 -195q0 -176 205 -177q203 2 203 177v48zM140 592q0 81 114 81q112 0 112 -81v-176h-115q-111 0 -111 176zM366 328v-152q0 -93 -112 -93q-114 0 -114 93
q0 148 111 152h115z" />
    <glyph glyph-name="uni10C6" unicode="&#x10c6;" horiz-adv-x="823" 
d="M774 512q0 245 -204 245q-112 0 -163 -71q-42 71 -153 71q-205 0 -205 -241q0 -242 213 -242v86q-121 4 -121 156q0 157 113 157q112 0 112 -159v-338q0 -93 -112 -93v-83q204 0 204 176v139q53 -41 109 -41q207 0 207 238zM683 514q0 -150 -113 -150q-112 0 -112 150
q0 159 112 159q113 0 113 -159z" />
    <glyph glyph-name="uni10D0" unicode="&#x10d0;" horiz-adv-x="503" 
d="M454 241q0 137 -157 200q-45 21 -56 84h-88q21 -125 139 -161q74 -47 74 -121v-4q0 -156 -112 -156q-113 0 -113 142v2l14 65l-85 20l-21 -85q2 -227 203 -227h1q201 0 201 241z" />
    <glyph glyph-name="uni10D1" unicode="&#x10d1;" horiz-adv-x="503" 
d="M454 256q0 218 -144 255v75q-24 106 -84 118q-62 14 -62 54h-89q0 -90 70 -103q69 -12 76 -72v-72q-170 -27 -172 -255q1 -256 205 -256h2q198 0 198 256zM367 256v-2q0 -171 -110 -171h-2q-116 0 -116 173v3q0 184 118 184q110 0 110 -187z" />
    <glyph glyph-name="uni10D2" unicode="&#x10d2;" horiz-adv-x="552" 
d="M503 21v3q0 184 -156 212q79 51 79 131v1q0 141 -168 141q-171 0 -171 -128l16 -74l78 23l-7 43v1q0 55 85 55q78 0 78 -57q0 -83 -73 -123q-215 -32 -215 -228q0 -229 228 -229q226 0 226 229zM417 21q0 -146 -138 -146h-6q-133 0 -133 146q0 153 139 153
q138 -2 138 -153z" />
    <glyph glyph-name="uni10D3" unicode="&#x10d3;" horiz-adv-x="785" 
d="M98 -77l42 -64q54 50 134 50q172 -9 239 -112h92q-51 146 -309 190q-155 119 -155 276v4q0 159 92 159h1q102 0 102 -169q0 -247 203 -247h3q193 0 194 247q0 254 -194 254q-121 0 -166 -104q-45 104 -145 104q-182 0 -182 -246q2 -156 147 -291l-5 -15q-57 -5 -93 -36z
M648 262q0 -169 -106 -169q-121 0 -121 164q0 169 120 169h1q106 0 106 -164z" />
    <glyph glyph-name="uni10D4" unicode="&#x10d4;" horiz-adv-x="511" 
d="M457 -6v319q0 197 -191 198q-194 0 -194 -171q2 -153 139 -177v88q-51 13 -51 89v3q0 82 106 82h1q99 0 99 -110v-2v-324v-3q0 -111 -112 -111h-2q-112 0 -112 114l15 60l-86 23l-20 -83q1 -195 205 -195q203 0 203 200z" />
    <glyph glyph-name="uni10D5" unicode="&#x10d5;" horiz-adv-x="503" 
d="M454 -27v48q0 111 -98 138q96 48 96 153v2q0 198 -191 198q-192 0 -192 -179l35 -95l74 30l-19 65q2 96 102 96t100 -115v-1q0 -117 -89 -117h-1h-50v-69h50q95 0 95 -102v-3v-50q0 -97 -114 -97q-113 0 -113 102l10 60l-85 25l-15 -85q0 -182 201 -182h2q202 0 202 178z
" />
    <glyph glyph-name="uni10D6" unicode="&#x10d6;" horiz-adv-x="516" 
d="M467 251q0 183 -149 236q53 40 53 125q0 145 -167 145q-165 0 -165 -146v-3q0 -127 98 -160q-77 -40 -79 -197q0 -251 204 -251q203 0 205 251zM374 251q0 -168 -112 -168q-113 0 -115 168v2q0 163 113 163h2q112 0 112 -165zM287 587q0 -107 -75 -107q-91 0 -91 105v2
q0 91 81 91q85 -2 85 -91z" />
    <glyph glyph-name="uni10D7" unicode="&#x10d7;" horiz-adv-x="797" 
d="M749 247q0 263 -189 264q-114 0 -150 -105q-38 105 -159 105q-202 0 -202 -255q0 -256 201 -256q207 0 207 247q0 178 102 178h2q97 0 97 -171q0 -135 -119 -171v-83q209 41 210 247zM366 247q-2 -164 -115 -164q-112 0 -112 171t112 171q115 0 115 -178z" />
    <glyph glyph-name="uni10D8" unicode="&#x10d8;" horiz-adv-x="506" 
d="M457 256q0 255 -203 255q-205 0 -205 -255q2 -214 135 -266l21 57q-64 85 -64 209q0 169 113 169h1q111 0 111 -167v-5q0 -120 -65 -206l21 -57q135 52 135 266z" />
    <glyph glyph-name="uni10D9" unicode="&#x10d9;" horiz-adv-x="504" 
d="M455 -10v20v1q0 127 -125 150q110 56 110 161v2q0 177 -262 177h-2v-85h8q169 0 169 -93q0 -115 -102 -116h-51v-84h51q113 0 113 -113v-20q0 -115 -113 -115q-112 0 -112 114v1l5 41h-86l-9 -41q0 -196 202 -196q204 0 204 196z" />
    <glyph glyph-name="uni10DA" unicode="&#x10da;" horiz-adv-x="1058" 
d="M175 -66l53 -66q51 66 147 66q334 -25 334 -137h86q-9 182 -338 205q-289 30 -316 263v2q0 154 100 154h1q108 0 109 -114l4 -121h71l5 121q0 119 95 119h3q98 0 98 -119l5 -121h72l5 121v2q0 112 104 112h2q103 0 103 -149q0 -102 -93 -160v-82q182 66 184 242v1
q0 233 -194 233q-100 0 -145 -91q-42 94 -142 96q-91 0 -138 -94q-45 89 -148 89q-193 -1 -193 -241q20 -210 211 -279v-5q-53 -17 -85 -47z" />
    <glyph glyph-name="uni10DB" unicode="&#x10db;" horiz-adv-x="511" 
d="M457 256v306q0 195 -203 195q-185 0 -185 -174h91q0 90 94 90q117 0 117 -111v-112q-41 61 -117 61q-205 0 -205 -255q0 -254 203 -256q205 1 205 256zM371 256q0 -173 -117 -173q-115 0 -115 174v2q0 166 115 166h1q116 0 116 -167v-2z" />
    <glyph glyph-name="uni10DC" unicode="&#x10dc;" horiz-adv-x="509" 
d="M460 256q0 254 -203 255q-71 0 -117 -73v155q0 80 67 81h196v83h-196q-153 0 -153 -163v-1v-337q0 -254 203 -256q203 0 203 256zM370 256q0 -173 -113 -173q-117 0 -117 173q0 169 112 169q118 0 118 -167v-2z" />
    <glyph glyph-name="uni10DD" unicode="&#x10dd;" horiz-adv-x="782" 
d="M733 259v2q0 251 -188 251q-107 0 -154 -97q-38 97 -152 97q-190 0 -190 -253q0 -193 213 -264v83q-121 55 -121 178v6q0 162 98 162q112 0 112 -125l4 -123h72l4 123v1q0 124 112 124q99 0 100 -165v-1q0 -130 -124 -180v-83q214 66 214 263v1z" />
    </font>
</defs>
</svg>
